%TF.GenerationSoftware,KiCad,Pcbnew,(6.0.4)*%
%TF.CreationDate,2022-05-06T13:19:33-03:00*%
%TF.ProjectId,kicad proyecto,6b696361-6420-4707-926f-796563746f2e,rev?*%
%TF.SameCoordinates,Original*%
%TF.FileFunction,Copper,L2,Bot*%
%TF.FilePolarity,Positive*%
%FSLAX46Y46*%
G04 Gerber Fmt 4.6, Leading zero omitted, Abs format (unit mm)*
G04 Created by KiCad (PCBNEW (6.0.4)) date 2022-05-06 13:19:33*
%MOMM*%
%LPD*%
G01*
G04 APERTURE LIST*
%ADD10C,0.300000*%
%TA.AperFunction,NonConductor*%
%ADD11C,0.300000*%
%TD*%
%TA.AperFunction,NonConductor*%
%ADD12C,0.200000*%
%TD*%
%TA.AperFunction,ComponentPad*%
%ADD13C,3.250000*%
%TD*%
%TA.AperFunction,ComponentPad*%
%ADD14R,1.800000X1.800000*%
%TD*%
%TA.AperFunction,ComponentPad*%
%ADD15C,1.800000*%
%TD*%
%TA.AperFunction,ComponentPad*%
%ADD16C,2.000000*%
%TD*%
%TA.AperFunction,ComponentPad*%
%ADD17C,1.998980*%
%TD*%
%TA.AperFunction,ComponentPad*%
%ADD18R,3.000000X3.000000*%
%TD*%
%TA.AperFunction,ComponentPad*%
%ADD19C,3.000000*%
%TD*%
%TA.AperFunction,ComponentPad*%
%ADD20R,1.750000X1.750000*%
%TD*%
%TA.AperFunction,ComponentPad*%
%ADD21C,1.750000*%
%TD*%
%TA.AperFunction,ComponentPad*%
%ADD22R,2.000000X2.000000*%
%TD*%
%TA.AperFunction,ComponentPad*%
%ADD23O,2.000000X2.000000*%
%TD*%
%TA.AperFunction,Conductor*%
%ADD24C,1.500000*%
%TD*%
G04 APERTURE END LIST*
D10*
D11*
X84878571Y-122285714D02*
X84878571Y-122000000D01*
X84807142Y-121857142D01*
X84735714Y-121785714D01*
X84521428Y-121642857D01*
X84235714Y-121571428D01*
X83664285Y-121571428D01*
X83521428Y-121642857D01*
X83450000Y-121714285D01*
X83378571Y-121857142D01*
X83378571Y-122142857D01*
X83450000Y-122285714D01*
X83521428Y-122357142D01*
X83664285Y-122428571D01*
X84021428Y-122428571D01*
X84164285Y-122357142D01*
X84235714Y-122285714D01*
X84307142Y-122142857D01*
X84307142Y-121857142D01*
X84235714Y-121714285D01*
X84164285Y-121642857D01*
X84021428Y-121571428D01*
X83378571Y-121071428D02*
X83378571Y-120142857D01*
X83950000Y-120642857D01*
X83950000Y-120428571D01*
X84021428Y-120285714D01*
X84092857Y-120214285D01*
X84235714Y-120142857D01*
X84592857Y-120142857D01*
X84735714Y-120214285D01*
X84807142Y-120285714D01*
X84878571Y-120428571D01*
X84878571Y-120857142D01*
X84807142Y-121000000D01*
X84735714Y-121071428D01*
X84735714Y-119500000D02*
X84807142Y-119428571D01*
X84878571Y-119500000D01*
X84807142Y-119571428D01*
X84735714Y-119500000D01*
X84878571Y-119500000D01*
X83378571Y-118500000D02*
X83378571Y-118357142D01*
X83450000Y-118214285D01*
X83521428Y-118142857D01*
X83664285Y-118071428D01*
X83950000Y-118000000D01*
X84307142Y-118000000D01*
X84592857Y-118071428D01*
X84735714Y-118142857D01*
X84807142Y-118214285D01*
X84878571Y-118357142D01*
X84878571Y-118500000D01*
X84807142Y-118642857D01*
X84735714Y-118714285D01*
X84592857Y-118785714D01*
X84307142Y-118857142D01*
X83950000Y-118857142D01*
X83664285Y-118785714D01*
X83521428Y-118714285D01*
X83450000Y-118642857D01*
X83378571Y-118500000D01*
X83378571Y-117071428D02*
X83378571Y-116928571D01*
X83450000Y-116785714D01*
X83521428Y-116714285D01*
X83664285Y-116642857D01*
X83950000Y-116571428D01*
X84307142Y-116571428D01*
X84592857Y-116642857D01*
X84735714Y-116714285D01*
X84807142Y-116785714D01*
X84878571Y-116928571D01*
X84878571Y-117071428D01*
X84807142Y-117214285D01*
X84735714Y-117285714D01*
X84592857Y-117357142D01*
X84307142Y-117428571D01*
X83950000Y-117428571D01*
X83664285Y-117357142D01*
X83521428Y-117285714D01*
X83450000Y-117214285D01*
X83378571Y-117071428D01*
X83378571Y-115642857D02*
X83378571Y-115500000D01*
X83450000Y-115357142D01*
X83521428Y-115285714D01*
X83664285Y-115214285D01*
X83950000Y-115142857D01*
X84307142Y-115142857D01*
X84592857Y-115214285D01*
X84735714Y-115285714D01*
X84807142Y-115357142D01*
X84878571Y-115500000D01*
X84878571Y-115642857D01*
X84807142Y-115785714D01*
X84735714Y-115857142D01*
X84592857Y-115928571D01*
X84307142Y-116000000D01*
X83950000Y-116000000D01*
X83664285Y-115928571D01*
X83521428Y-115857142D01*
X83450000Y-115785714D01*
X83378571Y-115642857D01*
X83378571Y-114214285D02*
X83378571Y-114071428D01*
X83450000Y-113928571D01*
X83521428Y-113857142D01*
X83664285Y-113785714D01*
X83950000Y-113714285D01*
X84307142Y-113714285D01*
X84592857Y-113785714D01*
X84735714Y-113857142D01*
X84807142Y-113928571D01*
X84878571Y-114071428D01*
X84878571Y-114214285D01*
X84807142Y-114357142D01*
X84735714Y-114428571D01*
X84592857Y-114500000D01*
X84307142Y-114571428D01*
X83950000Y-114571428D01*
X83664285Y-114500000D01*
X83521428Y-114428571D01*
X83450000Y-114357142D01*
X83378571Y-114214285D01*
X84878571Y-111928571D02*
X83878571Y-111928571D01*
X84021428Y-111928571D02*
X83950000Y-111857142D01*
X83878571Y-111714285D01*
X83878571Y-111500000D01*
X83950000Y-111357142D01*
X84092857Y-111285714D01*
X84878571Y-111285714D01*
X84092857Y-111285714D02*
X83950000Y-111214285D01*
X83878571Y-111071428D01*
X83878571Y-110857142D01*
X83950000Y-110714285D01*
X84092857Y-110642857D01*
X84878571Y-110642857D01*
X84878571Y-109928571D02*
X83878571Y-109928571D01*
X84021428Y-109928571D02*
X83950000Y-109857142D01*
X83878571Y-109714285D01*
X83878571Y-109500000D01*
X83950000Y-109357142D01*
X84092857Y-109285714D01*
X84878571Y-109285714D01*
X84092857Y-109285714D02*
X83950000Y-109214285D01*
X83878571Y-109071428D01*
X83878571Y-108857142D01*
X83950000Y-108714285D01*
X84092857Y-108642857D01*
X84878571Y-108642857D01*
D12*
X99500000Y-162000000D02*
X85413580Y-162000000D01*
X99500000Y-69000000D02*
X85413580Y-69000000D01*
X86000000Y-162000000D02*
X86000000Y-69000000D01*
X86000000Y-162000000D02*
X86000000Y-69000000D01*
X86000000Y-162000000D02*
X86586421Y-160873496D01*
X86000000Y-162000000D02*
X85413579Y-160873496D01*
X86000000Y-69000000D02*
X85413579Y-70126504D01*
X86000000Y-69000000D02*
X86586421Y-70126504D01*
D10*
D11*
X116285714Y-57878571D02*
X116285714Y-58878571D01*
X115928571Y-57307142D02*
X115571428Y-58378571D01*
X116500000Y-58378571D01*
X117785714Y-57378571D02*
X117071428Y-57378571D01*
X117000000Y-58092857D01*
X117071428Y-58021428D01*
X117214285Y-57950000D01*
X117571428Y-57950000D01*
X117714285Y-58021428D01*
X117785714Y-58092857D01*
X117857142Y-58235714D01*
X117857142Y-58592857D01*
X117785714Y-58735714D01*
X117714285Y-58807142D01*
X117571428Y-58878571D01*
X117214285Y-58878571D01*
X117071428Y-58807142D01*
X117000000Y-58735714D01*
X118500000Y-58735714D02*
X118571428Y-58807142D01*
X118500000Y-58878571D01*
X118428571Y-58807142D01*
X118500000Y-58735714D01*
X118500000Y-58878571D01*
X119500000Y-57378571D02*
X119642857Y-57378571D01*
X119785714Y-57450000D01*
X119857142Y-57521428D01*
X119928571Y-57664285D01*
X120000000Y-57950000D01*
X120000000Y-58307142D01*
X119928571Y-58592857D01*
X119857142Y-58735714D01*
X119785714Y-58807142D01*
X119642857Y-58878571D01*
X119500000Y-58878571D01*
X119357142Y-58807142D01*
X119285714Y-58735714D01*
X119214285Y-58592857D01*
X119142857Y-58307142D01*
X119142857Y-57950000D01*
X119214285Y-57664285D01*
X119285714Y-57521428D01*
X119357142Y-57450000D01*
X119500000Y-57378571D01*
X120928571Y-57378571D02*
X121071428Y-57378571D01*
X121214285Y-57450000D01*
X121285714Y-57521428D01*
X121357142Y-57664285D01*
X121428571Y-57950000D01*
X121428571Y-58307142D01*
X121357142Y-58592857D01*
X121285714Y-58735714D01*
X121214285Y-58807142D01*
X121071428Y-58878571D01*
X120928571Y-58878571D01*
X120785714Y-58807142D01*
X120714285Y-58735714D01*
X120642857Y-58592857D01*
X120571428Y-58307142D01*
X120571428Y-57950000D01*
X120642857Y-57664285D01*
X120714285Y-57521428D01*
X120785714Y-57450000D01*
X120928571Y-57378571D01*
X122357142Y-57378571D02*
X122500000Y-57378571D01*
X122642857Y-57450000D01*
X122714285Y-57521428D01*
X122785714Y-57664285D01*
X122857142Y-57950000D01*
X122857142Y-58307142D01*
X122785714Y-58592857D01*
X122714285Y-58735714D01*
X122642857Y-58807142D01*
X122500000Y-58878571D01*
X122357142Y-58878571D01*
X122214285Y-58807142D01*
X122142857Y-58735714D01*
X122071428Y-58592857D01*
X122000000Y-58307142D01*
X122000000Y-57950000D01*
X122071428Y-57664285D01*
X122142857Y-57521428D01*
X122214285Y-57450000D01*
X122357142Y-57378571D01*
X123785714Y-57378571D02*
X123928571Y-57378571D01*
X124071428Y-57450000D01*
X124142857Y-57521428D01*
X124214285Y-57664285D01*
X124285714Y-57950000D01*
X124285714Y-58307142D01*
X124214285Y-58592857D01*
X124142857Y-58735714D01*
X124071428Y-58807142D01*
X123928571Y-58878571D01*
X123785714Y-58878571D01*
X123642857Y-58807142D01*
X123571428Y-58735714D01*
X123500000Y-58592857D01*
X123428571Y-58307142D01*
X123428571Y-57950000D01*
X123500000Y-57664285D01*
X123571428Y-57521428D01*
X123642857Y-57450000D01*
X123785714Y-57378571D01*
X126071428Y-58878571D02*
X126071428Y-57878571D01*
X126071428Y-58021428D02*
X126142857Y-57950000D01*
X126285714Y-57878571D01*
X126500000Y-57878571D01*
X126642857Y-57950000D01*
X126714285Y-58092857D01*
X126714285Y-58878571D01*
X126714285Y-58092857D02*
X126785714Y-57950000D01*
X126928571Y-57878571D01*
X127142857Y-57878571D01*
X127285714Y-57950000D01*
X127357142Y-58092857D01*
X127357142Y-58878571D01*
X128071428Y-58878571D02*
X128071428Y-57878571D01*
X128071428Y-58021428D02*
X128142857Y-57950000D01*
X128285714Y-57878571D01*
X128500000Y-57878571D01*
X128642857Y-57950000D01*
X128714285Y-58092857D01*
X128714285Y-58878571D01*
X128714285Y-58092857D02*
X128785714Y-57950000D01*
X128928571Y-57878571D01*
X129142857Y-57878571D01*
X129285714Y-57950000D01*
X129357142Y-58092857D01*
X129357142Y-58878571D01*
D12*
X100000000Y-68500000D02*
X100000000Y-59413580D01*
X145000000Y-68500000D02*
X145000000Y-59413580D01*
X100000000Y-60000000D02*
X145000000Y-60000000D01*
X100000000Y-60000000D02*
X145000000Y-60000000D01*
X100000000Y-60000000D02*
X101126504Y-60586421D01*
X100000000Y-60000000D02*
X101126504Y-59413579D01*
X145000000Y-60000000D02*
X143873496Y-59413579D01*
X145000000Y-60000000D02*
X143873496Y-60586421D01*
D13*
%TO.P,H1,1*%
%TO.N,N/C*%
X139000000Y-157000000D03*
%TD*%
%TO.P,H4,1*%
%TO.N,N/C*%
X106000000Y-157000000D03*
%TD*%
D14*
%TO.P,C2,1*%
%TO.N,/12V_rect*%
X138197428Y-124467000D03*
D15*
%TO.P,C2,2*%
%TO.N,GND*%
X138197428Y-120967000D03*
%TD*%
D16*
%TO.P,U1,1,IN*%
%TO.N,/12V_rect*%
X138578428Y-100492000D03*
%TO.P,U1,2,GND*%
%TO.N,GND*%
X138578428Y-97952000D03*
%TO.P,U1,3,OUT*%
%TO.N,+5V*%
X138578428Y-95412000D03*
%TD*%
D17*
%TO.P,R2,1*%
%TO.N,GND*%
X107590428Y-141132000D03*
%TO.P,R2,2*%
%TO.N,/E2*%
X107590428Y-146212000D03*
%TD*%
D14*
%TO.P,C1,1*%
%TO.N,GND*%
X138197428Y-137548000D03*
D15*
%TO.P,C1,2*%
%TO.N,/E2*%
X138197428Y-134048000D03*
%TD*%
D18*
%TO.P,Medior_de_corriente_entrada1,1,Pin_1*%
%TO.N,/E1*%
X116000000Y-85000000D03*
D19*
%TO.P,Medior_de_corriente_entrada1,2,Pin_2*%
%TO.N,/E2*%
X110920000Y-85000000D03*
%TO.P,Medior_de_corriente_entrada1,3,Pin_3*%
%TO.N,GND*%
X105840000Y-85000000D03*
%TD*%
D13*
%TO.P,H2,1*%
%TO.N,N/C*%
X106000000Y-74000000D03*
%TD*%
D17*
%TO.P,R3,1*%
%TO.N,+5V*%
X136800428Y-145577000D03*
%TO.P,R3,2*%
%TO.N,Net-(R3-Pad2)*%
X136800428Y-150657000D03*
%TD*%
D14*
%TO.P,C3,1*%
%TO.N,+5V*%
X138197428Y-112021000D03*
D15*
%TO.P,C3,2*%
%TO.N,GND*%
X138197428Y-108521000D03*
%TD*%
D17*
%TO.P,R4,1*%
%TO.N,/E2*%
X115210428Y-146212000D03*
%TO.P,R4,2*%
%TO.N,/E1*%
X115210428Y-141132000D03*
%TD*%
D20*
%TO.P,Micro_controlador1,1,3V3*%
%TO.N,+3V3*%
X104110000Y-100544000D03*
D21*
%TO.P,Micro_controlador1,2,EN*%
%TO.N,unconnected-(Micro_controlador1-Pad2)*%
X104110000Y-103084000D03*
%TO.P,Micro_controlador1,3,SVP*%
%TO.N,unconnected-(Micro_controlador1-Pad3)*%
X104110000Y-105624000D03*
%TO.P,Micro_controlador1,4,SVN*%
%TO.N,unconnected-(Micro_controlador1-Pad4)*%
X104110000Y-108164000D03*
%TO.P,Micro_controlador1,5,IO34*%
%TO.N,unconnected-(Micro_controlador1-Pad5)*%
X104110000Y-110704000D03*
%TO.P,Micro_controlador1,6,IO35*%
%TO.N,unconnected-(Micro_controlador1-Pad6)*%
X104110000Y-113244000D03*
%TO.P,Micro_controlador1,7,IO32*%
%TO.N,/SCL*%
X104110000Y-115784000D03*
%TO.P,Micro_controlador1,8,IO33*%
%TO.N,/E1*%
X104110000Y-118324000D03*
%TO.P,Micro_controlador1,9,IO25*%
%TO.N,unconnected-(Micro_controlador1-Pad9)*%
X104110000Y-120864000D03*
%TO.P,Micro_controlador1,10,IO26*%
%TO.N,unconnected-(Micro_controlador1-Pad10)*%
X104110000Y-123404000D03*
%TO.P,Micro_controlador1,11,IO27*%
%TO.N,unconnected-(Micro_controlador1-Pad11)*%
X104110000Y-125944000D03*
%TO.P,Micro_controlador1,12,IO14*%
%TO.N,unconnected-(Micro_controlador1-Pad12)*%
X104110000Y-128484000D03*
%TO.P,Micro_controlador1,13,IO12*%
%TO.N,GND*%
X104110000Y-131024000D03*
%TO.P,Micro_controlador1,14,GND*%
%TO.N,unconnected-(Micro_controlador1-Pad14)*%
X104110000Y-133564000D03*
%TO.P,Micro_controlador1,15,IO13*%
%TO.N,unconnected-(Micro_controlador1-Pad15)*%
X104110000Y-136104000D03*
%TO.P,Micro_controlador1,16,SD2*%
%TO.N,unconnected-(Micro_controlador1-Pad16)*%
X104110000Y-138644000D03*
%TO.P,Micro_controlador1,17,SD3*%
%TO.N,unconnected-(Micro_controlador1-Pad17)*%
X104110000Y-141184000D03*
%TO.P,Micro_controlador1,18,CMD*%
%TO.N,unconnected-(Micro_controlador1-Pad18)*%
X104110000Y-143724000D03*
%TO.P,Micro_controlador1,19,5V*%
%TO.N,+5V*%
X104110000Y-146264000D03*
%TO.P,Micro_controlador1,20,CLK*%
%TO.N,unconnected-(Micro_controlador1-Pad20)*%
X129510000Y-100544000D03*
%TO.P,Micro_controlador1,21,SD0*%
%TO.N,unconnected-(Micro_controlador1-Pad21)*%
X129510000Y-103084000D03*
%TO.P,Micro_controlador1,22,SD1*%
%TO.N,unconnected-(Micro_controlador1-Pad22)*%
X129510000Y-105624000D03*
%TO.P,Micro_controlador1,23,IO15*%
%TO.N,unconnected-(Micro_controlador1-Pad23)*%
X129510000Y-108164000D03*
%TO.P,Micro_controlador1,24,IO02*%
%TO.N,unconnected-(Micro_controlador1-Pad24)*%
X129510000Y-110704000D03*
%TO.P,Micro_controlador1,25,IO0*%
%TO.N,unconnected-(Micro_controlador1-Pad25)*%
X129510000Y-113244000D03*
%TO.P,Micro_controlador1,26,IO4*%
%TO.N,unconnected-(Micro_controlador1-Pad26)*%
X129510000Y-115784000D03*
%TO.P,Micro_controlador1,27,IO16*%
%TO.N,unconnected-(Micro_controlador1-Pad27)*%
X129510000Y-118324000D03*
%TO.P,Micro_controlador1,28,IO17*%
%TO.N,unconnected-(Micro_controlador1-Pad28)*%
X129510000Y-120864000D03*
%TO.P,Micro_controlador1,29,IO5*%
%TO.N,unconnected-(Micro_controlador1-Pad29)*%
X129510000Y-123404000D03*
%TO.P,Micro_controlador1,30,IO18*%
%TO.N,unconnected-(Micro_controlador1-Pad30)*%
X129510000Y-125944000D03*
%TO.P,Micro_controlador1,31,IO19*%
%TO.N,unconnected-(Micro_controlador1-Pad31)*%
X129510000Y-128484000D03*
%TO.P,Micro_controlador1,32,GND*%
%TO.N,unconnected-(Micro_controlador1-Pad32)*%
X129510000Y-131024000D03*
%TO.P,Micro_controlador1,33,IO21*%
%TO.N,unconnected-(Micro_controlador1-Pad33)*%
X129510000Y-133564000D03*
%TO.P,Micro_controlador1,34,RXD0*%
%TO.N,unconnected-(Micro_controlador1-Pad34)*%
X129510000Y-136104000D03*
%TO.P,Micro_controlador1,35,TXD0*%
%TO.N,unconnected-(Micro_controlador1-Pad35)*%
X129510000Y-138644000D03*
%TO.P,Micro_controlador1,36,IO22*%
%TO.N,unconnected-(Micro_controlador1-Pad36)*%
X129510000Y-141184000D03*
%TO.P,Micro_controlador1,37,IO23*%
%TO.N,unconnected-(Micro_controlador1-Pad37)*%
X129510000Y-143724000D03*
%TO.P,Micro_controlador1,38,GND*%
%TO.N,GND*%
X129510000Y-146264000D03*
%TD*%
D18*
%TO.P,12v_alterna1,1,Pin_1*%
%TO.N,/12v_alterna1*%
X127540000Y-85000000D03*
D19*
%TO.P,12v_alterna1,2,Pin_2*%
%TO.N,/12v_alterna2*%
X122460000Y-85000000D03*
%TD*%
D17*
%TO.P,R1,1*%
%TO.N,/E2*%
X123491000Y-146212000D03*
%TO.P,R1,2*%
%TO.N,+3V3*%
X123491000Y-151292000D03*
%TD*%
D13*
%TO.P,H3,1*%
%TO.N,N/C*%
X139000000Y-74000000D03*
%TD*%
D22*
%TO.P,Puente_de_diodos1,1,+*%
%TO.N,/12V_rect*%
X142464000Y-86014000D03*
D23*
%TO.P,Puente_de_diodos1,2,-*%
%TO.N,GND*%
X142464000Y-80934000D03*
%TO.P,Puente_de_diodos1,3*%
%TO.N,/12v_alterna1*%
X137384000Y-80934000D03*
%TO.P,Puente_de_diodos1,4*%
%TO.N,/12v_alterna2*%
X137384000Y-86014000D03*
%TD*%
D17*
%TO.P,D5,1,K*%
%TO.N,GND*%
X142007428Y-148117000D03*
%TO.P,D5,2,A*%
%TO.N,Net-(R3-Pad2)*%
X142007428Y-150657000D03*
%TD*%
D24*
%TO.N,+3V3*%
X101316000Y-101508000D02*
X102280000Y-100544000D01*
X123491000Y-151292000D02*
X103348000Y-151292000D01*
X103348000Y-151292000D02*
X101316000Y-149260000D01*
X102280000Y-100544000D02*
X104110000Y-100544000D01*
X101316000Y-149260000D02*
X101316000Y-101508000D01*
%TO.N,/12v_alterna1*%
X127540000Y-82460000D02*
X129066000Y-80934000D01*
X127540000Y-85000000D02*
X127540000Y-82460000D01*
X129066000Y-80934000D02*
X137384000Y-80934000D01*
%TO.N,/12v_alterna2*%
X122460000Y-85000000D02*
X122460000Y-87460000D01*
X136000000Y-89000000D02*
X137384000Y-87616000D01*
X122460000Y-87460000D02*
X124000000Y-89000000D01*
X137384000Y-87616000D02*
X137384000Y-86014000D01*
X124000000Y-89000000D02*
X136000000Y-89000000D01*
%TO.N,/12V_rect*%
X142464000Y-86014000D02*
X142464000Y-92058572D01*
X142769428Y-98841000D02*
X141118428Y-100492000D01*
X140384428Y-124467000D02*
X142769428Y-122082000D01*
X142769428Y-92364000D02*
X142769428Y-98841000D01*
X142464000Y-92058572D02*
X142769428Y-92364000D01*
X141118428Y-100492000D02*
X138578428Y-100492000D01*
X142769428Y-122082000D02*
X142769428Y-98841000D01*
X138197428Y-124467000D02*
X140384428Y-124467000D01*
%TO.N,+5V*%
X132026428Y-95360000D02*
X138526428Y-95360000D01*
X138197428Y-112021000D02*
X136772428Y-112021000D01*
X104110000Y-146264000D02*
X104110000Y-148244000D01*
X136038428Y-128813000D02*
X134514428Y-127289000D01*
X104872000Y-149006000D02*
X124684000Y-149006000D01*
X138324428Y-128813000D02*
X136038428Y-128813000D01*
X104110000Y-148244000D02*
X104872000Y-149006000D01*
X132176428Y-95360000D02*
X132026428Y-95360000D01*
X139848428Y-145577000D02*
X141372428Y-144053000D01*
X141372428Y-144053000D02*
X141372428Y-131861000D01*
X136800428Y-145577000D02*
X139848428Y-145577000D01*
X138526428Y-95360000D02*
X138578428Y-95412000D01*
X126462000Y-150784000D02*
X133574000Y-150784000D01*
X133574000Y-150784000D02*
X136800428Y-147557572D01*
X141372428Y-131861000D02*
X138324428Y-128813000D01*
X136772428Y-112021000D02*
X134514428Y-109763000D01*
X136800428Y-147557572D02*
X136800428Y-145577000D01*
X124684000Y-149006000D02*
X126462000Y-150784000D01*
X134514428Y-109763000D02*
X134514428Y-97698000D01*
X134514428Y-97698000D02*
X132176428Y-95360000D01*
X134514428Y-127289000D02*
X134514428Y-109763000D01*
%TO.N,Net-(R3-Pad2)*%
X142007428Y-150657000D02*
X136800428Y-150657000D01*
%TO.N,/E2*%
X110920000Y-85000000D02*
X110920000Y-82080000D01*
X132990428Y-146795572D02*
X132990428Y-136560000D01*
X118000000Y-81000000D02*
X119000000Y-82000000D01*
X112000000Y-81000000D02*
X118000000Y-81000000D01*
X135502428Y-134048000D02*
X138197428Y-134048000D01*
X123491000Y-146212000D02*
X125192000Y-146212000D01*
X125192000Y-146212000D02*
X127732000Y-148752000D01*
X119000000Y-82000000D02*
X119000000Y-144592000D01*
X110920000Y-82080000D02*
X112000000Y-81000000D01*
X132990428Y-136560000D02*
X135502428Y-134048000D01*
X127732000Y-148752000D02*
X131034000Y-148752000D01*
X107590428Y-146212000D02*
X112543428Y-146212000D01*
X112543428Y-146212000D02*
X120620000Y-146212000D01*
X131034000Y-148752000D02*
X132990428Y-146795572D01*
X119000000Y-144592000D02*
X120620000Y-146212000D01*
X120620000Y-146212000D02*
X123491000Y-146212000D01*
%TO.N,/E1*%
X116000000Y-110550000D02*
X108226000Y-118324000D01*
X108226000Y-118324000D02*
X104110000Y-118324000D01*
X115210428Y-141132000D02*
X115210428Y-125308428D01*
X116000000Y-85000000D02*
X116000000Y-110550000D01*
X115210428Y-125308428D02*
X108226000Y-118324000D01*
%TD*%
%TA.AperFunction,Conductor*%
%TO.N,GND*%
G36*
X144433621Y-69528502D02*
G01*
X144480114Y-69582158D01*
X144491500Y-69634500D01*
X144491500Y-161365500D01*
X144471498Y-161433621D01*
X144417842Y-161480114D01*
X144365500Y-161491500D01*
X100634500Y-161491500D01*
X100566379Y-161471498D01*
X100519886Y-161417842D01*
X100508500Y-161365500D01*
X100508500Y-156977606D01*
X103861632Y-156977606D01*
X103878378Y-157268023D01*
X103879203Y-157272228D01*
X103879204Y-157272236D01*
X103911615Y-157437436D01*
X103934382Y-157553481D01*
X103935769Y-157557532D01*
X103935770Y-157557536D01*
X104027220Y-157824641D01*
X104027224Y-157824650D01*
X104028609Y-157828696D01*
X104159316Y-158088577D01*
X104324083Y-158328315D01*
X104519862Y-158543473D01*
X104523151Y-158546223D01*
X104739738Y-158727319D01*
X104739743Y-158727323D01*
X104743030Y-158730071D01*
X104808058Y-158770863D01*
X104985817Y-158882371D01*
X104985821Y-158882373D01*
X104989457Y-158884654D01*
X105254584Y-159004363D01*
X105258703Y-159005583D01*
X105529391Y-159085765D01*
X105529396Y-159085766D01*
X105533504Y-159086983D01*
X105537738Y-159087631D01*
X105537743Y-159087632D01*
X105793635Y-159126789D01*
X105821056Y-159130985D01*
X105969176Y-159133312D01*
X106107629Y-159135487D01*
X106107635Y-159135487D01*
X106111920Y-159135554D01*
X106400712Y-159100607D01*
X106682090Y-159026789D01*
X106950846Y-158915466D01*
X107202007Y-158768699D01*
X107430926Y-158589204D01*
X107472578Y-158546223D01*
X107630383Y-158383380D01*
X107633366Y-158380302D01*
X107805583Y-158145858D01*
X107944388Y-157890210D01*
X108047213Y-157618090D01*
X108112157Y-157334533D01*
X108138016Y-157044785D01*
X108138485Y-157000000D01*
X108136958Y-156977606D01*
X136861632Y-156977606D01*
X136878378Y-157268023D01*
X136879203Y-157272228D01*
X136879204Y-157272236D01*
X136911615Y-157437436D01*
X136934382Y-157553481D01*
X136935769Y-157557532D01*
X136935770Y-157557536D01*
X137027220Y-157824641D01*
X137027224Y-157824650D01*
X137028609Y-157828696D01*
X137159316Y-158088577D01*
X137324083Y-158328315D01*
X137519862Y-158543473D01*
X137523151Y-158546223D01*
X137739738Y-158727319D01*
X137739743Y-158727323D01*
X137743030Y-158730071D01*
X137808058Y-158770863D01*
X137985817Y-158882371D01*
X137985821Y-158882373D01*
X137989457Y-158884654D01*
X138254584Y-159004363D01*
X138258703Y-159005583D01*
X138529391Y-159085765D01*
X138529396Y-159085766D01*
X138533504Y-159086983D01*
X138537738Y-159087631D01*
X138537743Y-159087632D01*
X138793635Y-159126789D01*
X138821056Y-159130985D01*
X138969176Y-159133312D01*
X139107629Y-159135487D01*
X139107635Y-159135487D01*
X139111920Y-159135554D01*
X139400712Y-159100607D01*
X139682090Y-159026789D01*
X139950846Y-158915466D01*
X140202007Y-158768699D01*
X140430926Y-158589204D01*
X140472578Y-158546223D01*
X140630383Y-158383380D01*
X140633366Y-158380302D01*
X140805583Y-158145858D01*
X140944388Y-157890210D01*
X141047213Y-157618090D01*
X141112157Y-157334533D01*
X141138016Y-157044785D01*
X141138485Y-157000000D01*
X141118699Y-156709774D01*
X141059709Y-156424919D01*
X140962605Y-156150705D01*
X140829184Y-155892207D01*
X140815765Y-155873113D01*
X140664378Y-155657713D01*
X140661915Y-155654208D01*
X140463894Y-155441112D01*
X140460578Y-155438398D01*
X140460575Y-155438395D01*
X140242102Y-155259577D01*
X140238784Y-155256861D01*
X139990752Y-155104867D01*
X139986835Y-155103148D01*
X139986832Y-155103146D01*
X139869273Y-155051542D01*
X139724386Y-154987941D01*
X139720258Y-154986765D01*
X139720255Y-154986764D01*
X139634087Y-154962218D01*
X139444616Y-154908246D01*
X139440374Y-154907642D01*
X139440368Y-154907641D01*
X139160870Y-154867863D01*
X139156619Y-154867258D01*
X139003232Y-154866455D01*
X138870009Y-154865757D01*
X138870003Y-154865757D01*
X138865723Y-154865735D01*
X138861479Y-154866294D01*
X138861475Y-154866294D01*
X138734456Y-154883017D01*
X138577313Y-154903705D01*
X138573173Y-154904838D01*
X138573171Y-154904838D01*
X138556411Y-154909423D01*
X138296724Y-154980465D01*
X138292776Y-154982149D01*
X138033100Y-155092910D01*
X138033096Y-155092912D01*
X138029148Y-155094596D01*
X137779538Y-155243985D01*
X137552511Y-155425867D01*
X137352269Y-155636878D01*
X137182517Y-155873113D01*
X137046397Y-156130200D01*
X136946426Y-156403382D01*
X136884456Y-156687604D01*
X136861632Y-156977606D01*
X108136958Y-156977606D01*
X108118699Y-156709774D01*
X108059709Y-156424919D01*
X107962605Y-156150705D01*
X107829184Y-155892207D01*
X107815765Y-155873113D01*
X107664378Y-155657713D01*
X107661915Y-155654208D01*
X107463894Y-155441112D01*
X107460578Y-155438398D01*
X107460575Y-155438395D01*
X107242102Y-155259577D01*
X107238784Y-155256861D01*
X106990752Y-155104867D01*
X106986835Y-155103148D01*
X106986832Y-155103146D01*
X106869273Y-155051542D01*
X106724386Y-154987941D01*
X106720258Y-154986765D01*
X106720255Y-154986764D01*
X106634087Y-154962218D01*
X106444616Y-154908246D01*
X106440374Y-154907642D01*
X106440368Y-154907641D01*
X106160870Y-154867863D01*
X106156619Y-154867258D01*
X106003232Y-154866455D01*
X105870009Y-154865757D01*
X105870003Y-154865757D01*
X105865723Y-154865735D01*
X105861479Y-154866294D01*
X105861475Y-154866294D01*
X105734456Y-154883017D01*
X105577313Y-154903705D01*
X105573173Y-154904838D01*
X105573171Y-154904838D01*
X105556411Y-154909423D01*
X105296724Y-154980465D01*
X105292776Y-154982149D01*
X105033100Y-155092910D01*
X105033096Y-155092912D01*
X105029148Y-155094596D01*
X104779538Y-155243985D01*
X104552511Y-155425867D01*
X104352269Y-155636878D01*
X104182517Y-155873113D01*
X104046397Y-156130200D01*
X103946426Y-156403382D01*
X103884456Y-156687604D01*
X103861632Y-156977606D01*
X100508500Y-156977606D01*
X100508500Y-150536477D01*
X100528502Y-150468356D01*
X100582158Y-150421863D01*
X100652432Y-150411759D01*
X100717012Y-150441253D01*
X100723595Y-150447382D01*
X102393472Y-152117259D01*
X102404340Y-152129651D01*
X102414462Y-152142843D01*
X102414469Y-152142851D01*
X102417877Y-152147292D01*
X102450417Y-152176901D01*
X102478185Y-152202168D01*
X102482480Y-152206267D01*
X102498411Y-152222198D01*
X102518427Y-152238934D01*
X102522376Y-152242379D01*
X102579879Y-152294703D01*
X102579883Y-152294706D01*
X102584036Y-152298485D01*
X102588791Y-152301468D01*
X102588794Y-152301470D01*
X102599224Y-152308012D01*
X102613097Y-152318091D01*
X102622545Y-152325992D01*
X102622552Y-152325997D01*
X102626854Y-152329594D01*
X102631730Y-152332375D01*
X102699240Y-152370882D01*
X102703768Y-152373592D01*
X102769596Y-152414886D01*
X102769599Y-152414888D01*
X102774344Y-152417864D01*
X102779549Y-152419957D01*
X102779552Y-152419958D01*
X102790979Y-152424552D01*
X102806411Y-152432012D01*
X102817119Y-152438120D01*
X102817128Y-152438124D01*
X102821993Y-152440899D01*
X102827270Y-152442768D01*
X102827275Y-152442770D01*
X102900542Y-152468715D01*
X102905478Y-152470580D01*
X102982783Y-152501656D01*
X102988270Y-152502792D01*
X102988272Y-152502793D01*
X103000349Y-152505294D01*
X103016844Y-152509899D01*
X103033759Y-152515889D01*
X103116010Y-152529359D01*
X103121180Y-152530317D01*
X103202767Y-152547213D01*
X103207379Y-152547479D01*
X103207380Y-152547479D01*
X103230548Y-152548815D01*
X103243653Y-152550262D01*
X103249910Y-152551286D01*
X103249914Y-152551286D01*
X103255457Y-152552194D01*
X103261070Y-152552106D01*
X103261072Y-152552106D01*
X103362264Y-152550516D01*
X103364243Y-152550500D01*
X122623036Y-152550500D01*
X122688871Y-152569068D01*
X122800040Y-152637193D01*
X122800050Y-152637198D01*
X122804270Y-152639784D01*
X122808840Y-152641677D01*
X122808844Y-152641679D01*
X123018996Y-152728726D01*
X123019002Y-152728728D01*
X123023565Y-152730618D01*
X123028365Y-152731770D01*
X123028370Y-152731772D01*
X123133785Y-152757080D01*
X123254369Y-152786030D01*
X123491000Y-152804653D01*
X123727631Y-152786030D01*
X123848215Y-152757080D01*
X123953630Y-152731772D01*
X123953635Y-152731770D01*
X123958435Y-152730618D01*
X123962998Y-152728728D01*
X123963004Y-152728726D01*
X124173156Y-152641679D01*
X124173160Y-152641677D01*
X124177730Y-152639784D01*
X124380115Y-152515762D01*
X124560607Y-152361607D01*
X124714762Y-152181115D01*
X124838784Y-151978730D01*
X124840679Y-151974156D01*
X124927726Y-151764004D01*
X124927728Y-151763998D01*
X124929618Y-151759435D01*
X124931558Y-151751358D01*
X124959530Y-151634843D01*
X124985030Y-151528631D01*
X124995821Y-151391523D01*
X125021105Y-151325182D01*
X125078243Y-151283042D01*
X125149093Y-151278483D01*
X125210527Y-151312314D01*
X125507472Y-151609259D01*
X125518340Y-151621651D01*
X125528462Y-151634843D01*
X125528469Y-151634851D01*
X125531877Y-151639292D01*
X125558751Y-151663745D01*
X125592185Y-151694168D01*
X125596480Y-151698267D01*
X125612411Y-151714198D01*
X125632427Y-151730934D01*
X125636376Y-151734379D01*
X125693879Y-151786703D01*
X125693883Y-151786706D01*
X125698036Y-151790485D01*
X125702791Y-151793468D01*
X125702794Y-151793470D01*
X125713224Y-151800012D01*
X125727097Y-151810091D01*
X125736545Y-151817992D01*
X125736552Y-151817997D01*
X125740854Y-151821594D01*
X125745730Y-151824375D01*
X125813240Y-151862882D01*
X125817759Y-151865587D01*
X125831227Y-151874035D01*
X125883596Y-151906886D01*
X125883599Y-151906888D01*
X125888344Y-151909864D01*
X125893549Y-151911957D01*
X125893552Y-151911958D01*
X125904979Y-151916552D01*
X125920411Y-151924012D01*
X125931119Y-151930120D01*
X125931128Y-151930124D01*
X125935993Y-151932899D01*
X125941270Y-151934768D01*
X125941275Y-151934770D01*
X126014542Y-151960715D01*
X126019478Y-151962580D01*
X126045581Y-151973073D01*
X126096783Y-151993656D01*
X126102270Y-151994792D01*
X126102272Y-151994793D01*
X126114349Y-151997294D01*
X126130844Y-152001899D01*
X126147759Y-152007889D01*
X126153296Y-152008796D01*
X126153297Y-152008796D01*
X126229991Y-152021355D01*
X126235181Y-152022317D01*
X126312246Y-152038277D01*
X126312250Y-152038278D01*
X126316767Y-152039213D01*
X126321376Y-152039479D01*
X126321378Y-152039479D01*
X126344548Y-152040815D01*
X126357653Y-152042262D01*
X126363910Y-152043286D01*
X126363917Y-152043286D01*
X126369458Y-152044194D01*
X126375070Y-152044106D01*
X126375072Y-152044106D01*
X126476264Y-152042516D01*
X126478243Y-152042500D01*
X133482604Y-152042500D01*
X133499051Y-152043578D01*
X133515516Y-152045746D01*
X133515520Y-152045746D01*
X133521086Y-152046479D01*
X133602489Y-152042640D01*
X133608424Y-152042500D01*
X133630999Y-152042500D01*
X133656989Y-152040181D01*
X133662248Y-152039822D01*
X133745488Y-152035896D01*
X133750947Y-152034646D01*
X133750952Y-152034645D01*
X133762970Y-152031892D01*
X133779899Y-152029211D01*
X133797762Y-152027617D01*
X133803178Y-152026135D01*
X133803180Y-152026135D01*
X133878133Y-152005630D01*
X133883251Y-152004344D01*
X133959000Y-151986995D01*
X133959002Y-151986994D01*
X133964470Y-151985742D01*
X133974970Y-151981263D01*
X133980967Y-151978706D01*
X133997142Y-151973073D01*
X134009039Y-151969818D01*
X134009043Y-151969817D01*
X134014451Y-151968337D01*
X134084826Y-151934770D01*
X134089667Y-151932461D01*
X134094476Y-151930290D01*
X134165949Y-151899804D01*
X134165950Y-151899804D01*
X134171109Y-151897603D01*
X134186110Y-151887749D01*
X134201025Y-151879346D01*
X134217218Y-151871622D01*
X134221769Y-151868352D01*
X134221772Y-151868350D01*
X134284881Y-151823001D01*
X134289232Y-151820011D01*
X134355010Y-151776804D01*
X134355018Y-151776798D01*
X134358874Y-151774265D01*
X134379662Y-151755743D01*
X134389939Y-151747510D01*
X134399654Y-151740529D01*
X134474063Y-151663745D01*
X134475452Y-151662335D01*
X135135257Y-151002530D01*
X135197569Y-150968504D01*
X135268384Y-150973569D01*
X135325220Y-151016116D01*
X135346871Y-151062211D01*
X135360655Y-151119627D01*
X135360656Y-151119630D01*
X135361810Y-151124435D01*
X135363700Y-151128998D01*
X135363702Y-151129004D01*
X135425618Y-151278483D01*
X135452644Y-151343730D01*
X135576666Y-151546115D01*
X135730821Y-151726607D01*
X135734577Y-151729815D01*
X135747122Y-151740529D01*
X135911313Y-151880762D01*
X136063718Y-151974156D01*
X136104317Y-151999035D01*
X136113698Y-152004784D01*
X136118268Y-152006677D01*
X136118272Y-152006679D01*
X136328424Y-152093726D01*
X136328430Y-152093728D01*
X136332993Y-152095618D01*
X136337793Y-152096770D01*
X136337798Y-152096772D01*
X136423133Y-152117259D01*
X136563797Y-152151030D01*
X136800428Y-152169653D01*
X137037059Y-152151030D01*
X137177723Y-152117259D01*
X137263058Y-152096772D01*
X137263063Y-152096770D01*
X137267863Y-152095618D01*
X137272426Y-152093728D01*
X137272432Y-152093726D01*
X137482584Y-152006679D01*
X137482588Y-152006677D01*
X137487158Y-152004784D01*
X137491378Y-152002198D01*
X137491388Y-152002193D01*
X137602557Y-151934068D01*
X137668392Y-151915500D01*
X141139464Y-151915500D01*
X141205299Y-151934068D01*
X141316468Y-152002193D01*
X141316478Y-152002198D01*
X141320698Y-152004784D01*
X141325268Y-152006677D01*
X141325272Y-152006679D01*
X141535424Y-152093726D01*
X141535430Y-152093728D01*
X141539993Y-152095618D01*
X141544793Y-152096770D01*
X141544798Y-152096772D01*
X141630133Y-152117259D01*
X141770797Y-152151030D01*
X142007428Y-152169653D01*
X142244059Y-152151030D01*
X142384723Y-152117259D01*
X142470058Y-152096772D01*
X142470063Y-152096770D01*
X142474863Y-152095618D01*
X142479426Y-152093728D01*
X142479432Y-152093726D01*
X142689584Y-152006679D01*
X142689588Y-152006677D01*
X142694158Y-152004784D01*
X142703540Y-151999035D01*
X142744138Y-151974156D01*
X142896543Y-151880762D01*
X143060734Y-151740529D01*
X143073279Y-151729815D01*
X143077035Y-151726607D01*
X143231190Y-151546115D01*
X143355212Y-151343730D01*
X143382238Y-151278483D01*
X143444154Y-151129004D01*
X143444156Y-151128998D01*
X143446046Y-151124435D01*
X143447201Y-151119627D01*
X143500303Y-150898440D01*
X143501458Y-150893631D01*
X143520081Y-150657000D01*
X143501458Y-150420369D01*
X143446046Y-150189565D01*
X143444156Y-150185002D01*
X143444154Y-150184996D01*
X143357107Y-149974844D01*
X143357105Y-149974840D01*
X143355212Y-149970270D01*
X143231190Y-149767885D01*
X143077035Y-149587393D01*
X142896543Y-149433238D01*
X142694158Y-149309216D01*
X142689588Y-149307323D01*
X142689584Y-149307321D01*
X142479432Y-149220274D01*
X142479426Y-149220272D01*
X142474863Y-149218382D01*
X142470063Y-149217230D01*
X142470058Y-149217228D01*
X142364643Y-149191920D01*
X142244059Y-149162970D01*
X142007428Y-149144347D01*
X141770797Y-149162970D01*
X141650213Y-149191920D01*
X141544798Y-149217228D01*
X141544793Y-149217230D01*
X141539993Y-149218382D01*
X141535430Y-149220272D01*
X141535424Y-149220274D01*
X141325272Y-149307321D01*
X141325268Y-149307323D01*
X141320698Y-149309216D01*
X141316479Y-149311801D01*
X141316468Y-149311807D01*
X141205299Y-149379932D01*
X141139464Y-149398500D01*
X137668392Y-149398500D01*
X137602557Y-149379932D01*
X137491388Y-149311807D01*
X137491377Y-149311801D01*
X137487158Y-149309216D01*
X137482588Y-149307323D01*
X137482584Y-149307321D01*
X137272432Y-149220274D01*
X137272426Y-149220272D01*
X137267863Y-149218382D01*
X137263064Y-149217230D01*
X137263046Y-149217224D01*
X137205639Y-149203442D01*
X137144070Y-149168090D01*
X137111388Y-149105063D01*
X137117969Y-149034372D01*
X137145959Y-148991829D01*
X137625691Y-148512097D01*
X137638082Y-148501229D01*
X137651276Y-148491105D01*
X137655720Y-148487695D01*
X137710586Y-148427398D01*
X137714685Y-148423103D01*
X137730626Y-148407162D01*
X137747370Y-148387136D01*
X137750829Y-148383171D01*
X137803136Y-148325687D01*
X137803137Y-148325686D01*
X137806913Y-148321536D01*
X137816444Y-148306342D01*
X137826513Y-148292482D01*
X137838021Y-148278719D01*
X137879297Y-148206354D01*
X137882007Y-148201825D01*
X137923313Y-148135977D01*
X137926292Y-148131228D01*
X137932981Y-148114589D01*
X137940440Y-148099159D01*
X137946547Y-148088453D01*
X137946551Y-148088444D01*
X137949326Y-148083579D01*
X137977143Y-148005026D01*
X137979004Y-148000101D01*
X138007992Y-147927992D01*
X138010084Y-147922789D01*
X138013722Y-147905222D01*
X138018327Y-147888728D01*
X138024317Y-147871813D01*
X138037787Y-147789562D01*
X138038747Y-147784383D01*
X138045705Y-147750787D01*
X138055641Y-147702805D01*
X138057243Y-147675024D01*
X138058690Y-147661919D01*
X138059714Y-147655662D01*
X138059714Y-147655658D01*
X138060622Y-147650115D01*
X138060511Y-147643013D01*
X138058944Y-147543308D01*
X138058928Y-147541329D01*
X138058928Y-146961500D01*
X138078930Y-146893379D01*
X138132586Y-146846886D01*
X138184928Y-146835500D01*
X139757032Y-146835500D01*
X139773479Y-146836578D01*
X139789944Y-146838746D01*
X139789948Y-146838746D01*
X139795514Y-146839479D01*
X139876917Y-146835640D01*
X139882852Y-146835500D01*
X139905427Y-146835500D01*
X139931417Y-146833181D01*
X139936676Y-146832822D01*
X140019916Y-146828896D01*
X140025375Y-146827646D01*
X140025380Y-146827645D01*
X140037398Y-146824892D01*
X140054327Y-146822211D01*
X140072190Y-146820617D01*
X140077606Y-146819135D01*
X140077608Y-146819135D01*
X140152561Y-146798630D01*
X140157679Y-146797344D01*
X140233428Y-146779995D01*
X140233430Y-146779994D01*
X140238898Y-146778742D01*
X140249398Y-146774263D01*
X140255395Y-146771706D01*
X140271570Y-146766073D01*
X140283467Y-146762818D01*
X140283471Y-146762817D01*
X140288879Y-146761337D01*
X140364095Y-146725461D01*
X140368904Y-146723290D01*
X140440377Y-146692804D01*
X140440378Y-146692804D01*
X140445537Y-146690603D01*
X140460538Y-146680749D01*
X140475453Y-146672346D01*
X140491646Y-146664622D01*
X140496197Y-146661352D01*
X140496200Y-146661350D01*
X140559309Y-146616001D01*
X140563660Y-146613011D01*
X140629438Y-146569804D01*
X140629446Y-146569798D01*
X140633302Y-146567265D01*
X140654090Y-146548743D01*
X140664367Y-146540510D01*
X140674082Y-146533529D01*
X140748490Y-146456746D01*
X140749879Y-146455336D01*
X142197691Y-145007525D01*
X142210082Y-144996657D01*
X142223276Y-144986533D01*
X142227720Y-144983123D01*
X142236312Y-144973681D01*
X142282565Y-144922848D01*
X142286666Y-144918549D01*
X142291772Y-144913443D01*
X142302626Y-144902590D01*
X142319370Y-144882564D01*
X142322829Y-144878599D01*
X142338679Y-144861181D01*
X142378913Y-144816964D01*
X142388444Y-144801770D01*
X142398513Y-144787910D01*
X142410021Y-144774147D01*
X142451297Y-144701782D01*
X142454007Y-144697253D01*
X142495313Y-144631405D01*
X142498292Y-144626656D01*
X142504981Y-144610017D01*
X142512440Y-144594587D01*
X142518547Y-144583881D01*
X142518551Y-144583872D01*
X142521326Y-144579007D01*
X142549140Y-144500462D01*
X142551001Y-144495537D01*
X142572042Y-144443198D01*
X142582084Y-144418217D01*
X142585724Y-144400639D01*
X142590330Y-144384146D01*
X142596316Y-144367241D01*
X142598084Y-144356449D01*
X142609780Y-144285023D01*
X142610742Y-144279833D01*
X142621043Y-144230095D01*
X142627641Y-144198233D01*
X142629244Y-144170437D01*
X142630691Y-144157331D01*
X142631714Y-144151086D01*
X142631715Y-144151079D01*
X142632621Y-144145543D01*
X142632521Y-144139141D01*
X142630944Y-144038770D01*
X142630928Y-144036791D01*
X142630928Y-131952396D01*
X142632006Y-131935949D01*
X142634175Y-131919472D01*
X142634907Y-131913914D01*
X142631068Y-131832504D01*
X142630928Y-131826569D01*
X142630928Y-131804001D01*
X142630680Y-131801218D01*
X142630679Y-131801204D01*
X142628610Y-131778023D01*
X142628251Y-131772760D01*
X142624589Y-131695116D01*
X142624325Y-131689512D01*
X142620320Y-131672023D01*
X142617640Y-131655104D01*
X142616543Y-131642821D01*
X142616045Y-131637238D01*
X142614565Y-131631827D01*
X142594059Y-131556870D01*
X142592773Y-131551752D01*
X142575423Y-131476000D01*
X142575422Y-131475998D01*
X142574170Y-131470530D01*
X142567134Y-131454033D01*
X142561501Y-131437858D01*
X142558243Y-131425953D01*
X142556765Y-131420549D01*
X142554354Y-131415494D01*
X142554352Y-131415489D01*
X142520882Y-131345317D01*
X142518711Y-131340508D01*
X142488233Y-131269053D01*
X142488230Y-131269047D01*
X142486031Y-131263892D01*
X142476184Y-131248902D01*
X142467771Y-131233971D01*
X142462465Y-131222846D01*
X142460050Y-131217782D01*
X142456778Y-131213229D01*
X142456776Y-131213225D01*
X142411418Y-131150103D01*
X142408429Y-131145753D01*
X142365229Y-131079987D01*
X142362693Y-131076126D01*
X142344171Y-131055338D01*
X142335934Y-131045056D01*
X142332227Y-131039897D01*
X142328957Y-131035346D01*
X142252173Y-130960937D01*
X142250763Y-130959548D01*
X139278953Y-127987737D01*
X139268085Y-127975346D01*
X139257961Y-127962152D01*
X139254551Y-127957708D01*
X139194254Y-127902842D01*
X139189959Y-127898743D01*
X139174018Y-127882802D01*
X139171802Y-127880949D01*
X139154005Y-127866068D01*
X139150030Y-127862600D01*
X139092540Y-127810288D01*
X139092531Y-127810281D01*
X139088392Y-127806515D01*
X139073201Y-127796986D01*
X139059335Y-127786911D01*
X139049879Y-127779004D01*
X139049869Y-127778997D01*
X139045574Y-127775406D01*
X138973180Y-127734113D01*
X138968660Y-127731408D01*
X138965541Y-127729451D01*
X138912162Y-127695967D01*
X138902832Y-127690114D01*
X138902829Y-127690112D01*
X138898084Y-127687136D01*
X138892879Y-127685043D01*
X138892876Y-127685042D01*
X138881449Y-127680448D01*
X138866017Y-127672988D01*
X138855309Y-127666880D01*
X138855300Y-127666876D01*
X138850435Y-127664101D01*
X138845158Y-127662232D01*
X138845153Y-127662230D01*
X138771886Y-127636285D01*
X138766950Y-127634420D01*
X138694844Y-127605434D01*
X138689645Y-127603344D01*
X138684158Y-127602208D01*
X138684156Y-127602207D01*
X138672079Y-127599706D01*
X138655584Y-127595101D01*
X138638669Y-127589111D01*
X138556418Y-127575641D01*
X138551248Y-127574683D01*
X138469661Y-127557787D01*
X138465049Y-127557521D01*
X138465048Y-127557521D01*
X138441880Y-127556185D01*
X138428775Y-127554738D01*
X138422518Y-127553714D01*
X138422514Y-127553714D01*
X138416971Y-127552806D01*
X138411358Y-127552894D01*
X138411356Y-127552894D01*
X138310164Y-127554484D01*
X138308185Y-127554500D01*
X136611906Y-127554500D01*
X136543785Y-127534498D01*
X136522811Y-127517595D01*
X135809833Y-126804617D01*
X135775807Y-126742305D01*
X135772928Y-126715522D01*
X135772928Y-125415134D01*
X136788928Y-125415134D01*
X136789297Y-125418531D01*
X136789613Y-125421440D01*
X136795683Y-125477316D01*
X136846813Y-125613705D01*
X136934167Y-125730261D01*
X137050723Y-125817615D01*
X137187112Y-125868745D01*
X137249294Y-125875500D01*
X139145562Y-125875500D01*
X139207744Y-125868745D01*
X139344133Y-125817615D01*
X139433452Y-125750674D01*
X139499958Y-125725826D01*
X139509017Y-125725500D01*
X140293032Y-125725500D01*
X140309479Y-125726578D01*
X140325944Y-125728746D01*
X140325948Y-125728746D01*
X140331514Y-125729479D01*
X140412917Y-125725640D01*
X140418852Y-125725500D01*
X140441427Y-125725500D01*
X140467417Y-125723181D01*
X140472676Y-125722822D01*
X140555916Y-125718896D01*
X140561375Y-125717646D01*
X140561380Y-125717645D01*
X140573398Y-125714892D01*
X140590327Y-125712211D01*
X140608190Y-125710617D01*
X140613606Y-125709135D01*
X140613608Y-125709135D01*
X140688561Y-125688630D01*
X140693679Y-125687344D01*
X140769428Y-125669995D01*
X140769430Y-125669994D01*
X140774898Y-125668742D01*
X140785398Y-125664263D01*
X140791395Y-125661706D01*
X140807570Y-125656073D01*
X140819467Y-125652818D01*
X140819471Y-125652817D01*
X140824879Y-125651337D01*
X140857620Y-125635720D01*
X140900095Y-125615461D01*
X140904904Y-125613290D01*
X140976377Y-125582804D01*
X140976378Y-125582804D01*
X140981537Y-125580603D01*
X140996538Y-125570749D01*
X141011453Y-125562346D01*
X141027646Y-125554622D01*
X141032197Y-125551352D01*
X141032200Y-125551350D01*
X141095309Y-125506001D01*
X141099660Y-125503011D01*
X141165438Y-125459804D01*
X141165446Y-125459798D01*
X141169302Y-125457265D01*
X141190090Y-125438743D01*
X141200367Y-125430510D01*
X141210082Y-125423529D01*
X141284490Y-125346746D01*
X141285879Y-125345336D01*
X143594691Y-123036525D01*
X143607082Y-123025657D01*
X143620276Y-123015533D01*
X143624720Y-123012123D01*
X143679586Y-122951826D01*
X143683685Y-122947531D01*
X143699626Y-122931590D01*
X143716370Y-122911564D01*
X143719829Y-122907599D01*
X143720593Y-122906760D01*
X143775913Y-122845964D01*
X143785444Y-122830770D01*
X143795513Y-122816910D01*
X143807021Y-122803147D01*
X143848297Y-122730782D01*
X143851007Y-122726253D01*
X143892313Y-122660405D01*
X143895292Y-122655656D01*
X143901981Y-122639017D01*
X143909440Y-122623587D01*
X143915547Y-122612881D01*
X143915551Y-122612872D01*
X143918326Y-122608007D01*
X143946140Y-122529462D01*
X143948001Y-122524537D01*
X143976989Y-122452428D01*
X143979084Y-122447217D01*
X143982724Y-122429639D01*
X143987330Y-122413146D01*
X143993316Y-122396241D01*
X143994551Y-122388704D01*
X144006780Y-122314023D01*
X144007742Y-122308833D01*
X144020402Y-122247704D01*
X144024641Y-122227233D01*
X144026244Y-122199437D01*
X144027691Y-122186331D01*
X144028714Y-122180086D01*
X144028715Y-122180079D01*
X144029621Y-122174543D01*
X144027944Y-122067769D01*
X144027928Y-122065791D01*
X144027928Y-98954135D01*
X144028695Y-98944707D01*
X144028304Y-98944678D01*
X144028715Y-98939081D01*
X144029622Y-98933542D01*
X144027944Y-98826705D01*
X144027928Y-98824727D01*
X144027928Y-92455395D01*
X144029006Y-92438948D01*
X144031174Y-92422483D01*
X144031174Y-92422479D01*
X144031907Y-92416913D01*
X144028068Y-92335510D01*
X144027928Y-92329575D01*
X144027928Y-92307001D01*
X144025609Y-92281013D01*
X144025250Y-92275750D01*
X144024314Y-92255912D01*
X144021324Y-92192511D01*
X144020073Y-92187048D01*
X144020072Y-92187042D01*
X144017321Y-92175032D01*
X144014639Y-92158099D01*
X144013045Y-92140238D01*
X143991052Y-92059848D01*
X143989769Y-92054739D01*
X143971170Y-91973530D01*
X143964134Y-91957033D01*
X143958501Y-91940858D01*
X143955246Y-91928961D01*
X143955245Y-91928957D01*
X143953765Y-91923549D01*
X143917889Y-91848333D01*
X143915718Y-91843524D01*
X143885232Y-91772051D01*
X143885232Y-91772050D01*
X143883031Y-91766891D01*
X143873177Y-91751890D01*
X143864771Y-91736970D01*
X143859463Y-91725841D01*
X143857050Y-91720782D01*
X143853782Y-91716234D01*
X143853779Y-91716229D01*
X143808426Y-91653114D01*
X143805437Y-91648765D01*
X143759693Y-91579125D01*
X143754421Y-91573208D01*
X143753931Y-91572173D01*
X143753806Y-91572010D01*
X143753841Y-91571983D01*
X143724041Y-91509040D01*
X143722500Y-91489392D01*
X143722500Y-87518802D01*
X143742502Y-87450681D01*
X143772935Y-87417976D01*
X143827261Y-87377261D01*
X143914615Y-87260705D01*
X143965745Y-87124316D01*
X143972500Y-87062134D01*
X143972500Y-84965866D01*
X143965745Y-84903684D01*
X143914615Y-84767295D01*
X143827261Y-84650739D01*
X143710705Y-84563385D01*
X143574316Y-84512255D01*
X143512134Y-84505500D01*
X141415866Y-84505500D01*
X141353684Y-84512255D01*
X141217295Y-84563385D01*
X141100739Y-84650739D01*
X141013385Y-84767295D01*
X140962255Y-84903684D01*
X140955500Y-84965866D01*
X140955500Y-87062134D01*
X140962255Y-87124316D01*
X141013385Y-87260705D01*
X141100739Y-87377261D01*
X141155065Y-87417976D01*
X141197580Y-87474835D01*
X141205500Y-87518802D01*
X141205500Y-91967176D01*
X141204422Y-91983623D01*
X141201521Y-92005658D01*
X141201786Y-92011270D01*
X141205360Y-92087060D01*
X141205500Y-92092996D01*
X141205500Y-92115571D01*
X141205750Y-92118368D01*
X141207819Y-92141560D01*
X141208178Y-92146820D01*
X141212104Y-92230060D01*
X141213354Y-92235519D01*
X141213355Y-92235524D01*
X141216108Y-92247542D01*
X141218789Y-92264471D01*
X141220383Y-92282334D01*
X141221865Y-92287750D01*
X141221865Y-92287752D01*
X141242370Y-92362705D01*
X141243656Y-92367823D01*
X141262258Y-92449042D01*
X141264460Y-92454204D01*
X141269294Y-92465539D01*
X141274927Y-92481714D01*
X141279663Y-92499023D01*
X141282079Y-92504088D01*
X141315539Y-92574239D01*
X141317710Y-92579048D01*
X141350397Y-92655681D01*
X141360251Y-92670682D01*
X141368654Y-92685597D01*
X141376378Y-92701790D01*
X141379648Y-92706341D01*
X141379650Y-92706344D01*
X141424999Y-92769453D01*
X141427989Y-92773804D01*
X141471196Y-92839582D01*
X141471202Y-92839590D01*
X141473735Y-92843446D01*
X141476808Y-92846895D01*
X141479006Y-92849362D01*
X141479497Y-92850399D01*
X141479619Y-92850558D01*
X141479585Y-92850584D01*
X141509386Y-92913530D01*
X141510928Y-92933179D01*
X141510928Y-98267522D01*
X141490926Y-98335643D01*
X141474023Y-98356617D01*
X140634045Y-99196595D01*
X140571733Y-99230621D01*
X140544950Y-99233500D01*
X139447369Y-99233500D01*
X139381534Y-99214932D01*
X139269621Y-99146351D01*
X139269610Y-99146345D01*
X139265391Y-99143760D01*
X139260821Y-99141867D01*
X139260817Y-99141865D01*
X139050595Y-99054789D01*
X139050593Y-99054788D01*
X139046022Y-99052895D01*
X138965819Y-99033640D01*
X138819952Y-98998620D01*
X138819946Y-98998619D01*
X138815139Y-98997465D01*
X138578428Y-98978835D01*
X138341717Y-98997465D01*
X138336910Y-98998619D01*
X138336904Y-98998620D01*
X138191037Y-99033640D01*
X138110834Y-99052895D01*
X138106263Y-99054788D01*
X138106261Y-99054789D01*
X137896039Y-99141865D01*
X137896035Y-99141867D01*
X137891465Y-99143760D01*
X137887245Y-99146346D01*
X137693226Y-99265241D01*
X137693220Y-99265245D01*
X137689012Y-99267824D01*
X137508459Y-99422031D01*
X137354252Y-99602584D01*
X137351673Y-99606792D01*
X137351669Y-99606798D01*
X137232774Y-99800817D01*
X137230188Y-99805037D01*
X137139323Y-100024406D01*
X137083893Y-100255289D01*
X137065263Y-100492000D01*
X137083893Y-100728711D01*
X137085047Y-100733518D01*
X137085048Y-100733524D01*
X137120068Y-100879391D01*
X137139323Y-100959594D01*
X137141216Y-100964165D01*
X137141217Y-100964167D01*
X137224463Y-101165141D01*
X137230188Y-101178963D01*
X137232774Y-101183183D01*
X137351669Y-101377202D01*
X137351673Y-101377208D01*
X137354252Y-101381416D01*
X137508459Y-101561969D01*
X137689012Y-101716176D01*
X137693220Y-101718755D01*
X137693226Y-101718759D01*
X137870959Y-101827674D01*
X137891465Y-101840240D01*
X137896035Y-101842133D01*
X137896039Y-101842135D01*
X138102623Y-101927704D01*
X138110834Y-101931105D01*
X138176779Y-101946937D01*
X138336904Y-101985380D01*
X138336910Y-101985381D01*
X138341717Y-101986535D01*
X138578428Y-102005165D01*
X138815139Y-101986535D01*
X138819946Y-101985381D01*
X138819952Y-101985380D01*
X138980077Y-101946937D01*
X139046022Y-101931105D01*
X139054233Y-101927704D01*
X139260817Y-101842135D01*
X139260821Y-101842133D01*
X139265391Y-101840240D01*
X139269611Y-101837654D01*
X139269621Y-101837649D01*
X139381534Y-101769068D01*
X139447369Y-101750500D01*
X141027032Y-101750500D01*
X141043479Y-101751578D01*
X141059944Y-101753746D01*
X141059948Y-101753746D01*
X141065514Y-101754479D01*
X141146917Y-101750640D01*
X141152852Y-101750500D01*
X141175427Y-101750500D01*
X141201417Y-101748181D01*
X141206676Y-101747822D01*
X141289916Y-101743896D01*
X141295375Y-101742646D01*
X141295380Y-101742645D01*
X141307398Y-101739892D01*
X141324327Y-101737211D01*
X141342190Y-101735617D01*
X141351683Y-101733020D01*
X141422666Y-101734339D01*
X141481669Y-101773826D01*
X141509957Y-101838944D01*
X141510928Y-101854555D01*
X141510928Y-121508522D01*
X141490926Y-121576643D01*
X141474023Y-121597617D01*
X139900045Y-123171595D01*
X139837733Y-123205621D01*
X139810950Y-123208500D01*
X139509017Y-123208500D01*
X139440896Y-123188498D01*
X139433452Y-123183326D01*
X139432250Y-123182425D01*
X139344133Y-123116385D01*
X139207744Y-123065255D01*
X139145562Y-123058500D01*
X137249294Y-123058500D01*
X137187112Y-123065255D01*
X137050723Y-123116385D01*
X136934167Y-123203739D01*
X136846813Y-123320295D01*
X136795683Y-123456684D01*
X136788928Y-123518866D01*
X136788928Y-125415134D01*
X135772928Y-125415134D01*
X135772928Y-113098170D01*
X135792930Y-113030049D01*
X135846586Y-112983556D01*
X135916860Y-112973452D01*
X135983726Y-113004975D01*
X136008464Y-113027485D01*
X136013218Y-113030467D01*
X136023658Y-113037016D01*
X136037518Y-113047085D01*
X136051281Y-113058593D01*
X136056162Y-113061377D01*
X136123646Y-113099869D01*
X136128176Y-113102579D01*
X136198772Y-113146864D01*
X136203976Y-113148956D01*
X136215411Y-113153553D01*
X136230841Y-113161012D01*
X136241547Y-113167119D01*
X136241556Y-113167123D01*
X136246421Y-113169898D01*
X136324974Y-113197715D01*
X136329886Y-113199571D01*
X136407211Y-113230656D01*
X136412701Y-113231793D01*
X136424777Y-113234294D01*
X136441272Y-113238899D01*
X136458187Y-113244889D01*
X136540438Y-113258359D01*
X136545608Y-113259317D01*
X136627195Y-113276213D01*
X136631807Y-113276479D01*
X136631808Y-113276479D01*
X136654976Y-113277815D01*
X136668081Y-113279262D01*
X136674338Y-113280286D01*
X136674342Y-113280286D01*
X136679885Y-113281194D01*
X136685498Y-113281106D01*
X136685500Y-113281106D01*
X136786692Y-113279516D01*
X136788671Y-113279500D01*
X136885839Y-113279500D01*
X136953960Y-113299502D01*
X136961403Y-113304674D01*
X137050723Y-113371615D01*
X137187112Y-113422745D01*
X137249294Y-113429500D01*
X139145562Y-113429500D01*
X139207744Y-113422745D01*
X139344133Y-113371615D01*
X139460689Y-113284261D01*
X139548043Y-113167705D01*
X139599173Y-113031316D01*
X139605928Y-112969134D01*
X139605928Y-111072866D01*
X139599173Y-111010684D01*
X139548043Y-110874295D01*
X139460689Y-110757739D01*
X139344133Y-110670385D01*
X139207744Y-110619255D01*
X139145562Y-110612500D01*
X137249294Y-110612500D01*
X137214077Y-110616326D01*
X137144195Y-110603798D01*
X137111374Y-110580158D01*
X135809833Y-109278617D01*
X135775807Y-109216305D01*
X135772928Y-109189522D01*
X135772928Y-97789395D01*
X135774006Y-97772948D01*
X135776174Y-97756483D01*
X135776174Y-97756479D01*
X135776907Y-97750913D01*
X135773068Y-97669511D01*
X135772928Y-97663576D01*
X135772928Y-97641001D01*
X135770609Y-97615011D01*
X135770250Y-97609749D01*
X135766588Y-97532113D01*
X135766324Y-97526512D01*
X135762320Y-97509030D01*
X135759639Y-97492100D01*
X135758544Y-97479832D01*
X135758045Y-97474238D01*
X135736058Y-97393867D01*
X135734772Y-97388749D01*
X135717423Y-97313000D01*
X135717422Y-97312998D01*
X135716170Y-97307530D01*
X135709134Y-97291033D01*
X135703501Y-97274858D01*
X135700246Y-97262961D01*
X135700245Y-97262957D01*
X135698765Y-97257549D01*
X135662889Y-97182333D01*
X135660718Y-97177524D01*
X135630232Y-97106051D01*
X135630232Y-97106050D01*
X135628031Y-97100891D01*
X135618177Y-97085890D01*
X135609771Y-97070970D01*
X135604463Y-97059841D01*
X135602050Y-97054782D01*
X135598782Y-97050234D01*
X135598779Y-97050229D01*
X135553426Y-96987114D01*
X135550437Y-96982765D01*
X135504693Y-96913125D01*
X135486175Y-96892341D01*
X135477926Y-96882045D01*
X135474232Y-96876904D01*
X135470957Y-96872346D01*
X135466931Y-96868445D01*
X135466928Y-96868441D01*
X135432402Y-96834984D01*
X135397403Y-96773214D01*
X135401354Y-96702328D01*
X135443002Y-96644831D01*
X135509125Y-96618978D01*
X135520087Y-96618500D01*
X137624631Y-96618500D01*
X137690466Y-96637067D01*
X137891465Y-96760240D01*
X137896035Y-96762133D01*
X137896039Y-96762135D01*
X138071914Y-96834984D01*
X138110834Y-96851105D01*
X138183044Y-96868441D01*
X138336904Y-96905380D01*
X138336910Y-96905381D01*
X138341717Y-96906535D01*
X138578428Y-96925165D01*
X138815139Y-96906535D01*
X138819946Y-96905381D01*
X138819952Y-96905380D01*
X138973812Y-96868441D01*
X139046022Y-96851105D01*
X139084942Y-96834984D01*
X139260817Y-96762135D01*
X139260821Y-96762133D01*
X139265391Y-96760240D01*
X139269611Y-96757654D01*
X139463630Y-96638759D01*
X139463636Y-96638755D01*
X139467844Y-96636176D01*
X139648397Y-96481969D01*
X139802604Y-96301416D01*
X139805183Y-96297208D01*
X139805187Y-96297202D01*
X139924082Y-96103183D01*
X139926668Y-96098963D01*
X139952308Y-96037064D01*
X140015639Y-95884167D01*
X140015640Y-95884165D01*
X140017533Y-95879594D01*
X140072963Y-95648711D01*
X140091593Y-95412000D01*
X140072963Y-95175289D01*
X140071683Y-95169954D01*
X140021858Y-94962422D01*
X140017533Y-94944406D01*
X140015639Y-94939833D01*
X139928563Y-94729611D01*
X139928561Y-94729607D01*
X139926668Y-94725037D01*
X139828474Y-94564799D01*
X139805187Y-94526798D01*
X139805183Y-94526792D01*
X139802604Y-94522584D01*
X139648397Y-94342031D01*
X139467844Y-94187824D01*
X139463636Y-94185245D01*
X139463630Y-94185241D01*
X139269611Y-94066346D01*
X139265391Y-94063760D01*
X139260821Y-94061867D01*
X139260817Y-94061865D01*
X139050595Y-93974789D01*
X139050593Y-93974788D01*
X139046022Y-93972895D01*
X138965819Y-93953640D01*
X138819952Y-93918620D01*
X138819946Y-93918619D01*
X138815139Y-93917465D01*
X138578428Y-93898835D01*
X138341717Y-93917465D01*
X138336910Y-93918619D01*
X138336904Y-93918620D01*
X138191037Y-93953640D01*
X138110834Y-93972895D01*
X138106263Y-93974788D01*
X138106261Y-93974789D01*
X137896039Y-94061865D01*
X137896035Y-94061867D01*
X137891465Y-94063760D01*
X137887242Y-94066348D01*
X137860179Y-94082932D01*
X137794343Y-94101500D01*
X132289566Y-94101500D01*
X132280139Y-94100733D01*
X132280110Y-94101124D01*
X132274507Y-94100713D01*
X132268971Y-94099806D01*
X132263358Y-94099894D01*
X132263356Y-94099894D01*
X132162164Y-94101484D01*
X132160185Y-94101500D01*
X131969429Y-94101500D01*
X131966642Y-94101749D01*
X131966636Y-94101749D01*
X131896499Y-94108009D01*
X131802666Y-94116383D01*
X131797252Y-94117864D01*
X131797247Y-94117865D01*
X131669516Y-94152809D01*
X131585977Y-94175663D01*
X131580919Y-94178075D01*
X131580915Y-94178077D01*
X131484594Y-94224020D01*
X131383210Y-94272378D01*
X131200774Y-94403471D01*
X131196867Y-94407503D01*
X131081262Y-94526798D01*
X131044436Y-94564799D01*
X130919138Y-94751262D01*
X130828840Y-94956967D01*
X130776396Y-95175411D01*
X130763465Y-95399690D01*
X130790453Y-95622715D01*
X130856510Y-95837435D01*
X130859080Y-95842415D01*
X130859082Y-95842419D01*
X130880630Y-95884167D01*
X130959546Y-96037064D01*
X131096305Y-96215292D01*
X131262464Y-96366485D01*
X131267211Y-96369463D01*
X131267214Y-96369465D01*
X131440575Y-96478213D01*
X131452772Y-96485864D01*
X131457972Y-96487954D01*
X131457979Y-96487958D01*
X131545491Y-96523137D01*
X131587590Y-96550949D01*
X133219023Y-98182383D01*
X133253049Y-98244695D01*
X133255928Y-98271478D01*
X133255928Y-109671604D01*
X133254850Y-109688051D01*
X133251949Y-109710086D01*
X133252214Y-109715698D01*
X133255788Y-109791488D01*
X133255928Y-109797424D01*
X133255928Y-127197604D01*
X133254850Y-127214051D01*
X133253367Y-127225318D01*
X133251949Y-127236086D01*
X133252214Y-127241698D01*
X133255788Y-127317488D01*
X133255928Y-127323424D01*
X133255928Y-127345999D01*
X133256178Y-127348796D01*
X133258247Y-127371988D01*
X133258606Y-127377248D01*
X133262532Y-127460488D01*
X133263782Y-127465947D01*
X133263783Y-127465952D01*
X133266536Y-127477970D01*
X133269217Y-127494899D01*
X133270811Y-127512762D01*
X133272293Y-127518178D01*
X133272293Y-127518180D01*
X133292798Y-127593133D01*
X133294084Y-127598251D01*
X133312686Y-127679470D01*
X133314888Y-127684632D01*
X133319722Y-127695967D01*
X133325355Y-127712142D01*
X133330091Y-127729451D01*
X133332507Y-127734516D01*
X133365967Y-127804667D01*
X133368138Y-127809476D01*
X133391553Y-127864372D01*
X133400825Y-127886109D01*
X133410679Y-127901110D01*
X133419082Y-127916025D01*
X133426806Y-127932218D01*
X133466701Y-127987737D01*
X133475427Y-127999881D01*
X133478417Y-128004232D01*
X133521624Y-128070010D01*
X133521630Y-128070018D01*
X133524163Y-128073874D01*
X133542685Y-128094662D01*
X133550918Y-128104939D01*
X133557899Y-128114654D01*
X133561926Y-128118556D01*
X133634682Y-128189062D01*
X133636092Y-128190451D01*
X135083903Y-129638263D01*
X135094770Y-129650653D01*
X135108305Y-129668292D01*
X135112448Y-129672062D01*
X135112450Y-129672064D01*
X135168580Y-129723137D01*
X135172876Y-129727236D01*
X135188838Y-129743198D01*
X135208864Y-129759942D01*
X135212819Y-129763392D01*
X135274464Y-129819485D01*
X135279218Y-129822467D01*
X135289658Y-129829016D01*
X135303518Y-129839085D01*
X135317281Y-129850593D01*
X135366290Y-129878547D01*
X135389646Y-129891869D01*
X135394176Y-129894579D01*
X135464772Y-129938864D01*
X135469976Y-129940956D01*
X135481411Y-129945553D01*
X135496841Y-129953012D01*
X135507547Y-129959119D01*
X135507556Y-129959123D01*
X135512421Y-129961898D01*
X135590966Y-129989712D01*
X135595878Y-129991568D01*
X135673211Y-130022656D01*
X135690789Y-130026296D01*
X135707282Y-130030902D01*
X135724187Y-130036888D01*
X135729721Y-130037794D01*
X135729724Y-130037795D01*
X135806405Y-130050352D01*
X135811577Y-130051311D01*
X135893195Y-130068213D01*
X135908826Y-130069114D01*
X135920991Y-130069816D01*
X135934097Y-130071263D01*
X135940342Y-130072286D01*
X135940349Y-130072287D01*
X135945885Y-130073193D01*
X135951499Y-130073105D01*
X135951501Y-130073105D01*
X136052658Y-130071516D01*
X136054637Y-130071500D01*
X137750951Y-130071500D01*
X137819072Y-130091502D01*
X137840046Y-130108405D01*
X140077023Y-132345382D01*
X140111049Y-132407694D01*
X140113928Y-132434477D01*
X140113928Y-143479522D01*
X140093926Y-143547643D01*
X140077023Y-143568617D01*
X139364045Y-144281595D01*
X139301733Y-144315621D01*
X139274950Y-144318500D01*
X137668392Y-144318500D01*
X137602557Y-144299932D01*
X137491388Y-144231807D01*
X137491377Y-144231801D01*
X137487158Y-144229216D01*
X137482588Y-144227323D01*
X137482584Y-144227321D01*
X137272432Y-144140274D01*
X137272426Y-144140272D01*
X137267863Y-144138382D01*
X137263063Y-144137230D01*
X137263058Y-144137228D01*
X137139715Y-144107616D01*
X137037059Y-144082970D01*
X136800428Y-144064347D01*
X136563797Y-144082970D01*
X136461141Y-144107616D01*
X136337798Y-144137228D01*
X136337793Y-144137230D01*
X136332993Y-144138382D01*
X136328430Y-144140272D01*
X136328424Y-144140274D01*
X136118272Y-144227321D01*
X136118268Y-144227323D01*
X136113698Y-144229216D01*
X135911313Y-144353238D01*
X135730821Y-144507393D01*
X135576666Y-144687885D01*
X135452644Y-144890270D01*
X135450751Y-144894840D01*
X135450749Y-144894844D01*
X135363702Y-145104996D01*
X135363700Y-145105002D01*
X135361810Y-145109565D01*
X135360658Y-145114365D01*
X135360656Y-145114370D01*
X135339489Y-145202537D01*
X135306398Y-145340369D01*
X135287775Y-145577000D01*
X135306398Y-145813631D01*
X135361810Y-146044435D01*
X135363700Y-146048998D01*
X135363702Y-146049004D01*
X135450749Y-146259156D01*
X135452644Y-146263730D01*
X135455229Y-146267949D01*
X135455235Y-146267960D01*
X135523360Y-146379129D01*
X135541928Y-146444964D01*
X135541928Y-146984094D01*
X135521926Y-147052215D01*
X135505023Y-147073189D01*
X133089617Y-149488595D01*
X133027305Y-149522621D01*
X133000522Y-149525500D01*
X132344477Y-149525500D01*
X132276356Y-149505498D01*
X132229863Y-149451842D01*
X132219759Y-149381568D01*
X132249253Y-149316988D01*
X132255382Y-149310405D01*
X132931318Y-148634470D01*
X133815691Y-147750097D01*
X133828082Y-147739229D01*
X133841276Y-147729105D01*
X133845720Y-147725695D01*
X133900586Y-147665398D01*
X133904685Y-147661103D01*
X133920626Y-147645162D01*
X133927655Y-147636756D01*
X133937360Y-147625149D01*
X133940828Y-147621174D01*
X133993140Y-147563684D01*
X133993147Y-147563675D01*
X133996913Y-147559536D01*
X134006442Y-147544345D01*
X134016517Y-147530479D01*
X134024424Y-147521023D01*
X134024431Y-147521013D01*
X134028022Y-147516718D01*
X134069315Y-147444324D01*
X134072020Y-147439804D01*
X134113314Y-147373976D01*
X134113316Y-147373973D01*
X134116292Y-147369228D01*
X134122980Y-147352593D01*
X134130440Y-147337161D01*
X134136548Y-147326453D01*
X134136552Y-147326444D01*
X134139327Y-147321579D01*
X134141196Y-147316302D01*
X134141198Y-147316297D01*
X134167143Y-147243030D01*
X134169008Y-147238094D01*
X134197994Y-147165988D01*
X134200084Y-147160789D01*
X134203722Y-147143222D01*
X134208327Y-147126728D01*
X134214317Y-147109813D01*
X134227787Y-147027562D01*
X134228747Y-147022383D01*
X134244704Y-146945330D01*
X134244704Y-146945329D01*
X134245641Y-146940805D01*
X134247243Y-146913024D01*
X134248690Y-146899919D01*
X134249714Y-146893662D01*
X134249714Y-146893658D01*
X134250622Y-146888115D01*
X134250334Y-146869746D01*
X134248944Y-146781308D01*
X134248928Y-146779329D01*
X134248928Y-137133477D01*
X134268930Y-137065356D01*
X134285833Y-137044382D01*
X135986811Y-135343405D01*
X136049123Y-135309379D01*
X136075906Y-135306500D01*
X137525534Y-135306500D01*
X137579978Y-135318870D01*
X137582290Y-135319978D01*
X137586750Y-135322584D01*
X137591570Y-135324425D01*
X137591575Y-135324427D01*
X137698792Y-135365369D01*
X137803122Y-135405209D01*
X137808188Y-135406240D01*
X137808189Y-135406240D01*
X137846444Y-135414023D01*
X138030084Y-135451385D01*
X138160752Y-135456176D01*
X138256377Y-135459683D01*
X138256381Y-135459683D01*
X138261541Y-135459872D01*
X138266661Y-135459216D01*
X138266663Y-135459216D01*
X138354332Y-135447985D01*
X138491275Y-135430442D01*
X138496223Y-135428957D01*
X138496230Y-135428956D01*
X138708175Y-135365369D01*
X138713118Y-135363886D01*
X138793664Y-135324427D01*
X138916477Y-135264262D01*
X138916480Y-135264260D01*
X138921112Y-135261991D01*
X139109671Y-135127494D01*
X139273731Y-134964005D01*
X139285445Y-134947704D01*
X139367802Y-134833091D01*
X139408886Y-134775917D01*
X139418326Y-134756818D01*
X139509212Y-134572922D01*
X139509213Y-134572920D01*
X139511506Y-134568280D01*
X139578836Y-134346671D01*
X139609068Y-134117041D01*
X139610215Y-134070095D01*
X139610673Y-134051365D01*
X139610673Y-134051361D01*
X139610755Y-134048000D01*
X139595489Y-133862314D01*
X139592201Y-133822318D01*
X139592200Y-133822312D01*
X139591777Y-133817167D01*
X139535353Y-133592533D01*
X139521488Y-133560646D01*
X139445058Y-133384868D01*
X139445056Y-133384865D01*
X139442998Y-133380131D01*
X139317192Y-133185665D01*
X139161315Y-133014358D01*
X139157264Y-133011159D01*
X139157260Y-133011155D01*
X138983605Y-132874011D01*
X138983600Y-132874008D01*
X138979551Y-132870810D01*
X138975035Y-132868317D01*
X138975032Y-132868315D01*
X138781307Y-132761373D01*
X138781303Y-132761371D01*
X138776783Y-132758876D01*
X138771914Y-132757152D01*
X138771910Y-132757150D01*
X138563331Y-132683288D01*
X138563327Y-132683287D01*
X138558456Y-132681562D01*
X138553363Y-132680655D01*
X138553360Y-132680654D01*
X138335523Y-132641851D01*
X138335517Y-132641850D01*
X138330434Y-132640945D01*
X138257524Y-132640054D01*
X138104009Y-132638179D01*
X138104007Y-132638179D01*
X138098839Y-132638116D01*
X137869892Y-132673150D01*
X137649742Y-132745106D01*
X137645150Y-132747496D01*
X137645151Y-132747496D01*
X137591811Y-132775263D01*
X137533631Y-132789500D01*
X135593823Y-132789500D01*
X135577376Y-132788422D01*
X135560911Y-132786254D01*
X135560907Y-132786254D01*
X135555341Y-132785521D01*
X135473939Y-132789360D01*
X135468003Y-132789500D01*
X135445429Y-132789500D01*
X135421314Y-132791652D01*
X135419441Y-132791819D01*
X135414178Y-132792178D01*
X135398361Y-132792924D01*
X135330939Y-132796104D01*
X135325476Y-132797355D01*
X135325470Y-132797356D01*
X135313460Y-132800107D01*
X135296528Y-132802789D01*
X135278666Y-132804383D01*
X135273255Y-132805863D01*
X135273251Y-132805864D01*
X135226585Y-132818631D01*
X135198276Y-132826376D01*
X135193178Y-132827656D01*
X135111958Y-132846258D01*
X135106797Y-132848459D01*
X135106798Y-132848459D01*
X135095461Y-132853294D01*
X135079286Y-132858927D01*
X135067389Y-132862182D01*
X135067385Y-132862183D01*
X135061977Y-132863663D01*
X135056911Y-132866079D01*
X135056912Y-132866079D01*
X134986761Y-132899539D01*
X134981952Y-132901710D01*
X134905319Y-132934397D01*
X134890318Y-132944251D01*
X134875403Y-132952654D01*
X134859210Y-132960378D01*
X134854662Y-132963646D01*
X134854657Y-132963649D01*
X134791542Y-133009002D01*
X134787205Y-133011982D01*
X134717553Y-133057735D01*
X134696772Y-133076251D01*
X134686476Y-133084500D01*
X134676774Y-133091471D01*
X134672869Y-133095501D01*
X134602396Y-133168223D01*
X134601007Y-133169633D01*
X132165165Y-135605475D01*
X132152775Y-135616342D01*
X132135136Y-135629877D01*
X132106244Y-135661629D01*
X132080270Y-135690174D01*
X132076171Y-135694469D01*
X132060230Y-135710410D01*
X132058435Y-135712557D01*
X132058433Y-135712559D01*
X132043496Y-135730423D01*
X132040028Y-135734398D01*
X131987716Y-135791888D01*
X131987709Y-135791897D01*
X131983943Y-135796036D01*
X131980966Y-135800782D01*
X131980965Y-135800783D01*
X131974415Y-135811225D01*
X131964339Y-135825093D01*
X131956432Y-135834549D01*
X131956425Y-135834559D01*
X131952834Y-135838854D01*
X131927982Y-135882425D01*
X131911546Y-135911240D01*
X131908841Y-135915759D01*
X131864564Y-135986344D01*
X131862471Y-135991549D01*
X131862470Y-135991552D01*
X131857876Y-136002979D01*
X131850416Y-136018411D01*
X131844308Y-136029119D01*
X131844304Y-136029128D01*
X131841529Y-136033993D01*
X131839660Y-136039270D01*
X131839658Y-136039275D01*
X131813713Y-136112542D01*
X131811848Y-136117478D01*
X131780772Y-136194783D01*
X131779636Y-136200270D01*
X131779635Y-136200272D01*
X131777134Y-136212349D01*
X131772529Y-136228844D01*
X131766539Y-136245759D01*
X131758961Y-136292037D01*
X131753071Y-136328001D01*
X131752111Y-136333180D01*
X131735215Y-136414767D01*
X131734949Y-136419379D01*
X131734949Y-136419380D01*
X131733613Y-136442548D01*
X131732166Y-136455653D01*
X131731142Y-136461910D01*
X131730234Y-136467457D01*
X131730322Y-136473070D01*
X131730322Y-136473072D01*
X131731912Y-136574264D01*
X131731928Y-136576243D01*
X131731928Y-146222095D01*
X131711926Y-146290216D01*
X131695023Y-146311190D01*
X130549617Y-147456595D01*
X130487305Y-147490621D01*
X130460522Y-147493500D01*
X128305478Y-147493500D01*
X128237357Y-147473498D01*
X128216383Y-147456595D01*
X126146525Y-145386737D01*
X126135657Y-145374346D01*
X126125533Y-145361152D01*
X126122123Y-145356708D01*
X126061826Y-145301842D01*
X126057531Y-145297743D01*
X126041590Y-145281802D01*
X126039440Y-145280004D01*
X126021577Y-145265068D01*
X126017602Y-145261600D01*
X125960112Y-145209288D01*
X125960103Y-145209281D01*
X125955964Y-145205515D01*
X125940773Y-145195986D01*
X125926907Y-145185911D01*
X125917451Y-145178004D01*
X125917441Y-145177997D01*
X125913146Y-145174406D01*
X125840752Y-145133113D01*
X125836232Y-145130408D01*
X125770404Y-145089114D01*
X125770401Y-145089112D01*
X125765656Y-145086136D01*
X125760451Y-145084043D01*
X125760448Y-145084042D01*
X125749021Y-145079448D01*
X125733589Y-145071988D01*
X125722881Y-145065880D01*
X125722872Y-145065876D01*
X125718007Y-145063101D01*
X125712730Y-145061232D01*
X125712725Y-145061230D01*
X125639458Y-145035285D01*
X125634522Y-145033420D01*
X125562416Y-145004434D01*
X125557217Y-145002344D01*
X125551730Y-145001208D01*
X125551728Y-145001207D01*
X125539651Y-144998706D01*
X125523156Y-144994101D01*
X125506241Y-144988111D01*
X125423990Y-144974641D01*
X125418820Y-144973683D01*
X125337233Y-144956787D01*
X125332621Y-144956521D01*
X125332620Y-144956521D01*
X125309452Y-144955185D01*
X125296347Y-144953738D01*
X125290090Y-144952714D01*
X125290086Y-144952714D01*
X125284543Y-144951806D01*
X125278930Y-144951894D01*
X125278928Y-144951894D01*
X125177736Y-144953484D01*
X125175757Y-144953500D01*
X124358964Y-144953500D01*
X124293129Y-144934932D01*
X124181960Y-144866807D01*
X124181949Y-144866801D01*
X124177730Y-144864216D01*
X124173160Y-144862323D01*
X124173156Y-144862321D01*
X123963004Y-144775274D01*
X123962998Y-144775272D01*
X123958435Y-144773382D01*
X123953635Y-144772230D01*
X123953630Y-144772228D01*
X123848215Y-144746920D01*
X123727631Y-144717970D01*
X123491000Y-144699347D01*
X123254369Y-144717970D01*
X123133785Y-144746920D01*
X123028370Y-144772228D01*
X123028365Y-144772230D01*
X123023565Y-144773382D01*
X123019002Y-144775272D01*
X123018996Y-144775274D01*
X122808844Y-144862321D01*
X122808840Y-144862323D01*
X122804270Y-144864216D01*
X122800051Y-144866801D01*
X122800040Y-144866807D01*
X122688871Y-144934932D01*
X122623036Y-144953500D01*
X121193478Y-144953500D01*
X121125357Y-144933498D01*
X121104382Y-144916595D01*
X120295404Y-144107616D01*
X120261379Y-144045304D01*
X120258500Y-144018521D01*
X120258500Y-143690082D01*
X128122172Y-143690082D01*
X128122469Y-143695234D01*
X128122469Y-143695238D01*
X128127845Y-143788463D01*
X128135268Y-143917206D01*
X128136405Y-143922252D01*
X128136406Y-143922258D01*
X128163645Y-144043127D01*
X128185283Y-144139141D01*
X128270875Y-144349927D01*
X128389744Y-144543904D01*
X128538698Y-144715861D01*
X128713737Y-144861181D01*
X128718189Y-144863783D01*
X128718194Y-144863786D01*
X128905702Y-144973357D01*
X128910160Y-144975962D01*
X129122693Y-145057120D01*
X129127759Y-145058151D01*
X129127760Y-145058151D01*
X129165750Y-145065880D01*
X129345627Y-145102476D01*
X129473437Y-145107163D01*
X129567811Y-145110624D01*
X129567815Y-145110624D01*
X129572975Y-145110813D01*
X129578095Y-145110157D01*
X129578097Y-145110157D01*
X129793504Y-145082563D01*
X129793505Y-145082563D01*
X129798632Y-145081906D01*
X129806825Y-145079448D01*
X130011591Y-145018015D01*
X130011592Y-145018014D01*
X130016537Y-145016531D01*
X130220839Y-144916444D01*
X130225043Y-144913446D01*
X130225047Y-144913443D01*
X130401847Y-144787333D01*
X130401849Y-144787331D01*
X130406051Y-144784334D01*
X130567199Y-144623747D01*
X130624002Y-144544698D01*
X130696938Y-144443198D01*
X130696942Y-144443192D01*
X130699956Y-144438997D01*
X130800755Y-144235046D01*
X130860698Y-144037751D01*
X130865388Y-144022314D01*
X130865388Y-144022313D01*
X130866890Y-144017370D01*
X130880077Y-143917206D01*
X130896148Y-143795136D01*
X130896148Y-143795132D01*
X130896585Y-143791815D01*
X130898242Y-143724000D01*
X130879601Y-143497264D01*
X130824178Y-143276617D01*
X130733462Y-143067985D01*
X130609890Y-142876971D01*
X130456779Y-142708704D01*
X130278241Y-142567704D01*
X130269897Y-142563098D01*
X130219925Y-142512666D01*
X130205152Y-142443224D01*
X130230267Y-142376818D01*
X130257619Y-142350210D01*
X130401845Y-142247334D01*
X130406051Y-142244334D01*
X130567199Y-142083747D01*
X130621764Y-142007812D01*
X130696938Y-141903198D01*
X130696942Y-141903192D01*
X130699956Y-141898997D01*
X130800755Y-141695046D01*
X130866890Y-141477370D01*
X130880573Y-141373440D01*
X130896148Y-141255136D01*
X130896148Y-141255132D01*
X130896585Y-141251815D01*
X130898242Y-141184000D01*
X130879601Y-140957264D01*
X130824178Y-140736617D01*
X130733462Y-140527985D01*
X130609890Y-140336971D01*
X130456779Y-140168704D01*
X130278241Y-140027704D01*
X130269897Y-140023098D01*
X130219925Y-139972666D01*
X130205152Y-139903224D01*
X130230267Y-139836818D01*
X130257619Y-139810210D01*
X130401845Y-139707334D01*
X130406051Y-139704334D01*
X130567199Y-139543747D01*
X130621764Y-139467812D01*
X130696938Y-139363198D01*
X130696942Y-139363192D01*
X130699956Y-139358997D01*
X130800755Y-139155046D01*
X130866890Y-138937370D01*
X130880077Y-138837206D01*
X130896148Y-138715136D01*
X130896148Y-138715132D01*
X130896585Y-138711815D01*
X130898242Y-138644000D01*
X130879601Y-138417264D01*
X130824178Y-138196617D01*
X130733462Y-137987985D01*
X130609890Y-137796971D01*
X130456779Y-137628704D01*
X130278241Y-137487704D01*
X130269897Y-137483098D01*
X130219925Y-137432666D01*
X130205152Y-137363224D01*
X130230267Y-137296818D01*
X130257619Y-137270210D01*
X130401845Y-137167334D01*
X130406051Y-137164334D01*
X130567199Y-137003747D01*
X130621764Y-136927812D01*
X130696938Y-136823198D01*
X130696942Y-136823192D01*
X130699956Y-136818997D01*
X130800755Y-136615046D01*
X130866890Y-136397370D01*
X130880077Y-136297206D01*
X130896148Y-136175136D01*
X130896148Y-136175132D01*
X130896585Y-136171815D01*
X130897913Y-136117478D01*
X130898160Y-136107365D01*
X130898160Y-136107361D01*
X130898242Y-136104000D01*
X130879601Y-135877264D01*
X130824178Y-135656617D01*
X130738631Y-135459872D01*
X130735522Y-135452722D01*
X130735520Y-135452719D01*
X130733462Y-135447985D01*
X130609890Y-135256971D01*
X130456779Y-135088704D01*
X130278241Y-134947704D01*
X130269897Y-134943098D01*
X130219925Y-134892666D01*
X130205152Y-134823224D01*
X130230267Y-134756818D01*
X130257619Y-134730210D01*
X130401845Y-134627334D01*
X130406051Y-134624334D01*
X130567199Y-134463747D01*
X130621764Y-134387812D01*
X130696938Y-134283198D01*
X130696942Y-134283192D01*
X130699956Y-134278997D01*
X130780000Y-134117041D01*
X130798461Y-134079688D01*
X130798462Y-134079686D01*
X130800755Y-134075046D01*
X130866890Y-133857370D01*
X130880077Y-133757206D01*
X130896148Y-133635136D01*
X130896148Y-133635132D01*
X130896585Y-133631815D01*
X130896667Y-133628463D01*
X130898160Y-133567365D01*
X130898160Y-133567361D01*
X130898242Y-133564000D01*
X130879601Y-133337264D01*
X130824178Y-133116617D01*
X130770844Y-132993957D01*
X130735522Y-132912722D01*
X130735520Y-132912719D01*
X130733462Y-132907985D01*
X130638615Y-132761373D01*
X130612698Y-132721311D01*
X130612696Y-132721308D01*
X130609890Y-132716971D01*
X130456779Y-132548704D01*
X130278241Y-132407704D01*
X130269897Y-132403098D01*
X130219925Y-132352666D01*
X130205152Y-132283224D01*
X130230267Y-132216818D01*
X130257619Y-132190210D01*
X130401845Y-132087334D01*
X130406051Y-132084334D01*
X130567199Y-131923747D01*
X130621764Y-131847812D01*
X130696938Y-131743198D01*
X130696942Y-131743192D01*
X130699956Y-131738997D01*
X130791229Y-131554321D01*
X130798461Y-131539688D01*
X130798462Y-131539686D01*
X130800755Y-131535046D01*
X130866890Y-131317370D01*
X130877870Y-131233971D01*
X130896148Y-131095136D01*
X130896148Y-131095132D01*
X130896585Y-131091815D01*
X130896968Y-131076126D01*
X130898160Y-131027365D01*
X130898160Y-131027361D01*
X130898242Y-131024000D01*
X130879601Y-130797264D01*
X130824178Y-130576617D01*
X130733462Y-130367985D01*
X130609890Y-130176971D01*
X130456779Y-130008704D01*
X130278241Y-129867704D01*
X130269897Y-129863098D01*
X130219925Y-129812666D01*
X130205152Y-129743224D01*
X130230267Y-129676818D01*
X130257619Y-129650210D01*
X130401845Y-129547334D01*
X130406051Y-129544334D01*
X130567199Y-129383747D01*
X130621764Y-129307812D01*
X130696938Y-129203198D01*
X130696942Y-129203192D01*
X130699956Y-129198997D01*
X130800755Y-128995046D01*
X130866890Y-128777370D01*
X130880077Y-128677206D01*
X130896148Y-128555136D01*
X130896148Y-128555132D01*
X130896585Y-128551815D01*
X130898242Y-128484000D01*
X130879601Y-128257264D01*
X130824178Y-128036617D01*
X130756515Y-127881004D01*
X130735522Y-127832722D01*
X130735520Y-127832719D01*
X130733462Y-127827985D01*
X130653859Y-127704936D01*
X130612698Y-127641311D01*
X130612696Y-127641308D01*
X130609890Y-127636971D01*
X130456779Y-127468704D01*
X130278241Y-127327704D01*
X130269897Y-127323098D01*
X130219925Y-127272666D01*
X130205152Y-127203224D01*
X130230267Y-127136818D01*
X130257619Y-127110210D01*
X130401845Y-127007334D01*
X130406051Y-127004334D01*
X130567199Y-126843747D01*
X130621836Y-126767712D01*
X130696938Y-126663198D01*
X130696942Y-126663192D01*
X130699956Y-126658997D01*
X130800755Y-126455046D01*
X130866890Y-126237370D01*
X130880077Y-126137206D01*
X130896148Y-126015136D01*
X130896148Y-126015132D01*
X130896585Y-126011815D01*
X130898242Y-125944000D01*
X130879601Y-125717264D01*
X130824178Y-125496617D01*
X130733462Y-125287985D01*
X130609890Y-125096971D01*
X130456779Y-124928704D01*
X130278241Y-124787704D01*
X130269897Y-124783098D01*
X130219925Y-124732666D01*
X130205152Y-124663224D01*
X130230267Y-124596818D01*
X130257619Y-124570210D01*
X130401845Y-124467334D01*
X130406051Y-124464334D01*
X130567199Y-124303747D01*
X130621764Y-124227812D01*
X130696938Y-124123198D01*
X130696942Y-124123192D01*
X130699956Y-124118997D01*
X130800755Y-123915046D01*
X130866890Y-123697370D01*
X130880077Y-123597206D01*
X130896148Y-123475136D01*
X130896148Y-123475132D01*
X130896585Y-123471815D01*
X130898242Y-123404000D01*
X130879601Y-123177264D01*
X130824178Y-122956617D01*
X130763428Y-122816902D01*
X130735522Y-122752722D01*
X130735520Y-122752719D01*
X130733462Y-122747985D01*
X130609890Y-122556971D01*
X130456779Y-122388704D01*
X130278241Y-122247704D01*
X130269897Y-122243098D01*
X130219925Y-122192666D01*
X130205152Y-122123224D01*
X130230267Y-122056818D01*
X130257619Y-122030210D01*
X130401845Y-121927334D01*
X130406051Y-121924334D01*
X130567199Y-121763747D01*
X130621764Y-121687812D01*
X130696938Y-121583198D01*
X130696942Y-121583192D01*
X130699956Y-121578997D01*
X130800755Y-121375046D01*
X130866890Y-121157370D01*
X130880077Y-121057206D01*
X130896148Y-120935136D01*
X130896148Y-120935132D01*
X130896585Y-120931815D01*
X130898242Y-120864000D01*
X130879601Y-120637264D01*
X130824178Y-120416617D01*
X130733462Y-120207985D01*
X130609890Y-120016971D01*
X130456779Y-119848704D01*
X130278241Y-119707704D01*
X130269897Y-119703098D01*
X130219925Y-119652666D01*
X130205152Y-119583224D01*
X130230267Y-119516818D01*
X130257619Y-119490210D01*
X130401845Y-119387334D01*
X130406051Y-119384334D01*
X130567199Y-119223747D01*
X130621764Y-119147812D01*
X130696938Y-119043198D01*
X130696942Y-119043192D01*
X130699956Y-119038997D01*
X130800755Y-118835046D01*
X130866890Y-118617370D01*
X130880077Y-118517206D01*
X130896148Y-118395136D01*
X130896148Y-118395132D01*
X130896585Y-118391815D01*
X130898242Y-118324000D01*
X130879601Y-118097264D01*
X130824178Y-117876617D01*
X130733462Y-117667985D01*
X130609890Y-117476971D01*
X130456779Y-117308704D01*
X130278241Y-117167704D01*
X130269897Y-117163098D01*
X130219925Y-117112666D01*
X130205152Y-117043224D01*
X130230267Y-116976818D01*
X130257619Y-116950210D01*
X130401845Y-116847334D01*
X130406051Y-116844334D01*
X130567199Y-116683747D01*
X130621764Y-116607812D01*
X130696938Y-116503198D01*
X130696942Y-116503192D01*
X130699956Y-116498997D01*
X130800755Y-116295046D01*
X130866890Y-116077370D01*
X130880077Y-115977206D01*
X130896148Y-115855136D01*
X130896148Y-115855132D01*
X130896585Y-115851815D01*
X130898242Y-115784000D01*
X130879601Y-115557264D01*
X130824178Y-115336617D01*
X130733462Y-115127985D01*
X130609890Y-114936971D01*
X130456779Y-114768704D01*
X130278241Y-114627704D01*
X130269897Y-114623098D01*
X130219925Y-114572666D01*
X130205152Y-114503224D01*
X130230267Y-114436818D01*
X130257619Y-114410210D01*
X130401845Y-114307334D01*
X130406051Y-114304334D01*
X130567199Y-114143747D01*
X130621764Y-114067812D01*
X130696938Y-113963198D01*
X130696942Y-113963192D01*
X130699956Y-113958997D01*
X130800755Y-113755046D01*
X130866890Y-113537370D01*
X130880077Y-113437206D01*
X130896148Y-113315136D01*
X130896148Y-113315132D01*
X130896585Y-113311815D01*
X130896667Y-113308463D01*
X130898160Y-113247365D01*
X130898160Y-113247361D01*
X130898242Y-113244000D01*
X130879601Y-113017264D01*
X130824178Y-112796617D01*
X130733462Y-112587985D01*
X130609890Y-112396971D01*
X130456779Y-112228704D01*
X130278241Y-112087704D01*
X130269897Y-112083098D01*
X130219925Y-112032666D01*
X130205152Y-111963224D01*
X130230267Y-111896818D01*
X130257619Y-111870210D01*
X130401845Y-111767334D01*
X130406051Y-111764334D01*
X130567199Y-111603747D01*
X130621764Y-111527812D01*
X130696938Y-111423198D01*
X130696942Y-111423192D01*
X130699956Y-111418997D01*
X130773028Y-111271147D01*
X130798461Y-111219688D01*
X130798462Y-111219686D01*
X130800755Y-111215046D01*
X130866890Y-110997370D01*
X130877706Y-110915217D01*
X130896148Y-110775136D01*
X130896148Y-110775132D01*
X130896585Y-110771815D01*
X130896667Y-110768463D01*
X130898160Y-110707365D01*
X130898160Y-110707361D01*
X130898242Y-110704000D01*
X130879601Y-110477264D01*
X130824178Y-110256617D01*
X130733462Y-110047985D01*
X130609890Y-109856971D01*
X130456779Y-109688704D01*
X130278241Y-109547704D01*
X130269897Y-109543098D01*
X130219925Y-109492666D01*
X130205152Y-109423224D01*
X130230267Y-109356818D01*
X130257619Y-109330210D01*
X130401845Y-109227334D01*
X130406051Y-109224334D01*
X130567199Y-109063747D01*
X130621764Y-108987812D01*
X130696938Y-108883198D01*
X130696942Y-108883192D01*
X130699956Y-108878997D01*
X130800755Y-108675046D01*
X130866890Y-108457370D01*
X130880077Y-108357206D01*
X130896148Y-108235136D01*
X130896148Y-108235132D01*
X130896585Y-108231815D01*
X130898242Y-108164000D01*
X130879601Y-107937264D01*
X130824178Y-107716617D01*
X130733462Y-107507985D01*
X130609890Y-107316971D01*
X130456779Y-107148704D01*
X130278241Y-107007704D01*
X130269897Y-107003098D01*
X130219925Y-106952666D01*
X130205152Y-106883224D01*
X130230267Y-106816818D01*
X130257619Y-106790210D01*
X130401845Y-106687334D01*
X130406051Y-106684334D01*
X130567199Y-106523747D01*
X130621764Y-106447812D01*
X130696938Y-106343198D01*
X130696942Y-106343192D01*
X130699956Y-106338997D01*
X130800755Y-106135046D01*
X130866890Y-105917370D01*
X130880077Y-105817206D01*
X130896148Y-105695136D01*
X130896148Y-105695132D01*
X130896585Y-105691815D01*
X130898242Y-105624000D01*
X130879601Y-105397264D01*
X130824178Y-105176617D01*
X130733462Y-104967985D01*
X130609890Y-104776971D01*
X130456779Y-104608704D01*
X130278241Y-104467704D01*
X130269897Y-104463098D01*
X130219925Y-104412666D01*
X130205152Y-104343224D01*
X130230267Y-104276818D01*
X130257619Y-104250210D01*
X130401845Y-104147334D01*
X130406051Y-104144334D01*
X130567199Y-103983747D01*
X130621764Y-103907812D01*
X130696938Y-103803198D01*
X130696942Y-103803192D01*
X130699956Y-103798997D01*
X130800755Y-103595046D01*
X130866890Y-103377370D01*
X130880077Y-103277206D01*
X130896148Y-103155136D01*
X130896148Y-103155132D01*
X130896585Y-103151815D01*
X130898242Y-103084000D01*
X130879601Y-102857264D01*
X130824178Y-102636617D01*
X130733462Y-102427985D01*
X130609890Y-102236971D01*
X130456779Y-102068704D01*
X130278241Y-101927704D01*
X130269897Y-101923098D01*
X130219925Y-101872666D01*
X130205152Y-101803224D01*
X130230267Y-101736818D01*
X130257619Y-101710210D01*
X130401845Y-101607334D01*
X130406051Y-101604334D01*
X130567199Y-101443747D01*
X130573733Y-101434654D01*
X130696938Y-101263198D01*
X130696942Y-101263192D01*
X130699956Y-101258997D01*
X130800755Y-101055046D01*
X130866890Y-100837370D01*
X130880562Y-100733524D01*
X130896148Y-100615136D01*
X130896148Y-100615132D01*
X130896585Y-100611815D01*
X130898242Y-100544000D01*
X130879601Y-100317264D01*
X130824178Y-100096617D01*
X130733462Y-99887985D01*
X130609890Y-99696971D01*
X130456779Y-99528704D01*
X130278241Y-99387704D01*
X130240537Y-99366890D01*
X130199904Y-99344460D01*
X130079072Y-99277757D01*
X130074203Y-99276033D01*
X130074199Y-99276031D01*
X129869496Y-99203541D01*
X129869492Y-99203540D01*
X129864621Y-99201815D01*
X129859528Y-99200908D01*
X129859525Y-99200907D01*
X129645734Y-99162825D01*
X129645728Y-99162824D01*
X129640645Y-99161919D01*
X129567196Y-99161022D01*
X129418331Y-99159203D01*
X129418329Y-99159203D01*
X129413161Y-99159140D01*
X129188278Y-99193552D01*
X128972035Y-99264231D01*
X128967447Y-99266619D01*
X128967443Y-99266621D01*
X128857882Y-99323655D01*
X128770239Y-99369279D01*
X128766106Y-99372382D01*
X128766103Y-99372384D01*
X128649873Y-99459652D01*
X128588310Y-99505875D01*
X128584738Y-99509613D01*
X128435643Y-99665632D01*
X128431133Y-99670351D01*
X128302931Y-99858289D01*
X128300758Y-99862971D01*
X128300756Y-99862974D01*
X128223589Y-100029218D01*
X128207145Y-100064643D01*
X128205761Y-100069635D01*
X128158373Y-100240510D01*
X128146348Y-100283869D01*
X128145799Y-100289006D01*
X128123578Y-100496930D01*
X128122172Y-100510082D01*
X128122469Y-100515234D01*
X128122469Y-100515238D01*
X128127845Y-100608463D01*
X128135268Y-100737206D01*
X128136405Y-100742252D01*
X128136406Y-100742258D01*
X128156686Y-100832244D01*
X128185283Y-100959141D01*
X128270875Y-101169927D01*
X128389744Y-101363904D01*
X128393128Y-101367810D01*
X128393129Y-101367812D01*
X128427675Y-101407693D01*
X128538698Y-101535861D01*
X128713737Y-101681181D01*
X128718189Y-101683783D01*
X128718194Y-101683786D01*
X128752609Y-101703896D01*
X128801332Y-101755535D01*
X128814403Y-101825318D01*
X128787671Y-101891090D01*
X128764691Y-101913444D01*
X128631621Y-102013356D01*
X128588310Y-102045875D01*
X128431133Y-102210351D01*
X128302931Y-102398289D01*
X128300758Y-102402971D01*
X128300756Y-102402974D01*
X128214788Y-102588178D01*
X128207145Y-102604643D01*
X128146348Y-102823869D01*
X128122172Y-103050082D01*
X128122469Y-103055234D01*
X128122469Y-103055238D01*
X128127845Y-103148463D01*
X128135268Y-103277206D01*
X128136405Y-103282252D01*
X128136406Y-103282258D01*
X128156686Y-103372244D01*
X128185283Y-103499141D01*
X128270875Y-103709927D01*
X128389744Y-103903904D01*
X128538698Y-104075861D01*
X128713737Y-104221181D01*
X128718189Y-104223783D01*
X128718194Y-104223786D01*
X128752609Y-104243896D01*
X128801332Y-104295535D01*
X128814403Y-104365318D01*
X128787671Y-104431090D01*
X128764691Y-104453444D01*
X128592445Y-104582770D01*
X128588310Y-104585875D01*
X128431133Y-104750351D01*
X128302931Y-104938289D01*
X128300758Y-104942971D01*
X128300756Y-104942974D01*
X128214788Y-105128178D01*
X128207145Y-105144643D01*
X128146348Y-105363869D01*
X128122172Y-105590082D01*
X128122469Y-105595234D01*
X128122469Y-105595238D01*
X128127845Y-105688463D01*
X128135268Y-105817206D01*
X128136405Y-105822252D01*
X128136406Y-105822258D01*
X128156686Y-105912244D01*
X128185283Y-106039141D01*
X128270875Y-106249927D01*
X128389744Y-106443904D01*
X128538698Y-106615861D01*
X128713737Y-106761181D01*
X128718189Y-106763783D01*
X128718194Y-106763786D01*
X128752609Y-106783896D01*
X128801332Y-106835535D01*
X128814403Y-106905318D01*
X128787671Y-106971090D01*
X128764691Y-106993444D01*
X128592445Y-107122770D01*
X128588310Y-107125875D01*
X128431133Y-107290351D01*
X128302931Y-107478289D01*
X128300758Y-107482971D01*
X128300756Y-107482974D01*
X128214788Y-107668178D01*
X128207145Y-107684643D01*
X128146348Y-107903869D01*
X128122172Y-108130082D01*
X128122469Y-108135234D01*
X128122469Y-108135238D01*
X128127845Y-108228463D01*
X128135268Y-108357206D01*
X128136405Y-108362252D01*
X128136406Y-108362258D01*
X128156686Y-108452244D01*
X128185283Y-108579141D01*
X128270875Y-108789927D01*
X128389744Y-108983904D01*
X128538698Y-109155861D01*
X128713737Y-109301181D01*
X128718189Y-109303783D01*
X128718194Y-109303786D01*
X128752609Y-109323896D01*
X128801332Y-109375535D01*
X128814403Y-109445318D01*
X128787671Y-109511090D01*
X128764691Y-109533444D01*
X128592445Y-109662770D01*
X128588310Y-109665875D01*
X128431133Y-109830351D01*
X128302931Y-110018289D01*
X128300758Y-110022971D01*
X128300756Y-110022974D01*
X128214788Y-110208178D01*
X128207145Y-110224643D01*
X128146348Y-110443869D01*
X128145799Y-110449006D01*
X128123854Y-110654347D01*
X128122172Y-110670082D01*
X128122469Y-110675234D01*
X128122469Y-110675238D01*
X128128625Y-110781999D01*
X128135268Y-110897206D01*
X128136405Y-110902252D01*
X128136406Y-110902258D01*
X128140499Y-110920420D01*
X128185283Y-111119141D01*
X128270875Y-111329927D01*
X128389744Y-111523904D01*
X128538698Y-111695861D01*
X128713737Y-111841181D01*
X128718189Y-111843783D01*
X128718194Y-111843786D01*
X128752609Y-111863896D01*
X128801332Y-111915535D01*
X128814403Y-111985318D01*
X128787671Y-112051090D01*
X128764691Y-112073444D01*
X128592445Y-112202770D01*
X128588310Y-112205875D01*
X128431133Y-112370351D01*
X128302931Y-112558289D01*
X128300758Y-112562971D01*
X128300756Y-112562974D01*
X128214788Y-112748178D01*
X128207145Y-112764643D01*
X128196911Y-112801545D01*
X128155409Y-112951198D01*
X128146348Y-112983869D01*
X128145799Y-112989006D01*
X128123295Y-113199576D01*
X128122172Y-113210082D01*
X128122469Y-113215234D01*
X128122469Y-113215238D01*
X128126220Y-113280286D01*
X128135268Y-113437206D01*
X128136405Y-113442252D01*
X128136406Y-113442258D01*
X128156686Y-113532244D01*
X128185283Y-113659141D01*
X128270875Y-113869927D01*
X128389744Y-114063904D01*
X128538698Y-114235861D01*
X128713737Y-114381181D01*
X128718189Y-114383783D01*
X128718194Y-114383786D01*
X128752609Y-114403896D01*
X128801332Y-114455535D01*
X128814403Y-114525318D01*
X128787671Y-114591090D01*
X128764691Y-114613444D01*
X128592445Y-114742770D01*
X128588310Y-114745875D01*
X128431133Y-114910351D01*
X128302931Y-115098289D01*
X128300758Y-115102971D01*
X128300756Y-115102974D01*
X128214788Y-115288178D01*
X128207145Y-115304643D01*
X128146348Y-115523869D01*
X128122172Y-115750082D01*
X128122469Y-115755234D01*
X128122469Y-115755238D01*
X128127845Y-115848463D01*
X128135268Y-115977206D01*
X128136405Y-115982252D01*
X128136406Y-115982258D01*
X128156686Y-116072244D01*
X128185283Y-116199141D01*
X128270875Y-116409927D01*
X128389744Y-116603904D01*
X128538698Y-116775861D01*
X128713737Y-116921181D01*
X128718189Y-116923783D01*
X128718194Y-116923786D01*
X128752609Y-116943896D01*
X128801332Y-116995535D01*
X128814403Y-117065318D01*
X128787671Y-117131090D01*
X128764691Y-117153444D01*
X128592445Y-117282770D01*
X128588310Y-117285875D01*
X128431133Y-117450351D01*
X128302931Y-117638289D01*
X128300758Y-117642971D01*
X128300756Y-117642974D01*
X128214788Y-117828178D01*
X128207145Y-117844643D01*
X128146348Y-118063869D01*
X128145799Y-118069006D01*
X128123253Y-118279968D01*
X128122172Y-118290082D01*
X128122469Y-118295234D01*
X128122469Y-118295238D01*
X128125672Y-118350783D01*
X128135268Y-118517206D01*
X128136405Y-118522252D01*
X128136406Y-118522258D01*
X128156686Y-118612244D01*
X128185283Y-118739141D01*
X128270875Y-118949927D01*
X128389744Y-119143904D01*
X128538698Y-119315861D01*
X128713737Y-119461181D01*
X128718189Y-119463783D01*
X128718194Y-119463786D01*
X128752609Y-119483896D01*
X128801332Y-119535535D01*
X128814403Y-119605318D01*
X128787671Y-119671090D01*
X128764691Y-119693444D01*
X128612940Y-119807382D01*
X128588310Y-119825875D01*
X128431133Y-119990351D01*
X128302931Y-120178289D01*
X128300758Y-120182971D01*
X128300756Y-120182974D01*
X128214788Y-120368178D01*
X128207145Y-120384643D01*
X128146348Y-120603869D01*
X128122172Y-120830082D01*
X128122469Y-120835234D01*
X128122469Y-120835238D01*
X128127845Y-120928463D01*
X128135268Y-121057206D01*
X128136405Y-121062252D01*
X128136406Y-121062258D01*
X128156686Y-121152244D01*
X128185283Y-121279141D01*
X128270875Y-121489927D01*
X128389744Y-121683904D01*
X128538698Y-121855861D01*
X128713737Y-122001181D01*
X128718189Y-122003783D01*
X128718194Y-122003786D01*
X128752609Y-122023896D01*
X128801332Y-122075535D01*
X128814403Y-122145318D01*
X128787671Y-122211090D01*
X128764691Y-122233444D01*
X128657370Y-122314023D01*
X128588310Y-122365875D01*
X128431133Y-122530351D01*
X128302931Y-122718289D01*
X128300758Y-122722971D01*
X128300756Y-122722974D01*
X128213210Y-122911578D01*
X128207145Y-122924643D01*
X128146348Y-123143869D01*
X128145799Y-123149006D01*
X128139950Y-123203739D01*
X128122172Y-123370082D01*
X128122469Y-123375234D01*
X128122469Y-123375238D01*
X128126739Y-123449285D01*
X128135268Y-123597206D01*
X128136405Y-123602252D01*
X128136406Y-123602258D01*
X128156686Y-123692244D01*
X128185283Y-123819141D01*
X128270875Y-124029927D01*
X128389744Y-124223904D01*
X128538698Y-124395861D01*
X128713737Y-124541181D01*
X128718189Y-124543783D01*
X128718194Y-124543786D01*
X128752609Y-124563896D01*
X128801332Y-124615535D01*
X128814403Y-124685318D01*
X128787671Y-124751090D01*
X128764691Y-124773444D01*
X128592445Y-124902770D01*
X128588310Y-124905875D01*
X128431133Y-125070351D01*
X128428221Y-125074620D01*
X128309519Y-125248632D01*
X128302931Y-125258289D01*
X128300758Y-125262971D01*
X128300756Y-125262974D01*
X128210570Y-125457265D01*
X128207145Y-125464643D01*
X128175839Y-125577528D01*
X128150196Y-125669995D01*
X128146348Y-125683869D01*
X128145799Y-125689006D01*
X128125868Y-125875500D01*
X128122172Y-125910082D01*
X128122469Y-125915234D01*
X128122469Y-125915238D01*
X128127845Y-126008463D01*
X128135268Y-126137206D01*
X128136405Y-126142252D01*
X128136406Y-126142258D01*
X128156686Y-126232244D01*
X128185283Y-126359141D01*
X128270875Y-126569927D01*
X128389744Y-126763904D01*
X128538698Y-126935861D01*
X128713737Y-127081181D01*
X128718189Y-127083783D01*
X128718194Y-127083786D01*
X128752609Y-127103896D01*
X128801332Y-127155535D01*
X128814403Y-127225318D01*
X128787671Y-127291090D01*
X128764691Y-127313444D01*
X128592445Y-127442770D01*
X128588310Y-127445875D01*
X128569554Y-127465502D01*
X128438916Y-127602207D01*
X128431133Y-127610351D01*
X128378754Y-127687136D01*
X128306935Y-127792420D01*
X128302931Y-127798289D01*
X128300758Y-127802971D01*
X128300756Y-127802974D01*
X128214788Y-127988178D01*
X128207145Y-128004643D01*
X128146348Y-128223869D01*
X128122172Y-128450082D01*
X128122469Y-128455234D01*
X128122469Y-128455238D01*
X128127845Y-128548463D01*
X128135268Y-128677206D01*
X128136405Y-128682252D01*
X128136406Y-128682258D01*
X128156686Y-128772244D01*
X128185283Y-128899141D01*
X128270875Y-129109927D01*
X128389744Y-129303904D01*
X128538698Y-129475861D01*
X128713737Y-129621181D01*
X128718189Y-129623783D01*
X128718194Y-129623786D01*
X128752609Y-129643896D01*
X128801332Y-129695535D01*
X128814403Y-129765318D01*
X128787671Y-129831090D01*
X128764691Y-129853444D01*
X128620244Y-129961898D01*
X128588310Y-129985875D01*
X128584738Y-129989613D01*
X128471218Y-130108405D01*
X128431133Y-130150351D01*
X128302931Y-130338289D01*
X128300758Y-130342971D01*
X128300756Y-130342974D01*
X128286948Y-130372722D01*
X128207145Y-130544643D01*
X128146348Y-130763869D01*
X128145799Y-130769006D01*
X128125287Y-130960937D01*
X128122172Y-130990082D01*
X128122469Y-130995234D01*
X128122469Y-130995238D01*
X128124557Y-131031444D01*
X128135268Y-131217206D01*
X128136405Y-131222252D01*
X128136406Y-131222258D01*
X128145789Y-131263892D01*
X128185283Y-131439141D01*
X128270875Y-131649927D01*
X128389744Y-131843904D01*
X128538698Y-132015861D01*
X128713737Y-132161181D01*
X128718189Y-132163783D01*
X128718194Y-132163786D01*
X128752609Y-132183896D01*
X128801332Y-132235535D01*
X128814403Y-132305318D01*
X128787671Y-132371090D01*
X128764691Y-132393444D01*
X128592445Y-132522770D01*
X128588310Y-132525875D01*
X128584738Y-132529613D01*
X128437883Y-132683288D01*
X128431133Y-132690351D01*
X128302931Y-132878289D01*
X128300758Y-132882971D01*
X128300756Y-132882974D01*
X128214788Y-133068178D01*
X128207145Y-133084643D01*
X128146348Y-133303869D01*
X128122172Y-133530082D01*
X128122469Y-133535234D01*
X128122469Y-133535238D01*
X128125500Y-133587797D01*
X128135268Y-133757206D01*
X128136405Y-133762252D01*
X128136406Y-133762258D01*
X128156686Y-133852244D01*
X128185283Y-133979141D01*
X128270875Y-134189927D01*
X128389744Y-134383904D01*
X128538698Y-134555861D01*
X128713737Y-134701181D01*
X128718189Y-134703783D01*
X128718194Y-134703786D01*
X128752609Y-134723896D01*
X128801332Y-134775535D01*
X128814403Y-134845318D01*
X128787671Y-134911090D01*
X128764691Y-134933444D01*
X128592445Y-135062770D01*
X128588310Y-135065875D01*
X128431133Y-135230351D01*
X128428221Y-135234620D01*
X128311854Y-135405209D01*
X128302931Y-135418289D01*
X128300758Y-135422971D01*
X128300756Y-135422974D01*
X128210998Y-135616343D01*
X128207145Y-135624643D01*
X128177247Y-135732452D01*
X128148933Y-135834549D01*
X128146348Y-135843869D01*
X128145799Y-135849006D01*
X128126550Y-136029119D01*
X128122172Y-136070082D01*
X128122469Y-136075234D01*
X128122469Y-136075238D01*
X128129362Y-136194783D01*
X128135268Y-136297206D01*
X128136405Y-136302252D01*
X128136406Y-136302258D01*
X128143377Y-136333189D01*
X128185283Y-136519141D01*
X128270875Y-136729927D01*
X128389744Y-136923904D01*
X128538698Y-137095861D01*
X128713737Y-137241181D01*
X128718189Y-137243783D01*
X128718194Y-137243786D01*
X128752609Y-137263896D01*
X128801332Y-137315535D01*
X128814403Y-137385318D01*
X128787671Y-137451090D01*
X128764691Y-137473444D01*
X128592445Y-137602770D01*
X128588310Y-137605875D01*
X128431133Y-137770351D01*
X128302931Y-137958289D01*
X128300758Y-137962971D01*
X128300756Y-137962974D01*
X128214788Y-138148178D01*
X128207145Y-138164643D01*
X128146348Y-138383869D01*
X128122172Y-138610082D01*
X128122469Y-138615234D01*
X128122469Y-138615238D01*
X128127845Y-138708463D01*
X128135268Y-138837206D01*
X128136405Y-138842252D01*
X128136406Y-138842258D01*
X128156686Y-138932244D01*
X128185283Y-139059141D01*
X128270875Y-139269927D01*
X128389744Y-139463904D01*
X128538698Y-139635861D01*
X128713737Y-139781181D01*
X128718189Y-139783783D01*
X128718194Y-139783786D01*
X128752609Y-139803896D01*
X128801332Y-139855535D01*
X128814403Y-139925318D01*
X128787671Y-139991090D01*
X128764691Y-140013444D01*
X128592445Y-140142770D01*
X128588310Y-140145875D01*
X128431133Y-140310351D01*
X128302931Y-140498289D01*
X128300758Y-140502971D01*
X128300756Y-140502974D01*
X128214788Y-140688178D01*
X128207145Y-140704643D01*
X128146348Y-140923869D01*
X128145799Y-140929006D01*
X128123578Y-141136930D01*
X128122172Y-141150082D01*
X128122469Y-141155234D01*
X128122469Y-141155238D01*
X128127845Y-141248463D01*
X128135268Y-141377206D01*
X128136405Y-141382252D01*
X128136406Y-141382258D01*
X128156686Y-141472244D01*
X128185283Y-141599141D01*
X128270875Y-141809927D01*
X128389744Y-142003904D01*
X128538698Y-142175861D01*
X128713737Y-142321181D01*
X128718189Y-142323783D01*
X128718194Y-142323786D01*
X128752609Y-142343896D01*
X128801332Y-142395535D01*
X128814403Y-142465318D01*
X128787671Y-142531090D01*
X128764691Y-142553444D01*
X128592445Y-142682770D01*
X128588310Y-142685875D01*
X128431133Y-142850351D01*
X128302931Y-143038289D01*
X128300758Y-143042971D01*
X128300756Y-143042974D01*
X128214788Y-143228178D01*
X128207145Y-143244643D01*
X128146348Y-143463869D01*
X128122172Y-143690082D01*
X120258500Y-143690082D01*
X120258500Y-85508296D01*
X120278502Y-85440175D01*
X120332158Y-85393682D01*
X120402432Y-85383578D01*
X120467012Y-85413072D01*
X120505396Y-85472798D01*
X120508143Y-85484038D01*
X120515405Y-85521053D01*
X120516792Y-85525103D01*
X120516793Y-85525108D01*
X120602723Y-85776088D01*
X120604112Y-85780144D01*
X120606039Y-85783975D01*
X120721729Y-86014000D01*
X120727160Y-86024799D01*
X120729586Y-86028328D01*
X120729589Y-86028334D01*
X120879035Y-86245777D01*
X120882274Y-86250490D01*
X120885161Y-86253663D01*
X120885162Y-86253664D01*
X120923665Y-86295978D01*
X121066582Y-86453043D01*
X121069877Y-86455798D01*
X121069878Y-86455799D01*
X121156322Y-86528077D01*
X121195752Y-86587118D01*
X121201500Y-86624740D01*
X121201500Y-87368604D01*
X121200422Y-87385051D01*
X121197521Y-87407086D01*
X121197786Y-87412698D01*
X121201360Y-87488488D01*
X121201500Y-87494424D01*
X121201500Y-87516999D01*
X121201750Y-87519796D01*
X121203819Y-87542988D01*
X121204178Y-87548248D01*
X121208104Y-87631488D01*
X121209354Y-87636947D01*
X121209355Y-87636952D01*
X121212108Y-87648970D01*
X121214789Y-87665899D01*
X121216383Y-87683762D01*
X121217865Y-87689178D01*
X121217865Y-87689180D01*
X121238370Y-87764133D01*
X121239656Y-87769251D01*
X121256506Y-87842819D01*
X121258258Y-87850470D01*
X121260460Y-87855632D01*
X121265294Y-87866967D01*
X121270927Y-87883142D01*
X121275663Y-87900451D01*
X121278079Y-87905516D01*
X121311539Y-87975667D01*
X121313710Y-87980476D01*
X121346397Y-88057109D01*
X121356251Y-88072110D01*
X121364654Y-88087025D01*
X121372378Y-88103218D01*
X121411448Y-88157589D01*
X121420999Y-88170881D01*
X121423989Y-88175232D01*
X121467196Y-88241010D01*
X121467202Y-88241018D01*
X121469735Y-88244874D01*
X121488257Y-88265662D01*
X121496490Y-88275939D01*
X121503471Y-88285654D01*
X121507498Y-88289556D01*
X121580255Y-88360063D01*
X121581665Y-88361452D01*
X123045472Y-89825259D01*
X123056340Y-89837651D01*
X123066462Y-89850843D01*
X123066469Y-89850851D01*
X123069877Y-89855292D01*
X123096752Y-89879746D01*
X123130185Y-89910168D01*
X123134480Y-89914267D01*
X123150411Y-89930198D01*
X123170427Y-89946934D01*
X123174376Y-89950379D01*
X123231879Y-90002703D01*
X123231883Y-90002706D01*
X123236036Y-90006485D01*
X123240791Y-90009468D01*
X123240794Y-90009470D01*
X123251224Y-90016012D01*
X123265097Y-90026091D01*
X123274545Y-90033992D01*
X123274552Y-90033997D01*
X123278854Y-90037594D01*
X123283730Y-90040375D01*
X123351240Y-90078882D01*
X123355759Y-90081587D01*
X123369227Y-90090035D01*
X123421596Y-90122886D01*
X123421599Y-90122888D01*
X123426344Y-90125864D01*
X123431549Y-90127957D01*
X123431552Y-90127958D01*
X123442979Y-90132552D01*
X123458411Y-90140012D01*
X123469119Y-90146120D01*
X123469128Y-90146124D01*
X123473993Y-90148899D01*
X123479270Y-90150768D01*
X123479275Y-90150770D01*
X123552542Y-90176715D01*
X123557478Y-90178580D01*
X123583581Y-90189073D01*
X123634783Y-90209656D01*
X123640270Y-90210792D01*
X123640272Y-90210793D01*
X123652349Y-90213294D01*
X123668844Y-90217899D01*
X123685759Y-90223889D01*
X123768010Y-90237359D01*
X123773180Y-90238317D01*
X123801181Y-90244116D01*
X123838750Y-90251896D01*
X123854767Y-90255213D01*
X123859379Y-90255479D01*
X123859380Y-90255479D01*
X123882548Y-90256815D01*
X123895653Y-90258262D01*
X123901910Y-90259286D01*
X123901914Y-90259286D01*
X123907457Y-90260194D01*
X123913070Y-90260106D01*
X123913072Y-90260106D01*
X124014264Y-90258516D01*
X124016243Y-90258500D01*
X135908604Y-90258500D01*
X135925051Y-90259578D01*
X135941516Y-90261746D01*
X135941520Y-90261746D01*
X135947086Y-90262479D01*
X136028489Y-90258640D01*
X136034424Y-90258500D01*
X136056999Y-90258500D01*
X136082989Y-90256181D01*
X136088248Y-90255822D01*
X136171488Y-90251896D01*
X136176947Y-90250646D01*
X136176952Y-90250645D01*
X136188970Y-90247892D01*
X136205899Y-90245211D01*
X136223762Y-90243617D01*
X136229178Y-90242135D01*
X136229180Y-90242135D01*
X136304133Y-90221630D01*
X136309251Y-90220344D01*
X136385000Y-90202995D01*
X136385002Y-90202994D01*
X136390470Y-90201742D01*
X136400970Y-90197263D01*
X136406967Y-90194706D01*
X136423142Y-90189073D01*
X136435039Y-90185818D01*
X136435043Y-90185817D01*
X136440451Y-90184337D01*
X136510826Y-90150770D01*
X136515667Y-90148461D01*
X136520476Y-90146290D01*
X136591949Y-90115804D01*
X136591950Y-90115804D01*
X136597109Y-90113603D01*
X136612110Y-90103749D01*
X136627025Y-90095346D01*
X136643218Y-90087622D01*
X136647769Y-90084352D01*
X136647772Y-90084350D01*
X136710881Y-90039001D01*
X136715232Y-90036011D01*
X136781010Y-89992804D01*
X136781018Y-89992798D01*
X136784874Y-89990265D01*
X136805662Y-89971743D01*
X136815939Y-89963510D01*
X136825654Y-89956529D01*
X136900062Y-89879746D01*
X136901451Y-89878336D01*
X138209263Y-88570525D01*
X138221654Y-88559657D01*
X138234841Y-88549538D01*
X138239292Y-88546123D01*
X138243065Y-88541977D01*
X138243070Y-88541972D01*
X138294149Y-88485836D01*
X138298247Y-88481541D01*
X138314199Y-88465589D01*
X138315996Y-88463440D01*
X138330933Y-88445576D01*
X138334401Y-88441601D01*
X138386712Y-88384112D01*
X138386719Y-88384103D01*
X138390485Y-88379964D01*
X138400014Y-88364773D01*
X138410089Y-88350907D01*
X138417996Y-88341451D01*
X138418003Y-88341441D01*
X138421594Y-88337146D01*
X138462887Y-88264752D01*
X138465592Y-88260232D01*
X138506886Y-88194404D01*
X138506888Y-88194401D01*
X138509864Y-88189656D01*
X138516552Y-88173021D01*
X138524012Y-88157589D01*
X138530120Y-88146881D01*
X138530124Y-88146872D01*
X138532899Y-88142007D01*
X138534768Y-88136730D01*
X138534770Y-88136725D01*
X138560715Y-88063458D01*
X138562580Y-88058522D01*
X138591566Y-87986416D01*
X138593656Y-87981217D01*
X138594806Y-87975667D01*
X138597294Y-87963651D01*
X138601899Y-87947156D01*
X138607889Y-87930241D01*
X138612767Y-87900451D01*
X138621355Y-87848009D01*
X138622317Y-87842819D01*
X138638277Y-87765754D01*
X138638278Y-87765750D01*
X138639213Y-87761233D01*
X138640815Y-87733452D01*
X138642262Y-87720347D01*
X138643286Y-87714090D01*
X138643286Y-87714083D01*
X138644194Y-87708542D01*
X138642516Y-87601705D01*
X138642500Y-87599727D01*
X138642500Y-86882941D01*
X138661068Y-86817106D01*
X138729649Y-86705193D01*
X138729655Y-86705182D01*
X138732240Y-86700963D01*
X138748204Y-86662424D01*
X138821211Y-86486167D01*
X138821212Y-86486165D01*
X138823105Y-86481594D01*
X138842360Y-86401391D01*
X138877380Y-86255524D01*
X138877381Y-86255518D01*
X138878535Y-86250711D01*
X138897165Y-86014000D01*
X138878535Y-85777289D01*
X138823105Y-85546406D01*
X138810861Y-85516846D01*
X138734135Y-85331611D01*
X138734133Y-85331607D01*
X138732240Y-85327037D01*
X138686453Y-85252320D01*
X138610759Y-85128798D01*
X138610755Y-85128792D01*
X138608176Y-85124584D01*
X138453969Y-84944031D01*
X138273416Y-84789824D01*
X138269208Y-84787245D01*
X138269202Y-84787241D01*
X138075183Y-84668346D01*
X138070963Y-84665760D01*
X138066393Y-84663867D01*
X138066389Y-84663865D01*
X137856167Y-84576789D01*
X137856165Y-84576788D01*
X137851594Y-84574895D01*
X137771391Y-84555640D01*
X137625524Y-84520620D01*
X137625518Y-84520619D01*
X137620711Y-84519465D01*
X137384000Y-84500835D01*
X137147289Y-84519465D01*
X137142482Y-84520619D01*
X137142476Y-84520620D01*
X136996609Y-84555640D01*
X136916406Y-84574895D01*
X136911835Y-84576788D01*
X136911833Y-84576789D01*
X136701611Y-84663865D01*
X136701607Y-84663867D01*
X136697037Y-84665760D01*
X136692817Y-84668346D01*
X136498798Y-84787241D01*
X136498792Y-84787245D01*
X136494584Y-84789824D01*
X136314031Y-84944031D01*
X136159824Y-85124584D01*
X136157245Y-85128792D01*
X136157241Y-85128798D01*
X136081547Y-85252320D01*
X136035760Y-85327037D01*
X136033867Y-85331607D01*
X136033865Y-85331611D01*
X135957139Y-85516846D01*
X135944895Y-85546406D01*
X135889465Y-85777289D01*
X135870835Y-86014000D01*
X135889465Y-86250711D01*
X135890619Y-86255518D01*
X135890620Y-86255524D01*
X135925640Y-86401391D01*
X135944895Y-86481594D01*
X135946788Y-86486165D01*
X135946789Y-86486167D01*
X136019797Y-86662424D01*
X136035760Y-86700963D01*
X136038345Y-86705182D01*
X136038351Y-86705193D01*
X136106932Y-86817106D01*
X136125500Y-86882941D01*
X136125500Y-87042522D01*
X136105498Y-87110643D01*
X136088595Y-87131617D01*
X135515617Y-87704595D01*
X135453305Y-87738621D01*
X135426522Y-87741500D01*
X124573478Y-87741500D01*
X124505357Y-87721498D01*
X124484382Y-87704595D01*
X123755404Y-86975616D01*
X123721379Y-86913304D01*
X123718500Y-86886521D01*
X123718500Y-86626876D01*
X123738502Y-86558755D01*
X123748171Y-86548134D01*
X125531500Y-86548134D01*
X125538255Y-86610316D01*
X125589385Y-86746705D01*
X125676739Y-86863261D01*
X125793295Y-86950615D01*
X125929684Y-87001745D01*
X125991866Y-87008500D01*
X129088134Y-87008500D01*
X129150316Y-87001745D01*
X129286705Y-86950615D01*
X129403261Y-86863261D01*
X129490615Y-86746705D01*
X129541745Y-86610316D01*
X129548500Y-86548134D01*
X129548500Y-83451866D01*
X129541745Y-83389684D01*
X129490615Y-83253295D01*
X129403261Y-83136739D01*
X129286705Y-83049385D01*
X129150316Y-82998255D01*
X129100267Y-82992818D01*
X129091532Y-82991869D01*
X129091530Y-82991869D01*
X129088134Y-82991500D01*
X129085328Y-82991500D01*
X129018499Y-82967881D01*
X128974977Y-82911789D01*
X128968689Y-82841071D01*
X129003159Y-82776628D01*
X129550382Y-82229405D01*
X129612694Y-82195379D01*
X129639477Y-82192500D01*
X136515059Y-82192500D01*
X136580894Y-82211068D01*
X136692807Y-82279649D01*
X136692817Y-82279654D01*
X136697037Y-82282240D01*
X136701607Y-82284133D01*
X136701611Y-82284135D01*
X136902770Y-82367457D01*
X136916406Y-82373105D01*
X136996609Y-82392360D01*
X137142476Y-82427380D01*
X137142482Y-82427381D01*
X137147289Y-82428535D01*
X137384000Y-82447165D01*
X137620711Y-82428535D01*
X137625518Y-82427381D01*
X137625524Y-82427380D01*
X137771391Y-82392360D01*
X137851594Y-82373105D01*
X137865230Y-82367457D01*
X138066389Y-82284135D01*
X138066393Y-82284133D01*
X138070963Y-82282240D01*
X138155240Y-82230595D01*
X138269202Y-82160759D01*
X138269208Y-82160755D01*
X138273416Y-82158176D01*
X138453969Y-82003969D01*
X138608176Y-81823416D01*
X138610755Y-81819208D01*
X138610759Y-81819202D01*
X138729654Y-81625183D01*
X138732240Y-81620963D01*
X138734712Y-81614997D01*
X138821211Y-81406167D01*
X138821212Y-81406165D01*
X138823105Y-81401594D01*
X138868030Y-81214469D01*
X138877380Y-81175524D01*
X138877381Y-81175518D01*
X138878535Y-81170711D01*
X138897165Y-80934000D01*
X138878535Y-80697289D01*
X138823105Y-80466406D01*
X138732240Y-80247037D01*
X138729654Y-80242817D01*
X138610759Y-80048798D01*
X138610755Y-80048792D01*
X138608176Y-80044584D01*
X138465143Y-79877114D01*
X138457177Y-79867787D01*
X138453969Y-79864031D01*
X138273416Y-79709824D01*
X138269208Y-79707245D01*
X138269202Y-79707241D01*
X138075183Y-79588346D01*
X138070963Y-79585760D01*
X138066393Y-79583867D01*
X138066389Y-79583865D01*
X137856167Y-79496789D01*
X137856165Y-79496788D01*
X137851594Y-79494895D01*
X137771391Y-79475640D01*
X137625524Y-79440620D01*
X137625518Y-79440619D01*
X137620711Y-79439465D01*
X137384000Y-79420835D01*
X137147289Y-79439465D01*
X137142482Y-79440619D01*
X137142476Y-79440620D01*
X136996609Y-79475640D01*
X136916406Y-79494895D01*
X136911835Y-79496788D01*
X136911833Y-79496789D01*
X136701611Y-79583865D01*
X136701607Y-79583867D01*
X136697037Y-79585760D01*
X136692818Y-79588345D01*
X136692807Y-79588351D01*
X136580894Y-79656932D01*
X136515059Y-79675500D01*
X129157396Y-79675500D01*
X129140949Y-79674422D01*
X129140270Y-79674333D01*
X129118914Y-79671521D01*
X129113314Y-79671785D01*
X129113313Y-79671785D01*
X129037504Y-79675360D01*
X129031569Y-79675500D01*
X129009001Y-79675500D01*
X129006218Y-79675748D01*
X129006204Y-79675749D01*
X128983023Y-79677818D01*
X128977760Y-79678177D01*
X128948342Y-79679564D01*
X128894512Y-79682103D01*
X128877023Y-79686108D01*
X128860104Y-79688788D01*
X128855618Y-79689189D01*
X128842238Y-79690383D01*
X128836830Y-79691862D01*
X128836827Y-79691863D01*
X128761870Y-79712369D01*
X128756752Y-79713655D01*
X128681000Y-79731005D01*
X128680998Y-79731006D01*
X128675530Y-79732258D01*
X128665030Y-79736737D01*
X128659033Y-79739294D01*
X128642858Y-79744927D01*
X128636806Y-79746583D01*
X128625549Y-79749663D01*
X128620494Y-79752074D01*
X128620489Y-79752076D01*
X128550317Y-79785546D01*
X128545508Y-79787717D01*
X128474053Y-79818195D01*
X128474047Y-79818198D01*
X128468892Y-79820397D01*
X128453902Y-79830244D01*
X128438974Y-79838655D01*
X128422782Y-79846378D01*
X128418229Y-79849650D01*
X128418225Y-79849652D01*
X128355103Y-79895010D01*
X128350753Y-79897999D01*
X128340611Y-79904661D01*
X128281126Y-79943735D01*
X128260338Y-79962257D01*
X128250061Y-79970490D01*
X128240346Y-79977471D01*
X128175309Y-80044584D01*
X128165938Y-80054254D01*
X128164549Y-80055664D01*
X126714737Y-81505475D01*
X126702347Y-81516342D01*
X126684708Y-81529877D01*
X126680938Y-81534020D01*
X126680936Y-81534022D01*
X126629863Y-81590152D01*
X126625764Y-81594448D01*
X126609802Y-81610410D01*
X126608010Y-81612554D01*
X126608002Y-81612562D01*
X126593068Y-81630423D01*
X126589600Y-81634398D01*
X126537288Y-81691888D01*
X126537281Y-81691897D01*
X126533515Y-81696036D01*
X126530538Y-81700782D01*
X126530537Y-81700783D01*
X126523987Y-81711225D01*
X126513911Y-81725093D01*
X126506004Y-81734549D01*
X126505997Y-81734559D01*
X126502406Y-81738854D01*
X126461118Y-81811240D01*
X126458413Y-81815759D01*
X126414136Y-81886344D01*
X126412043Y-81891549D01*
X126412042Y-81891552D01*
X126407448Y-81902979D01*
X126399988Y-81918411D01*
X126393880Y-81929119D01*
X126393876Y-81929128D01*
X126391101Y-81933993D01*
X126389232Y-81939270D01*
X126389230Y-81939275D01*
X126363285Y-82012542D01*
X126361420Y-82017478D01*
X126330344Y-82094783D01*
X126329208Y-82100270D01*
X126329207Y-82100272D01*
X126326706Y-82112349D01*
X126322101Y-82128844D01*
X126316111Y-82145759D01*
X126315204Y-82151298D01*
X126302643Y-82228001D01*
X126301683Y-82233180D01*
X126284787Y-82314767D01*
X126284521Y-82319379D01*
X126284521Y-82319380D01*
X126283185Y-82342548D01*
X126281738Y-82355653D01*
X126280714Y-82361910D01*
X126279806Y-82367457D01*
X126279894Y-82373070D01*
X126279894Y-82373072D01*
X126281484Y-82474264D01*
X126281500Y-82476243D01*
X126281500Y-82865500D01*
X126261498Y-82933621D01*
X126207842Y-82980114D01*
X126155500Y-82991500D01*
X125991866Y-82991500D01*
X125929684Y-82998255D01*
X125793295Y-83049385D01*
X125676739Y-83136739D01*
X125589385Y-83253295D01*
X125538255Y-83389684D01*
X125531500Y-83451866D01*
X125531500Y-86548134D01*
X123748171Y-86548134D01*
X123766753Y-86527723D01*
X123803708Y-86498746D01*
X123803716Y-86498739D01*
X123807089Y-86496094D01*
X123821141Y-86481594D01*
X123994686Y-86302509D01*
X123997669Y-86299431D01*
X124000202Y-86295983D01*
X124000206Y-86295978D01*
X124157257Y-86082178D01*
X124159795Y-86078723D01*
X124187154Y-86028334D01*
X124288418Y-85841830D01*
X124288419Y-85841828D01*
X124290468Y-85838054D01*
X124387269Y-85581877D01*
X124445635Y-85327037D01*
X124447449Y-85319117D01*
X124447450Y-85319113D01*
X124448407Y-85314933D01*
X124465731Y-85120825D01*
X124472531Y-85044627D01*
X124472531Y-85044625D01*
X124472751Y-85042161D01*
X124473193Y-85000000D01*
X124470866Y-84965866D01*
X124454859Y-84731055D01*
X124454858Y-84731049D01*
X124454567Y-84726778D01*
X124399032Y-84458612D01*
X124307617Y-84200465D01*
X124182013Y-83957112D01*
X124172040Y-83942921D01*
X124027008Y-83736562D01*
X124024545Y-83733057D01*
X123838125Y-83532445D01*
X123834810Y-83529731D01*
X123834806Y-83529728D01*
X123673304Y-83397540D01*
X123626205Y-83358990D01*
X123392704Y-83215901D01*
X123388768Y-83214173D01*
X123145873Y-83107549D01*
X123145869Y-83107548D01*
X123141945Y-83105825D01*
X122878566Y-83030800D01*
X122874324Y-83030196D01*
X122874318Y-83030195D01*
X122669387Y-83001029D01*
X122607443Y-82992213D01*
X122463589Y-82991460D01*
X122337877Y-82990802D01*
X122337871Y-82990802D01*
X122333591Y-82990780D01*
X122329347Y-82991339D01*
X122329343Y-82991339D01*
X122255741Y-83001029D01*
X122062078Y-83026525D01*
X122057938Y-83027658D01*
X122057936Y-83027658D01*
X121990037Y-83046233D01*
X121797928Y-83098788D01*
X121793980Y-83100472D01*
X121549982Y-83204546D01*
X121549978Y-83204548D01*
X121546030Y-83206232D01*
X121526125Y-83218145D01*
X121314725Y-83344664D01*
X121314721Y-83344667D01*
X121311043Y-83346868D01*
X121097318Y-83518094D01*
X120908808Y-83716742D01*
X120749002Y-83939136D01*
X120620857Y-84181161D01*
X120619385Y-84185184D01*
X120619383Y-84185188D01*
X120612314Y-84204506D01*
X120526743Y-84438337D01*
X120525831Y-84442520D01*
X120507608Y-84526099D01*
X120473553Y-84588395D01*
X120411225Y-84622390D01*
X120340412Y-84617292D01*
X120283596Y-84574718D01*
X120258817Y-84508186D01*
X120258500Y-84499257D01*
X120258500Y-82091396D01*
X120259578Y-82074949D01*
X120261747Y-82058472D01*
X120262479Y-82052914D01*
X120258640Y-81971504D01*
X120258500Y-81965569D01*
X120258500Y-81943001D01*
X120258252Y-81940218D01*
X120258251Y-81940204D01*
X120256182Y-81917023D01*
X120255823Y-81911760D01*
X120252161Y-81834116D01*
X120251897Y-81828512D01*
X120247892Y-81811023D01*
X120245212Y-81794104D01*
X120244115Y-81781821D01*
X120243617Y-81776238D01*
X120242137Y-81770827D01*
X120221631Y-81695870D01*
X120220345Y-81690752D01*
X120205327Y-81625183D01*
X120201742Y-81609530D01*
X120194707Y-81593037D01*
X120189072Y-81576855D01*
X120185820Y-81564967D01*
X120185817Y-81564958D01*
X120184337Y-81559549D01*
X120181922Y-81554486D01*
X120181918Y-81554475D01*
X120148466Y-81484343D01*
X120146293Y-81479532D01*
X120127627Y-81435768D01*
X120113604Y-81402892D01*
X120109591Y-81396782D01*
X120103756Y-81387900D01*
X120095344Y-81372971D01*
X120087622Y-81356782D01*
X120038996Y-81289111D01*
X120036013Y-81284771D01*
X119992805Y-81218992D01*
X119992801Y-81218987D01*
X119990265Y-81215126D01*
X119971751Y-81194346D01*
X119963506Y-81184055D01*
X119959807Y-81178907D01*
X119959803Y-81178903D01*
X119956529Y-81174346D01*
X119879777Y-81099968D01*
X119878367Y-81098579D01*
X118954525Y-80174737D01*
X118943657Y-80162346D01*
X118933533Y-80149152D01*
X118930123Y-80144708D01*
X118869826Y-80089842D01*
X118865531Y-80085743D01*
X118849590Y-80069802D01*
X118847440Y-80068004D01*
X118829577Y-80053068D01*
X118825602Y-80049600D01*
X118768112Y-79997288D01*
X118768103Y-79997281D01*
X118763964Y-79993515D01*
X118748773Y-79983986D01*
X118734907Y-79973911D01*
X118725451Y-79966004D01*
X118725441Y-79965997D01*
X118721146Y-79962406D01*
X118648752Y-79921113D01*
X118644232Y-79918408D01*
X118639841Y-79915653D01*
X118608900Y-79896244D01*
X118578404Y-79877114D01*
X118578401Y-79877112D01*
X118573656Y-79874136D01*
X118568451Y-79872043D01*
X118568448Y-79872042D01*
X118557021Y-79867448D01*
X118541589Y-79859988D01*
X118530881Y-79853880D01*
X118530872Y-79853876D01*
X118526007Y-79851101D01*
X118520730Y-79849232D01*
X118520725Y-79849230D01*
X118447458Y-79823285D01*
X118442522Y-79821420D01*
X118370416Y-79792434D01*
X118365217Y-79790344D01*
X118359730Y-79789208D01*
X118359728Y-79789207D01*
X118347651Y-79786706D01*
X118331156Y-79782101D01*
X118314241Y-79776111D01*
X118231990Y-79762641D01*
X118226820Y-79761683D01*
X118167291Y-79749355D01*
X118149758Y-79745724D01*
X118149757Y-79745724D01*
X118145233Y-79744787D01*
X118140621Y-79744521D01*
X118140620Y-79744521D01*
X118117452Y-79743185D01*
X118104347Y-79741738D01*
X118098090Y-79740714D01*
X118098086Y-79740714D01*
X118092543Y-79739806D01*
X118086930Y-79739894D01*
X118086928Y-79739894D01*
X117985736Y-79741484D01*
X117983757Y-79741500D01*
X112091396Y-79741500D01*
X112074949Y-79740422D01*
X112070270Y-79739806D01*
X112052914Y-79737521D01*
X112047314Y-79737785D01*
X112047313Y-79737785D01*
X111971504Y-79741360D01*
X111965569Y-79741500D01*
X111943001Y-79741500D01*
X111940218Y-79741748D01*
X111940204Y-79741749D01*
X111917023Y-79743818D01*
X111911760Y-79744177D01*
X111882342Y-79745564D01*
X111828512Y-79748103D01*
X111811023Y-79752108D01*
X111794104Y-79754788D01*
X111789618Y-79755189D01*
X111776238Y-79756383D01*
X111770830Y-79757862D01*
X111770827Y-79757863D01*
X111695870Y-79778369D01*
X111690752Y-79779655D01*
X111633946Y-79792666D01*
X111609530Y-79798258D01*
X111593037Y-79805293D01*
X111576855Y-79810928D01*
X111564967Y-79814180D01*
X111564958Y-79814183D01*
X111559549Y-79815663D01*
X111554486Y-79818078D01*
X111554475Y-79818082D01*
X111484343Y-79851534D01*
X111479542Y-79853702D01*
X111402892Y-79886396D01*
X111398204Y-79889475D01*
X111398203Y-79889476D01*
X111387900Y-79896244D01*
X111372971Y-79904656D01*
X111356782Y-79912378D01*
X111352226Y-79915652D01*
X111352224Y-79915653D01*
X111289122Y-79960997D01*
X111284771Y-79963987D01*
X111218992Y-80007195D01*
X111218987Y-80007199D01*
X111215126Y-80009735D01*
X111211675Y-80012810D01*
X111194346Y-80028249D01*
X111184055Y-80036494D01*
X111178907Y-80040193D01*
X111178903Y-80040197D01*
X111174346Y-80043471D01*
X111146904Y-80071789D01*
X111099968Y-80120223D01*
X111098579Y-80121633D01*
X110094737Y-81125475D01*
X110082347Y-81136342D01*
X110064708Y-81149877D01*
X110010188Y-81209794D01*
X110009842Y-81210174D01*
X110005743Y-81214469D01*
X109989802Y-81230410D01*
X109988007Y-81232557D01*
X109988005Y-81232559D01*
X109973068Y-81250423D01*
X109969600Y-81254398D01*
X109917288Y-81311888D01*
X109917281Y-81311897D01*
X109913515Y-81316036D01*
X109910538Y-81320782D01*
X109910537Y-81320783D01*
X109903987Y-81331225D01*
X109893911Y-81345093D01*
X109886004Y-81354549D01*
X109885997Y-81354559D01*
X109882406Y-81358854D01*
X109841118Y-81431240D01*
X109838413Y-81435759D01*
X109794136Y-81506344D01*
X109792043Y-81511549D01*
X109792042Y-81511552D01*
X109787448Y-81522979D01*
X109779988Y-81538411D01*
X109773880Y-81549119D01*
X109773876Y-81549128D01*
X109771101Y-81553993D01*
X109769232Y-81559270D01*
X109769230Y-81559275D01*
X109743285Y-81632542D01*
X109741420Y-81637478D01*
X109710344Y-81714783D01*
X109709208Y-81720270D01*
X109709207Y-81720272D01*
X109706706Y-81732349D01*
X109702101Y-81748844D01*
X109696111Y-81765759D01*
X109685835Y-81828512D01*
X109682643Y-81848001D01*
X109681683Y-81853180D01*
X109664787Y-81934767D01*
X109664521Y-81939379D01*
X109664521Y-81939380D01*
X109663185Y-81962548D01*
X109661738Y-81975653D01*
X109660714Y-81981910D01*
X109659806Y-81987457D01*
X109659894Y-81993070D01*
X109659894Y-81993072D01*
X109661484Y-82094264D01*
X109661500Y-82096243D01*
X109661500Y-83374124D01*
X109641498Y-83442245D01*
X109614282Y-83472457D01*
X109557318Y-83518094D01*
X109368808Y-83716742D01*
X109209002Y-83939136D01*
X109080857Y-84181161D01*
X109079385Y-84185184D01*
X109079383Y-84185188D01*
X109072314Y-84204506D01*
X108986743Y-84438337D01*
X108928404Y-84705907D01*
X108906917Y-84978918D01*
X108922682Y-85252320D01*
X108923507Y-85256525D01*
X108923508Y-85256533D01*
X108934127Y-85310657D01*
X108975405Y-85521053D01*
X108976792Y-85525103D01*
X108976793Y-85525108D01*
X109062723Y-85776088D01*
X109064112Y-85780144D01*
X109066039Y-85783975D01*
X109181729Y-86014000D01*
X109187160Y-86024799D01*
X109189586Y-86028328D01*
X109189589Y-86028334D01*
X109339035Y-86245777D01*
X109342274Y-86250490D01*
X109345161Y-86253663D01*
X109345162Y-86253664D01*
X109383665Y-86295978D01*
X109526582Y-86453043D01*
X109736675Y-86628707D01*
X109740316Y-86630991D01*
X109965024Y-86771951D01*
X109965028Y-86771953D01*
X109968664Y-86774234D01*
X110036544Y-86804883D01*
X110214345Y-86885164D01*
X110214349Y-86885166D01*
X110218257Y-86886930D01*
X110222377Y-86888150D01*
X110222376Y-86888150D01*
X110476723Y-86963491D01*
X110476727Y-86963492D01*
X110480836Y-86964709D01*
X110485070Y-86965357D01*
X110485075Y-86965358D01*
X110747298Y-87005483D01*
X110747300Y-87005483D01*
X110751540Y-87006132D01*
X110890912Y-87008322D01*
X111021071Y-87010367D01*
X111021077Y-87010367D01*
X111025362Y-87010434D01*
X111297235Y-86977534D01*
X111562127Y-86908041D01*
X111566087Y-86906401D01*
X111566092Y-86906399D01*
X111708515Y-86847405D01*
X111815136Y-86803241D01*
X112051582Y-86665073D01*
X112267089Y-86496094D01*
X112281141Y-86481594D01*
X112454686Y-86302509D01*
X112457669Y-86299431D01*
X112460202Y-86295983D01*
X112460206Y-86295978D01*
X112617257Y-86082178D01*
X112619795Y-86078723D01*
X112647154Y-86028334D01*
X112748418Y-85841830D01*
X112748419Y-85841828D01*
X112750468Y-85838054D01*
X112847269Y-85581877D01*
X112905635Y-85327037D01*
X112907449Y-85319117D01*
X112907450Y-85319113D01*
X112908407Y-85314933D01*
X112925731Y-85120825D01*
X112932531Y-85044627D01*
X112932531Y-85044625D01*
X112932751Y-85042161D01*
X112933193Y-85000000D01*
X112930866Y-84965866D01*
X112914859Y-84731055D01*
X112914858Y-84731049D01*
X112914567Y-84726778D01*
X112859032Y-84458612D01*
X112767617Y-84200465D01*
X112642013Y-83957112D01*
X112632040Y-83942921D01*
X112487008Y-83736562D01*
X112484545Y-83733057D01*
X112298125Y-83532445D01*
X112294810Y-83529731D01*
X112294806Y-83529728D01*
X112224694Y-83472342D01*
X112184648Y-83413717D01*
X112178500Y-83374838D01*
X112178500Y-82653478D01*
X112198502Y-82585357D01*
X112215405Y-82564382D01*
X112484384Y-82295404D01*
X112546696Y-82261379D01*
X112573479Y-82258500D01*
X117426522Y-82258500D01*
X117494643Y-82278502D01*
X117515618Y-82295405D01*
X117704596Y-82484384D01*
X117738621Y-82546696D01*
X117741500Y-82573479D01*
X117741500Y-82872077D01*
X117721498Y-82940198D01*
X117667842Y-82986691D01*
X117601892Y-82997340D01*
X117560195Y-82992810D01*
X117551531Y-82991869D01*
X117548134Y-82991500D01*
X114451866Y-82991500D01*
X114389684Y-82998255D01*
X114253295Y-83049385D01*
X114136739Y-83136739D01*
X114049385Y-83253295D01*
X113998255Y-83389684D01*
X113991500Y-83451866D01*
X113991500Y-86548134D01*
X113998255Y-86610316D01*
X114049385Y-86746705D01*
X114136739Y-86863261D01*
X114253295Y-86950615D01*
X114389684Y-87001745D01*
X114451866Y-87008500D01*
X114615500Y-87008500D01*
X114683621Y-87028502D01*
X114730114Y-87082158D01*
X114741500Y-87134500D01*
X114741500Y-109976522D01*
X114721498Y-110044643D01*
X114704595Y-110065617D01*
X107741617Y-117028595D01*
X107679305Y-117062621D01*
X107652522Y-117065500D01*
X105087991Y-117065500D01*
X105019870Y-117045498D01*
X104973377Y-116991842D01*
X104963273Y-116921568D01*
X104992767Y-116856988D01*
X105004351Y-116845547D01*
X105006051Y-116844334D01*
X105167199Y-116683747D01*
X105221764Y-116607812D01*
X105296938Y-116503198D01*
X105296942Y-116503192D01*
X105299956Y-116498997D01*
X105400755Y-116295046D01*
X105466890Y-116077370D01*
X105480077Y-115977206D01*
X105496148Y-115855136D01*
X105496148Y-115855132D01*
X105496585Y-115851815D01*
X105498242Y-115784000D01*
X105479601Y-115557264D01*
X105424178Y-115336617D01*
X105333462Y-115127985D01*
X105209890Y-114936971D01*
X105056779Y-114768704D01*
X104878241Y-114627704D01*
X104869897Y-114623098D01*
X104819925Y-114572666D01*
X104805152Y-114503224D01*
X104830267Y-114436818D01*
X104857619Y-114410210D01*
X105001845Y-114307334D01*
X105006051Y-114304334D01*
X105167199Y-114143747D01*
X105221764Y-114067812D01*
X105296938Y-113963198D01*
X105296942Y-113963192D01*
X105299956Y-113958997D01*
X105400755Y-113755046D01*
X105466890Y-113537370D01*
X105480077Y-113437206D01*
X105496148Y-113315136D01*
X105496148Y-113315132D01*
X105496585Y-113311815D01*
X105496667Y-113308463D01*
X105498160Y-113247365D01*
X105498160Y-113247361D01*
X105498242Y-113244000D01*
X105479601Y-113017264D01*
X105424178Y-112796617D01*
X105333462Y-112587985D01*
X105209890Y-112396971D01*
X105056779Y-112228704D01*
X104878241Y-112087704D01*
X104869897Y-112083098D01*
X104819925Y-112032666D01*
X104805152Y-111963224D01*
X104830267Y-111896818D01*
X104857619Y-111870210D01*
X105001845Y-111767334D01*
X105006051Y-111764334D01*
X105167199Y-111603747D01*
X105221764Y-111527812D01*
X105296938Y-111423198D01*
X105296942Y-111423192D01*
X105299956Y-111418997D01*
X105373028Y-111271147D01*
X105398461Y-111219688D01*
X105398462Y-111219686D01*
X105400755Y-111215046D01*
X105466890Y-110997370D01*
X105477706Y-110915217D01*
X105496148Y-110775136D01*
X105496148Y-110775132D01*
X105496585Y-110771815D01*
X105496667Y-110768463D01*
X105498160Y-110707365D01*
X105498160Y-110707361D01*
X105498242Y-110704000D01*
X105479601Y-110477264D01*
X105424178Y-110256617D01*
X105333462Y-110047985D01*
X105209890Y-109856971D01*
X105056779Y-109688704D01*
X104878241Y-109547704D01*
X104869897Y-109543098D01*
X104819925Y-109492666D01*
X104805152Y-109423224D01*
X104830267Y-109356818D01*
X104857619Y-109330210D01*
X105001845Y-109227334D01*
X105006051Y-109224334D01*
X105167199Y-109063747D01*
X105221764Y-108987812D01*
X105296938Y-108883198D01*
X105296942Y-108883192D01*
X105299956Y-108878997D01*
X105400755Y-108675046D01*
X105466890Y-108457370D01*
X105480077Y-108357206D01*
X105496148Y-108235136D01*
X105496148Y-108235132D01*
X105496585Y-108231815D01*
X105498242Y-108164000D01*
X105479601Y-107937264D01*
X105424178Y-107716617D01*
X105333462Y-107507985D01*
X105209890Y-107316971D01*
X105056779Y-107148704D01*
X104878241Y-107007704D01*
X104869897Y-107003098D01*
X104819925Y-106952666D01*
X104805152Y-106883224D01*
X104830267Y-106816818D01*
X104857619Y-106790210D01*
X105001845Y-106687334D01*
X105006051Y-106684334D01*
X105167199Y-106523747D01*
X105221764Y-106447812D01*
X105296938Y-106343198D01*
X105296942Y-106343192D01*
X105299956Y-106338997D01*
X105400755Y-106135046D01*
X105466890Y-105917370D01*
X105480077Y-105817206D01*
X105496148Y-105695136D01*
X105496148Y-105695132D01*
X105496585Y-105691815D01*
X105498242Y-105624000D01*
X105479601Y-105397264D01*
X105424178Y-105176617D01*
X105333462Y-104967985D01*
X105209890Y-104776971D01*
X105056779Y-104608704D01*
X104878241Y-104467704D01*
X104869897Y-104463098D01*
X104819925Y-104412666D01*
X104805152Y-104343224D01*
X104830267Y-104276818D01*
X104857619Y-104250210D01*
X105001845Y-104147334D01*
X105006051Y-104144334D01*
X105167199Y-103983747D01*
X105221764Y-103907812D01*
X105296938Y-103803198D01*
X105296942Y-103803192D01*
X105299956Y-103798997D01*
X105400755Y-103595046D01*
X105466890Y-103377370D01*
X105480077Y-103277206D01*
X105496148Y-103155136D01*
X105496148Y-103155132D01*
X105496585Y-103151815D01*
X105498242Y-103084000D01*
X105479601Y-102857264D01*
X105424178Y-102636617D01*
X105333462Y-102427985D01*
X105209890Y-102236971D01*
X105206414Y-102233151D01*
X105206409Y-102233144D01*
X105091324Y-102106668D01*
X105060272Y-102042822D01*
X105068667Y-101972323D01*
X105113843Y-101917555D01*
X105140288Y-101903886D01*
X105223295Y-101872768D01*
X105223296Y-101872767D01*
X105231705Y-101869615D01*
X105348261Y-101782261D01*
X105435615Y-101665705D01*
X105486745Y-101529316D01*
X105493500Y-101467134D01*
X105493500Y-99620866D01*
X105486745Y-99558684D01*
X105435615Y-99422295D01*
X105348261Y-99305739D01*
X105231705Y-99218385D01*
X105095316Y-99167255D01*
X105033134Y-99160500D01*
X103186866Y-99160500D01*
X103124684Y-99167255D01*
X102988295Y-99218385D01*
X102981110Y-99223770D01*
X102981108Y-99223771D01*
X102932333Y-99260326D01*
X102865826Y-99285174D01*
X102856768Y-99285500D01*
X102371396Y-99285500D01*
X102354949Y-99284422D01*
X102354270Y-99284333D01*
X102332914Y-99281521D01*
X102327314Y-99281785D01*
X102327313Y-99281785D01*
X102251504Y-99285360D01*
X102245569Y-99285500D01*
X102223001Y-99285500D01*
X102220218Y-99285748D01*
X102220204Y-99285749D01*
X102197023Y-99287818D01*
X102191760Y-99288177D01*
X102162342Y-99289564D01*
X102108512Y-99292103D01*
X102091023Y-99296108D01*
X102074104Y-99298788D01*
X102069618Y-99299189D01*
X102056238Y-99300383D01*
X102050830Y-99301862D01*
X102050827Y-99301863D01*
X101975870Y-99322369D01*
X101970752Y-99323655D01*
X101895000Y-99341005D01*
X101894998Y-99341006D01*
X101889530Y-99342258D01*
X101879030Y-99346737D01*
X101873033Y-99349294D01*
X101856858Y-99354927D01*
X101850806Y-99356583D01*
X101839549Y-99359663D01*
X101834494Y-99362074D01*
X101834489Y-99362076D01*
X101764317Y-99395546D01*
X101759508Y-99397717D01*
X101688053Y-99428195D01*
X101688047Y-99428198D01*
X101682892Y-99430397D01*
X101667902Y-99440244D01*
X101652974Y-99448655D01*
X101636782Y-99456378D01*
X101632229Y-99459650D01*
X101632225Y-99459652D01*
X101569103Y-99505010D01*
X101564753Y-99507999D01*
X101495126Y-99553735D01*
X101474338Y-99572257D01*
X101464061Y-99580490D01*
X101454346Y-99587471D01*
X101435617Y-99606798D01*
X101379970Y-99664221D01*
X101378581Y-99665632D01*
X100723595Y-100320617D01*
X100661283Y-100354642D01*
X100590467Y-100349577D01*
X100533632Y-100307030D01*
X100508821Y-100240510D01*
X100508500Y-100231521D01*
X100508500Y-73977606D01*
X103861632Y-73977606D01*
X103878378Y-74268023D01*
X103879203Y-74272228D01*
X103879204Y-74272236D01*
X103911615Y-74437436D01*
X103934382Y-74553481D01*
X103935769Y-74557532D01*
X103935770Y-74557536D01*
X104027220Y-74824641D01*
X104027224Y-74824650D01*
X104028609Y-74828696D01*
X104159316Y-75088577D01*
X104324083Y-75328315D01*
X104519862Y-75543473D01*
X104523151Y-75546223D01*
X104739738Y-75727319D01*
X104739743Y-75727323D01*
X104743030Y-75730071D01*
X104808058Y-75770863D01*
X104985817Y-75882371D01*
X104985821Y-75882373D01*
X104989457Y-75884654D01*
X105254584Y-76004363D01*
X105258703Y-76005583D01*
X105529391Y-76085765D01*
X105529396Y-76085766D01*
X105533504Y-76086983D01*
X105537738Y-76087631D01*
X105537743Y-76087632D01*
X105793635Y-76126789D01*
X105821056Y-76130985D01*
X105969176Y-76133312D01*
X106107629Y-76135487D01*
X106107635Y-76135487D01*
X106111920Y-76135554D01*
X106400712Y-76100607D01*
X106682090Y-76026789D01*
X106950846Y-75915466D01*
X107202007Y-75768699D01*
X107430926Y-75589204D01*
X107472578Y-75546223D01*
X107630383Y-75383380D01*
X107633366Y-75380302D01*
X107805583Y-75145858D01*
X107944388Y-74890210D01*
X108047213Y-74618090D01*
X108112157Y-74334533D01*
X108138016Y-74044785D01*
X108138485Y-74000000D01*
X108136958Y-73977606D01*
X136861632Y-73977606D01*
X136878378Y-74268023D01*
X136879203Y-74272228D01*
X136879204Y-74272236D01*
X136911615Y-74437436D01*
X136934382Y-74553481D01*
X136935769Y-74557532D01*
X136935770Y-74557536D01*
X137027220Y-74824641D01*
X137027224Y-74824650D01*
X137028609Y-74828696D01*
X137159316Y-75088577D01*
X137324083Y-75328315D01*
X137519862Y-75543473D01*
X137523151Y-75546223D01*
X137739738Y-75727319D01*
X137739743Y-75727323D01*
X137743030Y-75730071D01*
X137808058Y-75770863D01*
X137985817Y-75882371D01*
X137985821Y-75882373D01*
X137989457Y-75884654D01*
X138254584Y-76004363D01*
X138258703Y-76005583D01*
X138529391Y-76085765D01*
X138529396Y-76085766D01*
X138533504Y-76086983D01*
X138537738Y-76087631D01*
X138537743Y-76087632D01*
X138793635Y-76126789D01*
X138821056Y-76130985D01*
X138969176Y-76133312D01*
X139107629Y-76135487D01*
X139107635Y-76135487D01*
X139111920Y-76135554D01*
X139400712Y-76100607D01*
X139682090Y-76026789D01*
X139950846Y-75915466D01*
X140202007Y-75768699D01*
X140430926Y-75589204D01*
X140472578Y-75546223D01*
X140630383Y-75383380D01*
X140633366Y-75380302D01*
X140805583Y-75145858D01*
X140944388Y-74890210D01*
X141047213Y-74618090D01*
X141112157Y-74334533D01*
X141138016Y-74044785D01*
X141138485Y-74000000D01*
X141118699Y-73709774D01*
X141059709Y-73424919D01*
X140962605Y-73150705D01*
X140829184Y-72892207D01*
X140815765Y-72873113D01*
X140664378Y-72657713D01*
X140661915Y-72654208D01*
X140463894Y-72441112D01*
X140460578Y-72438398D01*
X140460575Y-72438395D01*
X140242102Y-72259577D01*
X140238784Y-72256861D01*
X139990752Y-72104867D01*
X139986835Y-72103148D01*
X139986832Y-72103146D01*
X139869273Y-72051542D01*
X139724386Y-71987941D01*
X139720258Y-71986765D01*
X139720255Y-71986764D01*
X139634087Y-71962218D01*
X139444616Y-71908246D01*
X139440374Y-71907642D01*
X139440368Y-71907641D01*
X139160870Y-71867863D01*
X139156619Y-71867258D01*
X139003232Y-71866455D01*
X138870009Y-71865757D01*
X138870003Y-71865757D01*
X138865723Y-71865735D01*
X138861479Y-71866294D01*
X138861475Y-71866294D01*
X138734456Y-71883017D01*
X138577313Y-71903705D01*
X138573173Y-71904838D01*
X138573171Y-71904838D01*
X138556411Y-71909423D01*
X138296724Y-71980465D01*
X138292776Y-71982149D01*
X138033100Y-72092910D01*
X138033096Y-72092912D01*
X138029148Y-72094596D01*
X137779538Y-72243985D01*
X137552511Y-72425867D01*
X137352269Y-72636878D01*
X137182517Y-72873113D01*
X137046397Y-73130200D01*
X136946426Y-73403382D01*
X136884456Y-73687604D01*
X136861632Y-73977606D01*
X108136958Y-73977606D01*
X108118699Y-73709774D01*
X108059709Y-73424919D01*
X107962605Y-73150705D01*
X107829184Y-72892207D01*
X107815765Y-72873113D01*
X107664378Y-72657713D01*
X107661915Y-72654208D01*
X107463894Y-72441112D01*
X107460578Y-72438398D01*
X107460575Y-72438395D01*
X107242102Y-72259577D01*
X107238784Y-72256861D01*
X106990752Y-72104867D01*
X106986835Y-72103148D01*
X106986832Y-72103146D01*
X106869273Y-72051542D01*
X106724386Y-71987941D01*
X106720258Y-71986765D01*
X106720255Y-71986764D01*
X106634087Y-71962218D01*
X106444616Y-71908246D01*
X106440374Y-71907642D01*
X106440368Y-71907641D01*
X106160870Y-71867863D01*
X106156619Y-71867258D01*
X106003232Y-71866455D01*
X105870009Y-71865757D01*
X105870003Y-71865757D01*
X105865723Y-71865735D01*
X105861479Y-71866294D01*
X105861475Y-71866294D01*
X105734456Y-71883017D01*
X105577313Y-71903705D01*
X105573173Y-71904838D01*
X105573171Y-71904838D01*
X105556411Y-71909423D01*
X105296724Y-71980465D01*
X105292776Y-71982149D01*
X105033100Y-72092910D01*
X105033096Y-72092912D01*
X105029148Y-72094596D01*
X104779538Y-72243985D01*
X104552511Y-72425867D01*
X104352269Y-72636878D01*
X104182517Y-72873113D01*
X104046397Y-73130200D01*
X103946426Y-73403382D01*
X103884456Y-73687604D01*
X103861632Y-73977606D01*
X100508500Y-73977606D01*
X100508500Y-69634500D01*
X100528502Y-69566379D01*
X100582158Y-69519886D01*
X100634500Y-69508500D01*
X144365500Y-69508500D01*
X144433621Y-69528502D01*
G37*
%TD.AperFunction*%
%TA.AperFunction,Conductor*%
G36*
X117671775Y-87015188D02*
G01*
X117723790Y-87063509D01*
X117741500Y-87127923D01*
X117741500Y-144500604D01*
X117740422Y-144517051D01*
X117737521Y-144539086D01*
X117740490Y-144602044D01*
X117741360Y-144620488D01*
X117741500Y-144626424D01*
X117741500Y-144648999D01*
X117741750Y-144651796D01*
X117743819Y-144674988D01*
X117744178Y-144680248D01*
X117748104Y-144763488D01*
X117749354Y-144768947D01*
X117749355Y-144768952D01*
X117752108Y-144780970D01*
X117754789Y-144797900D01*
X117756383Y-144815762D01*
X117753812Y-144815991D01*
X117747382Y-144875732D01*
X117702827Y-144931008D01*
X117630979Y-144953500D01*
X116078392Y-144953500D01*
X116012557Y-144934932D01*
X115901388Y-144866807D01*
X115901377Y-144866801D01*
X115897158Y-144864216D01*
X115892588Y-144862323D01*
X115892584Y-144862321D01*
X115682432Y-144775274D01*
X115682426Y-144775272D01*
X115677863Y-144773382D01*
X115673063Y-144772230D01*
X115673058Y-144772228D01*
X115567643Y-144746920D01*
X115447059Y-144717970D01*
X115210428Y-144699347D01*
X114973797Y-144717970D01*
X114853213Y-144746920D01*
X114747798Y-144772228D01*
X114747793Y-144772230D01*
X114742993Y-144773382D01*
X114738430Y-144775272D01*
X114738424Y-144775274D01*
X114528272Y-144862321D01*
X114528268Y-144862323D01*
X114523698Y-144864216D01*
X114519479Y-144866801D01*
X114519468Y-144866807D01*
X114408299Y-144934932D01*
X114342464Y-144953500D01*
X108458392Y-144953500D01*
X108392557Y-144934932D01*
X108281388Y-144866807D01*
X108281377Y-144866801D01*
X108277158Y-144864216D01*
X108272588Y-144862323D01*
X108272584Y-144862321D01*
X108062432Y-144775274D01*
X108062426Y-144775272D01*
X108057863Y-144773382D01*
X108053063Y-144772230D01*
X108053058Y-144772228D01*
X107947643Y-144746920D01*
X107827059Y-144717970D01*
X107590428Y-144699347D01*
X107353797Y-144717970D01*
X107233213Y-144746920D01*
X107127798Y-144772228D01*
X107127793Y-144772230D01*
X107122993Y-144773382D01*
X107118430Y-144775272D01*
X107118424Y-144775274D01*
X106908272Y-144862321D01*
X106908268Y-144862323D01*
X106903698Y-144864216D01*
X106701313Y-144988238D01*
X106520821Y-145142393D01*
X106366666Y-145322885D01*
X106242644Y-145525270D01*
X106240751Y-145529840D01*
X106240749Y-145529844D01*
X106153702Y-145739996D01*
X106153700Y-145740002D01*
X106151810Y-145744565D01*
X106150658Y-145749365D01*
X106150656Y-145749370D01*
X106133328Y-145821545D01*
X106096398Y-145975369D01*
X106077775Y-146212000D01*
X106096398Y-146448631D01*
X106098457Y-146457206D01*
X106148254Y-146664622D01*
X106151810Y-146679435D01*
X106153700Y-146683998D01*
X106153702Y-146684004D01*
X106240749Y-146894156D01*
X106242644Y-146898730D01*
X106366666Y-147101115D01*
X106520821Y-147281607D01*
X106701313Y-147435762D01*
X106825480Y-147511852D01*
X106829095Y-147514067D01*
X106876726Y-147566715D01*
X106888333Y-147636756D01*
X106860230Y-147701954D01*
X106801339Y-147741608D01*
X106763260Y-147747500D01*
X105494500Y-147747500D01*
X105426379Y-147727498D01*
X105379886Y-147673842D01*
X105368500Y-147621500D01*
X105368500Y-146869746D01*
X105381542Y-146813920D01*
X105389445Y-146797931D01*
X105400755Y-146775046D01*
X105466890Y-146557370D01*
X105467565Y-146552244D01*
X105496148Y-146335136D01*
X105496148Y-146335132D01*
X105496585Y-146331815D01*
X105497089Y-146311190D01*
X105498160Y-146267365D01*
X105498160Y-146267361D01*
X105498242Y-146264000D01*
X105479601Y-146037264D01*
X105424178Y-145816617D01*
X105333462Y-145607985D01*
X105209890Y-145416971D01*
X105056779Y-145248704D01*
X104878241Y-145107704D01*
X104873336Y-145104996D01*
X104869897Y-145103098D01*
X104819925Y-145052666D01*
X104805152Y-144983224D01*
X104830267Y-144916818D01*
X104857619Y-144890210D01*
X105001845Y-144787334D01*
X105006051Y-144784334D01*
X105167199Y-144623747D01*
X105224002Y-144544698D01*
X105296938Y-144443198D01*
X105296942Y-144443192D01*
X105299956Y-144438997D01*
X105400755Y-144235046D01*
X105460698Y-144037751D01*
X105465388Y-144022314D01*
X105465388Y-144022313D01*
X105466890Y-144017370D01*
X105480077Y-143917206D01*
X105496148Y-143795136D01*
X105496148Y-143795132D01*
X105496585Y-143791815D01*
X105498242Y-143724000D01*
X105479601Y-143497264D01*
X105424178Y-143276617D01*
X105333462Y-143067985D01*
X105209890Y-142876971D01*
X105056779Y-142708704D01*
X104878241Y-142567704D01*
X104869897Y-142563098D01*
X104819925Y-142512666D01*
X104805152Y-142443224D01*
X104830267Y-142376818D01*
X104857619Y-142350210D01*
X105001845Y-142247334D01*
X105006051Y-142244334D01*
X105167199Y-142083747D01*
X105221764Y-142007812D01*
X105296938Y-141903198D01*
X105296942Y-141903192D01*
X105299956Y-141898997D01*
X105400755Y-141695046D01*
X105466890Y-141477370D01*
X105480573Y-141373440D01*
X105496148Y-141255136D01*
X105496148Y-141255132D01*
X105496585Y-141251815D01*
X105498242Y-141184000D01*
X105479601Y-140957264D01*
X105424178Y-140736617D01*
X105333462Y-140527985D01*
X105209890Y-140336971D01*
X105056779Y-140168704D01*
X104878241Y-140027704D01*
X104869897Y-140023098D01*
X104819925Y-139972666D01*
X104805152Y-139903224D01*
X104830267Y-139836818D01*
X104857619Y-139810210D01*
X105001845Y-139707334D01*
X105006051Y-139704334D01*
X105167199Y-139543747D01*
X105221764Y-139467812D01*
X105296938Y-139363198D01*
X105296942Y-139363192D01*
X105299956Y-139358997D01*
X105400755Y-139155046D01*
X105466890Y-138937370D01*
X105480077Y-138837206D01*
X105496148Y-138715136D01*
X105496148Y-138715132D01*
X105496585Y-138711815D01*
X105498242Y-138644000D01*
X105479601Y-138417264D01*
X105424178Y-138196617D01*
X105333462Y-137987985D01*
X105209890Y-137796971D01*
X105056779Y-137628704D01*
X104878241Y-137487704D01*
X104869897Y-137483098D01*
X104819925Y-137432666D01*
X104805152Y-137363224D01*
X104830267Y-137296818D01*
X104857619Y-137270210D01*
X105001845Y-137167334D01*
X105006051Y-137164334D01*
X105167199Y-137003747D01*
X105221764Y-136927812D01*
X105296938Y-136823198D01*
X105296942Y-136823192D01*
X105299956Y-136818997D01*
X105400755Y-136615046D01*
X105466890Y-136397370D01*
X105480077Y-136297206D01*
X105496148Y-136175136D01*
X105496148Y-136175132D01*
X105496585Y-136171815D01*
X105497913Y-136117478D01*
X105498160Y-136107365D01*
X105498160Y-136107361D01*
X105498242Y-136104000D01*
X105479601Y-135877264D01*
X105424178Y-135656617D01*
X105338631Y-135459872D01*
X105335522Y-135452722D01*
X105335520Y-135452719D01*
X105333462Y-135447985D01*
X105209890Y-135256971D01*
X105056779Y-135088704D01*
X104878241Y-134947704D01*
X104869897Y-134943098D01*
X104819925Y-134892666D01*
X104805152Y-134823224D01*
X104830267Y-134756818D01*
X104857619Y-134730210D01*
X105001845Y-134627334D01*
X105006051Y-134624334D01*
X105167199Y-134463747D01*
X105221764Y-134387812D01*
X105296938Y-134283198D01*
X105296942Y-134283192D01*
X105299956Y-134278997D01*
X105380000Y-134117041D01*
X105398461Y-134079688D01*
X105398462Y-134079686D01*
X105400755Y-134075046D01*
X105466890Y-133857370D01*
X105480077Y-133757206D01*
X105496148Y-133635136D01*
X105496148Y-133635132D01*
X105496585Y-133631815D01*
X105496667Y-133628463D01*
X105498160Y-133567365D01*
X105498160Y-133567361D01*
X105498242Y-133564000D01*
X105479601Y-133337264D01*
X105424178Y-133116617D01*
X105370844Y-132993957D01*
X105335522Y-132912722D01*
X105335520Y-132912719D01*
X105333462Y-132907985D01*
X105238615Y-132761373D01*
X105212698Y-132721311D01*
X105212696Y-132721308D01*
X105209890Y-132716971D01*
X105056779Y-132548704D01*
X104878241Y-132407704D01*
X104869898Y-132403098D01*
X104811915Y-132371090D01*
X104679072Y-132297757D01*
X104674203Y-132296033D01*
X104674199Y-132296031D01*
X104469496Y-132223541D01*
X104469492Y-132223540D01*
X104464621Y-132221815D01*
X104459528Y-132220908D01*
X104459525Y-132220907D01*
X104245734Y-132182825D01*
X104245728Y-132182824D01*
X104240645Y-132181919D01*
X104167196Y-132181022D01*
X104018331Y-132179203D01*
X104018329Y-132179203D01*
X104013161Y-132179140D01*
X103788278Y-132213552D01*
X103572035Y-132284231D01*
X103567447Y-132286619D01*
X103567443Y-132286621D01*
X103374828Y-132386890D01*
X103370239Y-132389279D01*
X103366106Y-132392382D01*
X103366103Y-132392384D01*
X103192445Y-132522770D01*
X103188310Y-132525875D01*
X103184738Y-132529613D01*
X103037883Y-132683288D01*
X103031133Y-132690351D01*
X102902931Y-132878289D01*
X102900758Y-132882971D01*
X102900756Y-132882974D01*
X102875459Y-132937472D01*
X102820813Y-133055199D01*
X102814788Y-133068178D01*
X102767964Y-133121545D01*
X102699721Y-133141126D01*
X102631725Y-133120703D01*
X102585565Y-133066760D01*
X102574500Y-133015128D01*
X102574500Y-129025251D01*
X102594502Y-128957130D01*
X102648158Y-128910637D01*
X102718432Y-128900533D01*
X102783012Y-128930027D01*
X102817242Y-128977846D01*
X102870875Y-129109927D01*
X102989744Y-129303904D01*
X103138698Y-129475861D01*
X103313737Y-129621181D01*
X103318189Y-129623783D01*
X103318194Y-129623786D01*
X103412199Y-129678718D01*
X103510160Y-129735962D01*
X103722693Y-129817120D01*
X103727759Y-129818151D01*
X103727760Y-129818151D01*
X103781164Y-129829016D01*
X103945627Y-129862476D01*
X104073437Y-129867163D01*
X104167811Y-129870624D01*
X104167815Y-129870624D01*
X104172975Y-129870813D01*
X104178095Y-129870157D01*
X104178097Y-129870157D01*
X104393504Y-129842563D01*
X104393505Y-129842563D01*
X104398632Y-129841906D01*
X104426384Y-129833580D01*
X104611591Y-129778015D01*
X104611592Y-129778014D01*
X104616537Y-129776531D01*
X104820839Y-129676444D01*
X104825043Y-129673446D01*
X104825047Y-129673443D01*
X105001847Y-129547333D01*
X105001849Y-129547331D01*
X105006051Y-129544334D01*
X105167199Y-129383747D01*
X105221764Y-129307812D01*
X105296938Y-129203198D01*
X105296942Y-129203192D01*
X105299956Y-129198997D01*
X105400755Y-128995046D01*
X105466890Y-128777370D01*
X105480077Y-128677206D01*
X105496148Y-128555136D01*
X105496148Y-128555132D01*
X105496585Y-128551815D01*
X105498242Y-128484000D01*
X105479601Y-128257264D01*
X105424178Y-128036617D01*
X105356515Y-127881004D01*
X105335522Y-127832722D01*
X105335520Y-127832719D01*
X105333462Y-127827985D01*
X105253859Y-127704936D01*
X105212698Y-127641311D01*
X105212696Y-127641308D01*
X105209890Y-127636971D01*
X105056779Y-127468704D01*
X104878241Y-127327704D01*
X104869897Y-127323098D01*
X104819925Y-127272666D01*
X104805152Y-127203224D01*
X104830267Y-127136818D01*
X104857619Y-127110210D01*
X105001845Y-127007334D01*
X105006051Y-127004334D01*
X105167199Y-126843747D01*
X105221836Y-126767712D01*
X105296938Y-126663198D01*
X105296942Y-126663192D01*
X105299956Y-126658997D01*
X105400755Y-126455046D01*
X105466890Y-126237370D01*
X105480077Y-126137206D01*
X105496148Y-126015136D01*
X105496148Y-126015132D01*
X105496585Y-126011815D01*
X105498242Y-125944000D01*
X105479601Y-125717264D01*
X105424178Y-125496617D01*
X105333462Y-125287985D01*
X105209890Y-125096971D01*
X105056779Y-124928704D01*
X104878241Y-124787704D01*
X104869897Y-124783098D01*
X104819925Y-124732666D01*
X104805152Y-124663224D01*
X104830267Y-124596818D01*
X104857619Y-124570210D01*
X105001845Y-124467334D01*
X105006051Y-124464334D01*
X105167199Y-124303747D01*
X105221764Y-124227812D01*
X105296938Y-124123198D01*
X105296942Y-124123192D01*
X105299956Y-124118997D01*
X105400755Y-123915046D01*
X105466890Y-123697370D01*
X105480077Y-123597206D01*
X105496148Y-123475136D01*
X105496148Y-123475132D01*
X105496585Y-123471815D01*
X105498242Y-123404000D01*
X105479601Y-123177264D01*
X105424178Y-122956617D01*
X105363428Y-122816902D01*
X105335522Y-122752722D01*
X105335520Y-122752719D01*
X105333462Y-122747985D01*
X105209890Y-122556971D01*
X105056779Y-122388704D01*
X104878241Y-122247704D01*
X104869897Y-122243098D01*
X104819925Y-122192666D01*
X104805152Y-122123224D01*
X104830267Y-122056818D01*
X104857619Y-122030210D01*
X105001845Y-121927334D01*
X105006051Y-121924334D01*
X105167199Y-121763747D01*
X105221764Y-121687812D01*
X105296938Y-121583198D01*
X105296942Y-121583192D01*
X105299956Y-121578997D01*
X105400755Y-121375046D01*
X105466890Y-121157370D01*
X105480077Y-121057206D01*
X105496148Y-120935136D01*
X105496148Y-120935132D01*
X105496585Y-120931815D01*
X105498242Y-120864000D01*
X105479601Y-120637264D01*
X105424178Y-120416617D01*
X105333462Y-120207985D01*
X105209890Y-120016971D01*
X105056779Y-119848704D01*
X105004456Y-119807382D01*
X104963393Y-119749465D01*
X104960161Y-119678542D01*
X104995786Y-119617131D01*
X105058957Y-119584728D01*
X105082548Y-119582500D01*
X107652523Y-119582500D01*
X107720644Y-119602502D01*
X107741618Y-119619405D01*
X113915023Y-125792810D01*
X113949049Y-125855122D01*
X113951928Y-125881905D01*
X113951928Y-140264036D01*
X113933360Y-140329871D01*
X113865235Y-140441040D01*
X113865229Y-140441051D01*
X113862644Y-140445270D01*
X113860751Y-140449840D01*
X113860749Y-140449844D01*
X113773702Y-140659996D01*
X113773700Y-140660002D01*
X113771810Y-140664565D01*
X113770658Y-140669365D01*
X113770656Y-140669370D01*
X113753328Y-140741545D01*
X113716398Y-140895369D01*
X113697775Y-141132000D01*
X113716398Y-141368631D01*
X113717553Y-141373440D01*
X113770528Y-141594094D01*
X113771810Y-141599435D01*
X113773700Y-141603998D01*
X113773702Y-141604004D01*
X113860749Y-141814156D01*
X113862644Y-141818730D01*
X113986666Y-142021115D01*
X114140821Y-142201607D01*
X114321313Y-142355762D01*
X114523698Y-142479784D01*
X114528268Y-142481677D01*
X114528272Y-142481679D01*
X114738424Y-142568726D01*
X114738430Y-142568728D01*
X114742993Y-142570618D01*
X114747793Y-142571770D01*
X114747798Y-142571772D01*
X114853213Y-142597080D01*
X114973797Y-142626030D01*
X115210428Y-142644653D01*
X115447059Y-142626030D01*
X115567643Y-142597080D01*
X115673058Y-142571772D01*
X115673063Y-142571770D01*
X115677863Y-142570618D01*
X115682426Y-142568728D01*
X115682432Y-142568726D01*
X115892584Y-142481679D01*
X115892588Y-142481677D01*
X115897158Y-142479784D01*
X116099543Y-142355762D01*
X116280035Y-142201607D01*
X116434190Y-142021115D01*
X116558212Y-141818730D01*
X116560107Y-141814156D01*
X116647154Y-141604004D01*
X116647156Y-141603998D01*
X116649046Y-141599435D01*
X116650329Y-141594094D01*
X116703303Y-141373440D01*
X116704458Y-141368631D01*
X116723081Y-141132000D01*
X116704458Y-140895369D01*
X116667528Y-140741545D01*
X116650200Y-140669370D01*
X116650198Y-140669365D01*
X116649046Y-140664565D01*
X116647156Y-140660002D01*
X116647154Y-140659996D01*
X116560107Y-140449844D01*
X116560105Y-140449840D01*
X116558212Y-140445270D01*
X116555627Y-140441051D01*
X116555621Y-140441040D01*
X116487496Y-140329871D01*
X116468928Y-140264036D01*
X116468928Y-125399824D01*
X116470006Y-125383377D01*
X116472175Y-125366900D01*
X116472907Y-125361342D01*
X116469068Y-125279932D01*
X116468928Y-125273997D01*
X116468928Y-125251429D01*
X116468680Y-125248646D01*
X116468679Y-125248632D01*
X116466610Y-125225451D01*
X116466251Y-125220188D01*
X116462589Y-125142544D01*
X116462325Y-125136940D01*
X116458320Y-125119451D01*
X116455640Y-125102532D01*
X116454543Y-125090249D01*
X116454045Y-125084666D01*
X116450129Y-125070351D01*
X116432059Y-125004298D01*
X116430773Y-124999180D01*
X116413422Y-124923425D01*
X116412170Y-124917958D01*
X116405135Y-124901465D01*
X116399500Y-124885283D01*
X116396248Y-124873395D01*
X116396245Y-124873386D01*
X116394765Y-124867977D01*
X116392350Y-124862914D01*
X116392346Y-124862903D01*
X116358894Y-124792771D01*
X116356721Y-124787960D01*
X116326231Y-124716476D01*
X116324032Y-124711320D01*
X116314184Y-124696328D01*
X116305772Y-124681399D01*
X116298050Y-124665210D01*
X116249424Y-124597539D01*
X116246441Y-124593199D01*
X116203233Y-124527420D01*
X116203229Y-124527415D01*
X116200693Y-124523554D01*
X116182179Y-124502774D01*
X116173934Y-124492483D01*
X116170235Y-124487335D01*
X116170231Y-124487331D01*
X116166957Y-124482774D01*
X116090205Y-124408396D01*
X116088795Y-124407007D01*
X110094883Y-118413095D01*
X110060857Y-118350783D01*
X110065922Y-118279968D01*
X110094883Y-118234905D01*
X116825263Y-111504525D01*
X116837654Y-111493657D01*
X116850848Y-111483533D01*
X116855292Y-111480123D01*
X116910158Y-111419826D01*
X116914257Y-111415531D01*
X116930198Y-111399590D01*
X116946942Y-111379564D01*
X116950401Y-111375599D01*
X117002708Y-111318115D01*
X117002709Y-111318114D01*
X117006485Y-111313964D01*
X117016016Y-111298770D01*
X117026085Y-111284910D01*
X117037593Y-111271147D01*
X117078869Y-111198782D01*
X117081579Y-111194253D01*
X117122885Y-111128405D01*
X117125864Y-111123656D01*
X117132553Y-111107017D01*
X117140012Y-111091587D01*
X117146119Y-111080881D01*
X117146123Y-111080872D01*
X117148898Y-111076007D01*
X117176715Y-110997454D01*
X117178576Y-110992529D01*
X117207564Y-110920420D01*
X117209656Y-110915217D01*
X117213294Y-110897650D01*
X117217899Y-110881156D01*
X117223889Y-110864241D01*
X117237359Y-110781990D01*
X117238319Y-110776811D01*
X117254276Y-110699758D01*
X117254276Y-110699757D01*
X117255213Y-110695233D01*
X117256815Y-110667452D01*
X117258262Y-110654347D01*
X117259286Y-110648090D01*
X117259286Y-110648086D01*
X117260194Y-110642543D01*
X117258516Y-110535736D01*
X117258500Y-110533757D01*
X117258500Y-87134500D01*
X117278502Y-87066379D01*
X117332158Y-87019886D01*
X117384500Y-87008500D01*
X117548134Y-87008500D01*
X117601892Y-87002660D01*
X117671775Y-87015188D01*
G37*
%TD.AperFunction*%
%TD*%
M02*
