M48
; DRILL file {KiCad (6.0.4)} date Fri May  6 13:14:40 2022
; FORMAT={-:-/ absolute / inch / decimal}
; #@! TF.CreationDate,2022-05-06T13:14:40-03:00
; #@! TF.GenerationSoftware,Kicad,Pcbnew,(6.0.4)
; #@! TF.FileFunction,Plated,1,2,PTH
FMAT,2
INCH
; #@! TA.AperFunction,Plated,PTH,ComponentDrill
T1C0.0295
; #@! TA.AperFunction,Plated,PTH,ComponentDrill
T2C0.0315
; #@! TA.AperFunction,Plated,PTH,ComponentDrill
T3C0.0315
; #@! TA.AperFunction,Plated,PTH,ComponentDrill
T4C0.0394
; #@! TA.AperFunction,Plated,PTH,ComponentDrill
T5C0.0492
; #@! TA.AperFunction,Plated,PTH,ComponentDrill
T6C0.0598
; #@! TA.AperFunction,Plated,PTH,ComponentDrill
T7C0.1280
%
G90
G05
T1
X4.0988Y-3.9584
X4.0988Y-4.0584
X4.0988Y-4.1584
X4.0988Y-4.2584
X4.0988Y-4.3584
X4.0988Y-4.4584
X4.0988Y-4.5584
X4.0988Y-4.6584
X4.0988Y-4.7584
X4.0988Y-4.8584
X4.0988Y-4.9584
X4.0988Y-5.0584
X4.0988Y-5.1584
X4.0988Y-5.2584
X4.0988Y-5.3584
X4.0988Y-5.4584
X4.0988Y-5.5584
X4.0988Y-5.6584
X4.0988Y-5.7584
X5.0988Y-3.9584
X5.0988Y-4.0584
X5.0988Y-4.1584
X5.0988Y-4.2584
X5.0988Y-4.3584
X5.0988Y-4.4584
X5.0988Y-4.5584
X5.0988Y-4.6584
X5.0988Y-4.7584
X5.0988Y-4.8584
X5.0988Y-4.9584
X5.0988Y-5.0584
X5.0988Y-5.1584
X5.0988Y-5.2584
X5.0988Y-5.3584
X5.0988Y-5.4584
X5.0988Y-5.5584
X5.0988Y-5.6584
X5.0988Y-5.7584
T2
X5.4408Y-4.2725
X5.4408Y-4.4103
X5.4408Y-4.7625
X5.4408Y-4.9003
X5.4408Y-5.2775
X5.4408Y-5.4153
T3
X4.2358Y-5.5564
X4.2358Y-5.7564
X4.5358Y-5.5564
X4.5358Y-5.7564
X4.8619Y-5.7564
X4.8619Y-5.9564
X5.3858Y-5.7314
X5.3858Y-5.9314
X5.5908Y-5.8314
X5.5908Y-5.9314
T4
X5.4088Y-3.1864
X5.4088Y-3.3864
X5.6088Y-3.1864
X5.6088Y-3.3864
T5
X5.4558Y-3.7564
X5.4558Y-3.8564
X5.4558Y-3.9564
T6
X4.1669Y-3.3465
X4.3669Y-3.3465
X4.5669Y-3.3465
X4.8213Y-3.3465
X5.0213Y-3.3465
T7
X4.1732Y-2.9134
X4.1732Y-6.1811
X5.4724Y-2.9134
X5.4724Y-6.1811
T0
M30
