%TF.GenerationSoftware,KiCad,Pcbnew,(6.0.4)*%
%TF.CreationDate,2022-05-06T13:14:28-03:00*%
%TF.ProjectId,kicad proyecto,6b696361-6420-4707-926f-796563746f2e,rev?*%
%TF.SameCoordinates,Original*%
%TF.FileFunction,Copper,L1,Top*%
%TF.FilePolarity,Positive*%
%FSLAX46Y46*%
G04 Gerber Fmt 4.6, Leading zero omitted, Abs format (unit mm)*
G04 Created by KiCad (PCBNEW (6.0.4)) date 2022-05-06 13:14:28*
%MOMM*%
%LPD*%
G01*
G04 APERTURE LIST*
%TA.AperFunction,ComponentPad*%
%ADD10C,3.250000*%
%TD*%
%TA.AperFunction,ComponentPad*%
%ADD11R,1.800000X1.800000*%
%TD*%
%TA.AperFunction,ComponentPad*%
%ADD12C,1.800000*%
%TD*%
%TA.AperFunction,ComponentPad*%
%ADD13C,2.000000*%
%TD*%
%TA.AperFunction,ComponentPad*%
%ADD14C,1.998980*%
%TD*%
%TA.AperFunction,ComponentPad*%
%ADD15R,3.000000X3.000000*%
%TD*%
%TA.AperFunction,ComponentPad*%
%ADD16C,3.000000*%
%TD*%
%TA.AperFunction,ComponentPad*%
%ADD17R,1.750000X1.750000*%
%TD*%
%TA.AperFunction,ComponentPad*%
%ADD18C,1.750000*%
%TD*%
%TA.AperFunction,ComponentPad*%
%ADD19R,2.000000X2.000000*%
%TD*%
%TA.AperFunction,ComponentPad*%
%ADD20O,2.000000X2.000000*%
%TD*%
%TA.AperFunction,Conductor*%
%ADD21C,1.500000*%
%TD*%
G04 APERTURE END LIST*
D10*
%TO.P,H1,1*%
%TO.N,N/C*%
X139000000Y-157000000D03*
%TD*%
%TO.P,H4,1*%
%TO.N,N/C*%
X106000000Y-157000000D03*
%TD*%
D11*
%TO.P,C2,1*%
%TO.N,/12V_rect*%
X138197428Y-124467000D03*
D12*
%TO.P,C2,2*%
%TO.N,GND*%
X138197428Y-120967000D03*
%TD*%
D13*
%TO.P,U1,1,IN*%
%TO.N,/12V_rect*%
X138578428Y-100492000D03*
%TO.P,U1,2,GND*%
%TO.N,GND*%
X138578428Y-97952000D03*
%TO.P,U1,3,OUT*%
%TO.N,+5V*%
X138578428Y-95412000D03*
%TD*%
D14*
%TO.P,R2,1*%
%TO.N,GND*%
X107590428Y-141132000D03*
%TO.P,R2,2*%
%TO.N,/E2*%
X107590428Y-146212000D03*
%TD*%
D11*
%TO.P,C1,1*%
%TO.N,GND*%
X138197428Y-137548000D03*
D12*
%TO.P,C1,2*%
%TO.N,/E2*%
X138197428Y-134048000D03*
%TD*%
D15*
%TO.P,Medior_de_corriente_entrada1,1,Pin_1*%
%TO.N,/E1*%
X116000000Y-85000000D03*
D16*
%TO.P,Medior_de_corriente_entrada1,2,Pin_2*%
%TO.N,/E2*%
X110920000Y-85000000D03*
%TO.P,Medior_de_corriente_entrada1,3,Pin_3*%
%TO.N,GND*%
X105840000Y-85000000D03*
%TD*%
D10*
%TO.P,H2,1*%
%TO.N,N/C*%
X106000000Y-74000000D03*
%TD*%
D14*
%TO.P,R3,1*%
%TO.N,+5V*%
X136800428Y-145577000D03*
%TO.P,R3,2*%
%TO.N,Net-(R3-Pad2)*%
X136800428Y-150657000D03*
%TD*%
D11*
%TO.P,C3,1*%
%TO.N,+5V*%
X138197428Y-112021000D03*
D12*
%TO.P,C3,2*%
%TO.N,GND*%
X138197428Y-108521000D03*
%TD*%
D14*
%TO.P,R4,1*%
%TO.N,/E2*%
X115210428Y-146212000D03*
%TO.P,R4,2*%
%TO.N,/E1*%
X115210428Y-141132000D03*
%TD*%
D17*
%TO.P,Micro_controlador1,1,3V3*%
%TO.N,+3V3*%
X104110000Y-100544000D03*
D18*
%TO.P,Micro_controlador1,2,EN*%
%TO.N,unconnected-(Micro_controlador1-Pad2)*%
X104110000Y-103084000D03*
%TO.P,Micro_controlador1,3,SVP*%
%TO.N,unconnected-(Micro_controlador1-Pad3)*%
X104110000Y-105624000D03*
%TO.P,Micro_controlador1,4,SVN*%
%TO.N,unconnected-(Micro_controlador1-Pad4)*%
X104110000Y-108164000D03*
%TO.P,Micro_controlador1,5,IO34*%
%TO.N,unconnected-(Micro_controlador1-Pad5)*%
X104110000Y-110704000D03*
%TO.P,Micro_controlador1,6,IO35*%
%TO.N,unconnected-(Micro_controlador1-Pad6)*%
X104110000Y-113244000D03*
%TO.P,Micro_controlador1,7,IO32*%
%TO.N,/SCL*%
X104110000Y-115784000D03*
%TO.P,Micro_controlador1,8,IO33*%
%TO.N,/E1*%
X104110000Y-118324000D03*
%TO.P,Micro_controlador1,9,IO25*%
%TO.N,unconnected-(Micro_controlador1-Pad9)*%
X104110000Y-120864000D03*
%TO.P,Micro_controlador1,10,IO26*%
%TO.N,unconnected-(Micro_controlador1-Pad10)*%
X104110000Y-123404000D03*
%TO.P,Micro_controlador1,11,IO27*%
%TO.N,unconnected-(Micro_controlador1-Pad11)*%
X104110000Y-125944000D03*
%TO.P,Micro_controlador1,12,IO14*%
%TO.N,unconnected-(Micro_controlador1-Pad12)*%
X104110000Y-128484000D03*
%TO.P,Micro_controlador1,13,IO12*%
%TO.N,GND*%
X104110000Y-131024000D03*
%TO.P,Micro_controlador1,14,GND*%
%TO.N,unconnected-(Micro_controlador1-Pad14)*%
X104110000Y-133564000D03*
%TO.P,Micro_controlador1,15,IO13*%
%TO.N,unconnected-(Micro_controlador1-Pad15)*%
X104110000Y-136104000D03*
%TO.P,Micro_controlador1,16,SD2*%
%TO.N,unconnected-(Micro_controlador1-Pad16)*%
X104110000Y-138644000D03*
%TO.P,Micro_controlador1,17,SD3*%
%TO.N,unconnected-(Micro_controlador1-Pad17)*%
X104110000Y-141184000D03*
%TO.P,Micro_controlador1,18,CMD*%
%TO.N,unconnected-(Micro_controlador1-Pad18)*%
X104110000Y-143724000D03*
%TO.P,Micro_controlador1,19,5V*%
%TO.N,+5V*%
X104110000Y-146264000D03*
%TO.P,Micro_controlador1,20,CLK*%
%TO.N,unconnected-(Micro_controlador1-Pad20)*%
X129510000Y-100544000D03*
%TO.P,Micro_controlador1,21,SD0*%
%TO.N,unconnected-(Micro_controlador1-Pad21)*%
X129510000Y-103084000D03*
%TO.P,Micro_controlador1,22,SD1*%
%TO.N,unconnected-(Micro_controlador1-Pad22)*%
X129510000Y-105624000D03*
%TO.P,Micro_controlador1,23,IO15*%
%TO.N,unconnected-(Micro_controlador1-Pad23)*%
X129510000Y-108164000D03*
%TO.P,Micro_controlador1,24,IO02*%
%TO.N,unconnected-(Micro_controlador1-Pad24)*%
X129510000Y-110704000D03*
%TO.P,Micro_controlador1,25,IO0*%
%TO.N,unconnected-(Micro_controlador1-Pad25)*%
X129510000Y-113244000D03*
%TO.P,Micro_controlador1,26,IO4*%
%TO.N,unconnected-(Micro_controlador1-Pad26)*%
X129510000Y-115784000D03*
%TO.P,Micro_controlador1,27,IO16*%
%TO.N,unconnected-(Micro_controlador1-Pad27)*%
X129510000Y-118324000D03*
%TO.P,Micro_controlador1,28,IO17*%
%TO.N,unconnected-(Micro_controlador1-Pad28)*%
X129510000Y-120864000D03*
%TO.P,Micro_controlador1,29,IO5*%
%TO.N,unconnected-(Micro_controlador1-Pad29)*%
X129510000Y-123404000D03*
%TO.P,Micro_controlador1,30,IO18*%
%TO.N,unconnected-(Micro_controlador1-Pad30)*%
X129510000Y-125944000D03*
%TO.P,Micro_controlador1,31,IO19*%
%TO.N,unconnected-(Micro_controlador1-Pad31)*%
X129510000Y-128484000D03*
%TO.P,Micro_controlador1,32,GND*%
%TO.N,unconnected-(Micro_controlador1-Pad32)*%
X129510000Y-131024000D03*
%TO.P,Micro_controlador1,33,IO21*%
%TO.N,unconnected-(Micro_controlador1-Pad33)*%
X129510000Y-133564000D03*
%TO.P,Micro_controlador1,34,RXD0*%
%TO.N,unconnected-(Micro_controlador1-Pad34)*%
X129510000Y-136104000D03*
%TO.P,Micro_controlador1,35,TXD0*%
%TO.N,unconnected-(Micro_controlador1-Pad35)*%
X129510000Y-138644000D03*
%TO.P,Micro_controlador1,36,IO22*%
%TO.N,unconnected-(Micro_controlador1-Pad36)*%
X129510000Y-141184000D03*
%TO.P,Micro_controlador1,37,IO23*%
%TO.N,unconnected-(Micro_controlador1-Pad37)*%
X129510000Y-143724000D03*
%TO.P,Micro_controlador1,38,GND*%
%TO.N,GND*%
X129510000Y-146264000D03*
%TD*%
D15*
%TO.P,12v_alterna1,1,Pin_1*%
%TO.N,/12v_alterna1*%
X127540000Y-85000000D03*
D16*
%TO.P,12v_alterna1,2,Pin_2*%
%TO.N,/12v_alterna2*%
X122460000Y-85000000D03*
%TD*%
D14*
%TO.P,R1,1*%
%TO.N,/E2*%
X123491000Y-146212000D03*
%TO.P,R1,2*%
%TO.N,+3V3*%
X123491000Y-151292000D03*
%TD*%
D10*
%TO.P,H3,1*%
%TO.N,N/C*%
X139000000Y-74000000D03*
%TD*%
D19*
%TO.P,Puente_de_diodos1,1,+*%
%TO.N,/12V_rect*%
X142464000Y-86014000D03*
D20*
%TO.P,Puente_de_diodos1,2,-*%
%TO.N,GND*%
X142464000Y-80934000D03*
%TO.P,Puente_de_diodos1,3*%
%TO.N,/12v_alterna1*%
X137384000Y-80934000D03*
%TO.P,Puente_de_diodos1,4*%
%TO.N,/12v_alterna2*%
X137384000Y-86014000D03*
%TD*%
D14*
%TO.P,D5,1,K*%
%TO.N,GND*%
X142007428Y-148117000D03*
%TO.P,D5,2,A*%
%TO.N,Net-(R3-Pad2)*%
X142007428Y-150657000D03*
%TD*%
D21*
%TO.N,unconnected-(Micro_controlador1-Pad29)*%
X129484200Y-123275800D02*
X129460000Y-123300000D01*
X129461200Y-123301200D02*
X129460000Y-123300000D01*
%TO.N,unconnected-(Micro_controlador1-Pad36)*%
X129408000Y-141132000D02*
X129460000Y-141080000D01*
X129435800Y-141055800D02*
X129460000Y-141080000D01*
%TD*%
M02*
